SplineFontDB: 3.0
FontName: NimbusMonL-Bold
FullName: Nimbus Mono L Bold
FamilyName: Nimbus Mono L
Weight: Bold
Copyright: Copyright (URW)++,Copyright 1999 by (URW)++ Design & Development; Cyrillic glyphs aded by Valek Filippov (C) 2001-2002
Version: 1.06
ItalicAngle: 0
UnderlinePosition: -150
UnderlineWidth: 50
Ascent: 800
Descent: 200
LayerCount: 2
Layer: 0 1 "Back" 
Layer: 1 1 "Fore" 
NeedsXUIDChange: 1
XUID: [1021 548 848922286 5540149]
FSType: 0
OS2Version: 1
OS2_WeightWidthSlopeOnly: 0
OS2_UseTypoMetrics: 1
CreationTime: 1202696994
ModificationTime: 1214461023
PfmFamily: 17
TTFWeight: 700
TTFWidth: 5
LineGap: 90
VLineGap: 0
Panose: 2 0 8 3 0 0 0 0 0 0
OS2TypoAscent: 0
OS2TypoAOffset: 1
OS2TypoDescent: 0
OS2TypoDOffset: 1
OS2TypoLinegap: 90
OS2WinAscent: 0
OS2WinAOffset: 1
OS2WinDescent: 0
OS2WinDOffset: 1
HheadAscent: 0
HheadAOffset: 1
HheadDescent: 0
HheadDOffset: 1
OS2SubXSize: 650
OS2SubYSize: 700
OS2SubXOff: 0
OS2SubYOff: 140
OS2SupXSize: 650
OS2SupYSize: 700
OS2SupXOff: 0
OS2SupYOff: 480
OS2StrikeYSize: 49
OS2StrikeYPos: 258
OS2Vendor: 'PfEd'
OS2CodePages: 20000097.0fd60000
OS2UnicodeRanges: 800002af.5000204a.00000000.00000000
Lookup: 4 0 1 "'liga' Standard Ligatures in Latin lookup 0"  {"'liga' Standard Ligatures in Latin lookup 0 subtable"  } ['liga' ('latn' <'dflt' > ) ]
DEI: 0
ShortTable: maxp 16
  1
  0
  562
  126
  7
  98
  4
  2
  0
  1
  1
  0
  64
  0
  2
  1
EndShort
LangName: 1033 "" "" "" "FontForge 2.0 : Nimbus Mono L Bold : 4-6-2008" 
GaspTable: 1 65535 2
Encoding: UnicodeBmp
UnicodeInterp: none
NameList: Adobe Glyph List
DisplaySize: -48
AntiAlias: 1
FitToEm: 1
WinInfo: 551 19 12
BeginChars: 65543 657

StartChar: exclam
Encoding: 33 33 4
Width: 600
GlyphClass: 2
Flags: W
LayerCount: 2
Fore
SplineSet
379 525 m 2,0,-1
 350 228 l 2,1,2
 345 179 345 179 301 179 c 0,3,4
 280 179 280 179 266.5 192 c 128,-1,5
 253 205 253 205 251 228 c 2,6,-1
 222 525 l 2,7,8
 220 549 220 549 220 558 c 0,9,10
 220 593 220 593 243 615.5 c 128,-1,11
 266 638 266 638 301 638 c 128,-1,12
 336 638 336 638 358.5 615 c 128,-1,13
 381 592 381 592 381 558 c 0,14,15
 381 551 381 551 379 525 c 2,0,-1
309 -15 m 2,16,-1
 292 -15 l 2,17,18
 264 -15 264 -15 244.5 4.5 c 128,-1,19
 225 24 225 24 225 51 c 128,-1,20
 225 78 225 78 244.5 97.5 c 128,-1,21
 264 117 264 117 292 117 c 2,22,-1
 309 117 l 2,23,24
 337 117 337 117 356 98 c 128,-1,25
 375 79 375 79 375 51 c 128,-1,26
 375 23 375 23 356 4 c 128,-1,27
 337 -15 337 -15 309 -15 c 2,16,-1
EndSplineSet
EndChar

StartChar: quotedbl
Encoding: 34 34 5
Width: 600
GlyphClass: 2
Flags: W
LayerCount: 2
Fore
SplineSet
136 602 m 1,0,-1
 264 602 l 1,1,-1
 233 348 l 2,2,3
 230 328 230 328 223 320 c 128,-1,4
 216 312 216 312 201 312 c 0,5,6
 174 312 174 312 170 347 c 2,7,-1
 136 602 l 1,0,-1
336 602 m 1,8,-1
 464 602 l 1,9,-1
 433 348 l 2,10,11
 430 328 430 328 423 320 c 128,-1,12
 416 312 416 312 401 312 c 0,13,14
 374 312 374 312 370 347 c 2,15,-1
 336 602 l 1,8,-1
EndSplineSet
EndChar

StartChar: numbersign
Encoding: 35 35 6
Width: 600
GlyphClass: 2
Flags: W
LayerCount: 2
Fore
SplineSet
447 444 m 1,0,-1
 472 444 l 2,1,2
 504 444 504 444 517 435 c 0,3,4
 538 419 538 419 538 394 c 0,5,6
 538 365 538 365 514 351 c 0,7,8
 501 344 501 344 472 344 c 2,9,-1
 440 344 l 1,10,-1
 432 238 l 1,11,-1
 451 238 l 2,12,13
 485 238 485 238 497 229 c 0,14,15
 518 213 518 213 518 188 c 0,16,17
 518 160 518 160 494 146 c 0,18,19
 481 139 481 139 452 139 c 2,20,-1
 425 139 l 1,21,-1
 414 -29 l 2,22,23
 412 -60 412 -60 401 -73 c 0,24,25
 385 -92 385 -92 362 -92 c 0,26,27
 342 -92 342 -92 326.5 -76.5 c 128,-1,28
 311 -61 311 -61 313 -41 c 2,29,-1
 315 -22 l 1,30,-1
 326 139 l 1,31,-1
 254 139 l 1,32,-1
 242 -29 l 2,33,34
 242 -92 242 -92 192 -92 c 0,35,36
 170 -92 170 -92 156 -77.5 c 128,-1,37
 142 -63 142 -63 142 -40 c 0,38,39
 142 -29 142 -29 143 -22 c 2,40,-1
 154 139 l 1,41,-1
 128 139 l 2,42,43
 96 139 96 139 83 148 c 0,44,45
 62 164 62 164 62 189 c 0,46,47
 62 217 62 217 86 231 c 0,48,49
 97 238 97 238 128 238 c 2,50,-1
 161 238 l 1,51,-1
 168 344 l 1,52,-1
 149 344 l 2,53,54
 116 344 116 344 103 353 c 0,55,56
 82 369 82 369 82 394 c 0,57,58
 82 423 82 423 106 437 c 0,59,60
 117 444 117 444 149 444 c 2,61,-1
 175 444 l 1,62,-1
 187 612 l 2,63,64
 188 642 188 642 198 656 c 0,65,66
 214 675 214 675 238 675 c 0,67,68
 260 675 260 675 274.5 659.5 c 128,-1,69
 289 644 289 644 288 623 c 2,70,-1
 287 605 l 1,71,-1
 276 444 l 1,72,-1
 347 444 l 1,73,-1
 359 612 l 2,74,75
 360 644 360 644 370 656 c 0,76,77
 386 675 386 675 410 675 c 0,78,79
 429 675 429 675 445.5 659.5 c 128,-1,80
 462 644 462 644 460 627 c 2,81,-1
 458 605 l 1,82,-1
 447 444 l 1,0,-1
340 344 m 1,83,-1
 269 344 l 1,84,-1
 261 238 l 1,85,-1
 333 238 l 1,86,-1
 340 344 l 1,83,-1
EndSplineSet
EndChar

StartChar: dollar
Encoding: 36 36 7
Width: 600
GlyphClass: 2
Flags: W
LayerCount: 2
Fore
SplineSet
351 618 m 2,0,-1
 351 592 l 1,1,2
 355 591 355 591 363 590 c 128,-1,3
 371 589 371 589 375 588 c 0,4,5
 380 587 380 587 395 582 c 2,6,-1
 409 577 l 1,7,8
 410 576 410 576 418 574 c 1,9,10
 433 581 433 581 446 581 c 0,11,12
 466 581 466 581 479.5 568.5 c 128,-1,13
 493 556 493 556 495 536 c 0,14,15
 496 528 496 528 496 515 c 2,16,-1
 496 483 l 2,17,18
 496 450 496 450 487 438 c 0,19,20
 472 417 472 417 446 417 c 0,21,22
 403 417 403 417 394 459 c 0,23,24
 392 473 392 473 366.5 484 c 128,-1,25
 341 495 341 495 310 495 c 0,26,27
 265 495 265 495 238 478 c 128,-1,28
 211 461 211 461 211 433 c 0,29,30
 211 392 211 392 286 377 c 2,31,-1
 351 363 l 2,32,33
 438 345 438 345 475 308 c 0,34,35
 517 266 517 266 517 199 c 0,36,37
 517 134 517 134 473 88 c 128,-1,38
 429 42 429 42 351 27 c 1,39,-1
 351 -56 l 2,40,41
 351 -91 351 -91 342 -102 c 0,42,43
 326 -123 326 -123 302 -123 c 0,44,45
 273 -123 273 -123 259 -99 c 0,46,47
 252 -88 252 -88 252 -56 c 2,48,-1
 252 27 l 1,49,50
 209 36 209 36 173 52 c 1,51,52
 152 34 152 34 134 34 c 0,53,54
 106 34 106 34 90 58 c 0,55,56
 83 71 83 71 83 101 c 2,57,-1
 83 162 l 2,58,59
 83 195 83 195 92 208 c 0,60,61
 108 229 108 229 133 229 c 0,62,63
 153 229 153 229 169 215 c 0,64,65
 176 207 176 207 184 180 c 0,66,67
 190 157 190 157 224.5 140.5 c 128,-1,68
 259 124 259 124 300 124 c 0,69,70
 349 124 349 124 381 146 c 128,-1,71
 413 168 413 168 413 200 c 0,72,73
 413 226 413 226 394 241.5 c 128,-1,74
 375 257 375 257 333 265 c 2,75,-1
 259 280 l 2,76,77
 107 311 107 311 107 435 c 0,78,79
 107 494 107 494 147.5 537.5 c 128,-1,80
 188 581 188 581 252 592 c 1,81,-1
 252 618 l 2,82,83
 252 650 252 650 261 664 c 0,84,85
 278 684 278 684 302 684 c 0,86,87
 330 684 330 684 344 660 c 0,88,89
 351 650 351 650 351 618 c 2,0,-1
EndSplineSet
EndChar

StartChar: percent
Encoding: 37 37 8
Width: 600
GlyphClass: 2
Flags: W
LayerCount: 2
Fore
SplineSet
228 617 m 0,0,1
 287 617 287 617 327.5 576 c 128,-1,2
 368 535 368 535 368 476 c 0,3,4
 368 420 368 420 327 379 c 128,-1,5
 286 338 286 338 229 338 c 0,6,7
 171 338 171 338 130 379 c 128,-1,8
 89 420 89 420 89 478 c 0,9,10
 89 535 89 535 130 576 c 128,-1,11
 171 617 171 617 228 617 c 0,0,1
228 552 m 0,12,13
 198 552 198 552 176 530 c 128,-1,14
 154 508 154 508 154 478 c 0,15,16
 154 447 154 447 176 425 c 128,-1,17
 198 403 198 403 228 403 c 0,18,19
 259 403 259 403 281 425 c 128,-1,20
 303 447 303 447 303 477 c 0,21,22
 303 508 303 508 281.5 530 c 128,-1,23
 260 552 260 552 228 552 c 0,12,13
491 331 m 2,24,-1
 129 213 l 2,25,26
 115 209 115 209 109 209 c 0,27,28
 98 209 98 209 89 218.5 c 128,-1,29
 80 228 80 228 80 241 c 0,30,31
 80 262 80 262 110 272 c 2,32,-1
 472 390 l 2,33,34
 484 394 484 394 492 394 c 0,35,36
 503 394 503 394 512 384.5 c 128,-1,37
 521 375 521 375 521 362 c 0,38,39
 521 339 521 339 491 331 c 2,24,-1
368 264 m 0,40,41
 427 264 427 264 467.5 223 c 128,-1,42
 508 182 508 182 508 123 c 0,43,44
 508 67 508 67 467 26 c 128,-1,45
 426 -15 426 -15 368 -15 c 0,46,47
 311 -15 311 -15 270 26 c 128,-1,48
 229 67 229 67 229 125 c 0,49,50
 229 182 229 182 270 223 c 128,-1,51
 311 264 311 264 368 264 c 0,40,41
368 199 m 0,52,53
 338 199 338 199 316 177 c 128,-1,54
 294 155 294 155 294 125 c 0,55,56
 294 94 294 94 316 72 c 128,-1,57
 338 50 338 50 369 50 c 0,58,59
 399 50 399 50 421 72 c 128,-1,60
 443 94 443 94 443 124 c 0,61,62
 443 156 443 156 421.5 177.5 c 128,-1,63
 400 199 400 199 368 199 c 0,52,53
EndSplineSet
EndChar

StartChar: ampersand
Encoding: 38 38 9
Width: 600
GlyphClass: 2
Flags: W
LayerCount: 2
Fore
SplineSet
365 198 m 1,0,-1
 388 280 l 1,1,-1
 441 280 l 2,2,3
 474 280 474 280 487 270 c 0,4,5
 507 255 507 255 507 229 c 0,6,7
 507 210 507 210 494.5 196 c 128,-1,8
 482 182 482 182 464 180 c 1,9,10
 450 128 450 128 434 100 c 1,11,-1
 442 100 l 2,12,13
 474 100 474 100 487 91 c 0,14,15
 508 75 508 75 508 50 c 0,16,17
 508 21 508 21 484 7 c 0,18,19
 473 0 473 0 442 0 c 2,20,-1
 381 0 l 1,21,-1
 370 15 l 1,22,23
 329 -14 329 -14 257 -14 c 0,24,25
 174 -14 174 -14 124.5 29 c 128,-1,26
 75 72 75 72 75 144 c 0,27,28
 75 247 75 247 171 303 c 1,29,30
 137 361 137 361 137 399 c 0,31,32
 137 460 137 460 182.5 505 c 128,-1,33
 228 550 228 550 289 550 c 0,34,35
 322 550 322 550 359 533 c 1,36,37
 380 540 380 540 387 540 c 0,38,39
 406 540 406 540 420.5 524.5 c 128,-1,40
 435 509 435 509 435 490 c 0,41,42
 435 473 435 473 426.5 462.5 c 128,-1,43
 418 452 418 452 394 438 c 2,44,-1
 353 416 l 1,45,46
 315 450 315 450 290 450 c 0,47,48
 268 450 268 450 252.5 435.5 c 128,-1,49
 237 421 237 421 237 400 c 0,50,51
 237 383 237 383 265 343 c 2,52,-1
 365 198 l 1,0,-1
312 100 m 1,53,-1
 228 220 l 1,54,55
 175 196 175 196 175 144 c 0,56,57
 175 86 175 86 257 86 c 0,58,59
 288 86 288 86 312 100 c 1,53,-1
EndSplineSet
EndChar

StartChar: quoteright
Encoding: 8217 8217 10
Width: 600
GlyphClass: 2
Flags: W
LayerCount: 2
Fore
SplineSet
219 623 m 1,0,-1
 351 623 l 1,1,-1
 210 355 l 2,2,3
 198 331 198 331 178 331 c 0,4,5
 165 331 165 331 156 339.5 c 128,-1,6
 147 348 147 348 147 359 c 0,7,8
 147 367 147 367 150 378 c 2,9,-1
 219 623 l 1,0,-1
EndSplineSet
EndChar

StartChar: parenleft
Encoding: 40 40 11
Width: 600
GlyphClass: 2
Flags: W
LayerCount: 2
Fore
SplineSet
437 632 m 0,0,1
 459 632 459 632 473.5 617.5 c 128,-1,2
 488 603 488 603 488 583 c 0,3,4
 488 568 488 568 476 549 c 0,5,6
 375 387 375 387 375 240 c 0,7,8
 375 94 375 94 476 -70 c 0,9,10
 488 -89 488 -89 488 -104 c 0,11,12
 488 -124 488 -124 473.5 -138.5 c 128,-1,13
 459 -153 459 -153 437 -153 c 0,14,15
 419 -153 419 -153 406 -141.5 c 128,-1,16
 393 -130 393 -130 371 -95 c 0,17,18
 264 75 264 75 264 243 c 0,19,20
 264 323 264 323 294.5 414 c 128,-1,21
 325 505 325 505 380 587 c 0,22,23
 397 614 397 614 408.5 623 c 128,-1,24
 420 632 420 632 437 632 c 0,0,1
EndSplineSet
EndChar

StartChar: parenright
Encoding: 41 41 12
Width: 600
GlyphClass: 2
Flags: W
LayerCount: 2
Fore
SplineSet
168 632 m 0,0,1
 186 632 186 632 199 620.5 c 128,-1,2
 212 609 212 609 234 574 c 0,3,4
 341 404 341 404 341 236 c 0,5,6
 341 156 341 156 310.5 64.5 c 128,-1,7
 280 -27 280 -27 225 -109 c 0,8,9
 208 -135 208 -135 196.5 -144 c 128,-1,10
 185 -153 185 -153 168 -153 c 0,11,12
 146 -153 146 -153 131.5 -138.5 c 128,-1,13
 117 -124 117 -124 117 -104 c 0,14,15
 117 -89 117 -89 129 -70 c 0,16,17
 230 92 230 92 230 239 c 0,18,19
 230 385 230 385 129 549 c 0,20,21
 117 568 117 568 117 583 c 0,22,23
 117 603 117 603 131.5 617.5 c 128,-1,24
 146 632 146 632 168 632 c 0,0,1
EndSplineSet
EndChar

StartChar: asterisk
Encoding: 42 42 13
Width: 600
GlyphClass: 2
Flags: W
LayerCount: 2
Fore
SplineSet
219 372 m 1,0,-1
 133 400 l 2,1,2
 105 408 105 408 94 420 c 128,-1,3
 83 432 83 432 83 452 c 128,-1,4
 83 472 83 472 97 487 c 128,-1,5
 111 502 111 502 130 502 c 0,6,7
 140 502 140 502 164 495 c 2,8,-1
 250 467 l 1,9,-1
 250 556 l 2,10,11
 250 589 250 589 259 601 c 0,12,13
 275 622 275 622 300 622 c 0,14,15
 329 622 329 622 343 598 c 0,16,17
 350 585 350 585 350 556 c 2,18,-1
 350 467 l 1,19,-1
 436 495 l 2,20,21
 461 502 461 502 469 502 c 0,22,23
 488 502 488 502 502.5 487 c 128,-1,24
 517 472 517 472 517 452 c 0,25,26
 517 415 517 415 467 400 c 2,27,-1
 381 372 l 1,28,-1
 433 301 l 2,29,30
 452 274 452 274 452 258 c 0,31,32
 452 238 452 238 437 223 c 128,-1,33
 422 208 422 208 402 208 c 0,34,35
 386 208 386 208 377 214.5 c 128,-1,36
 368 221 368 221 352 242 c 2,37,-1
 300 314 l 1,38,-1
 248 242 l 2,39,40
 233 221 233 221 223 214.5 c 128,-1,41
 213 208 213 208 198 208 c 0,42,43
 178 208 178 208 163 223 c 128,-1,44
 148 238 148 238 148 258 c 0,45,46
 148 273 148 273 167 301 c 2,47,-1
 219 372 l 1,0,-1
EndSplineSet
EndChar

StartChar: plus
Encoding: 43 43 14
Width: 600
GlyphClass: 2
Flags: W
LayerCount: 2
Fore
SplineSet
350 230 m 1,0,-1
 350 66 l 2,1,2
 350 34 350 34 341 21 c 0,3,4
 325 0 325 0 300 0 c 0,5,6
 271 0 271 0 257 24 c 0,7,8
 250 37 250 37 250 66 c 2,9,-1
 250 230 l 1,10,-1
 108 230 l 2,11,12
 75 230 75 230 63 239 c 0,13,14
 42 255 42 255 42 280 c 0,15,16
 42 309 42 309 66 323 c 0,17,18
 76 330 76 330 108 330 c 2,19,-1
 250 330 l 1,20,-1
 250 494 l 2,21,22
 250 528 250 528 260 539 c 1,23,24
 274 560 274 560 300 560 c 0,25,26
 329 560 329 560 343 536 c 0,27,28
 350 526 350 526 350 494 c 2,29,-1
 350 330 l 1,30,-1
 491 330 l 2,31,32
 524 330 524 330 537 321 c 0,33,34
 558 305 558 305 558 280 c 0,35,36
 558 251 558 251 534 237 c 0,37,38
 523 230 523 230 491 230 c 2,39,-1
 350 230 l 1,0,-1
EndSplineSet
EndChar

StartChar: comma
Encoding: 44 44 15
Width: 600
GlyphClass: 2
Flags: W
LayerCount: 2
Fore
SplineSet
219 134 m 1,0,-1
 351 134 l 1,1,-1
 210 -134 l 2,2,3
 198 -158 198 -158 178 -158 c 0,4,5
 165 -158 165 -158 156 -149.5 c 128,-1,6
 147 -141 147 -141 147 -130 c 0,7,8
 147 -122 147 -122 150 -111 c 2,9,-1
 219 134 l 1,0,-1
EndSplineSet
EndChar

StartChar: hyphen
Encoding: 45 45 16
Width: 600
GlyphClass: 2
Flags: W
LayerCount: 2
Fore
SplineSet
492 229 m 2,0,-1
 108 229 l 2,1,2
 75 229 75 229 63 238 c 0,3,4
 42 254 42 254 42 279 c 0,5,6
 42 306 42 306 66 322 c 0,7,8
 76 329 76 329 108 329 c 2,9,-1
 492 329 l 2,10,11
 525 329 525 329 538 320 c 0,12,13
 558 305 558 305 558 279 c 0,14,15
 558 250 558 250 534 236 c 0,16,17
 523 229 523 229 492 229 c 2,0,-1
EndSplineSet
EndChar

StartChar: period
Encoding: 46 46 17
Width: 600
GlyphClass: 2
Flags: W
LayerCount: 2
Fore
SplineSet
309 -15 m 2,0,-1
 291 -15 l 2,1,2
 264 -15 264 -15 244.5 4.5 c 128,-1,3
 225 24 225 24 225 51 c 128,-1,4
 225 78 225 78 244.5 97.5 c 128,-1,5
 264 117 264 117 291 117 c 2,6,-1
 309 117 l 2,7,8
 337 117 337 117 356 98 c 128,-1,9
 375 79 375 79 375 51 c 128,-1,10
 375 23 375 23 356 4 c 128,-1,11
 337 -15 337 -15 309 -15 c 2,0,-1
EndSplineSet
EndChar

StartChar: slash
Encoding: 47 47 18
Width: 600
GlyphClass: 2
Flags: W
LayerCount: 2
Fore
SplineSet
505 610 m 2,0,-1
 185 -69 l 2,1,2
 174 -94 174 -94 162.5 -103.5 c 128,-1,3
 151 -113 151 -113 133 -113 c 0,4,5
 113 -113 113 -113 98 -98.5 c 128,-1,6
 83 -84 83 -84 83 -65 c 0,7,8
 83 -51 83 -51 95 -27 c 2,9,-1
 416 651 l 2,10,11
 427 676 427 676 438 685.5 c 128,-1,12
 449 695 449 695 467 695 c 0,13,14
 487 695 487 695 502 680.5 c 128,-1,15
 517 666 517 666 517 647 c 0,16,17
 517 634 517 634 505 610 c 2,0,-1
EndSplineSet
EndChar

StartChar: zero
Encoding: 48 48 19
Width: 600
GlyphClass: 2
Flags: W
LayerCount: 2
Fore
SplineSet
517 359 m 2,0,-1
 517 264 l 2,1,2
 517 121 517 121 439 40 c 0,3,4
 387 -15 387 -15 300 -15 c 128,-1,5
 213 -15 213 -15 161 40 c 0,6,7
 83 121 83 121 83 264 c 2,8,-1
 83 359 l 2,9,10
 83 502 83 502 161 583 c 0,11,12
 213 638 213 638 300 638 c 128,-1,13
 387 638 387 638 439 583 c 0,14,15
 517 502 517 502 517 359 c 2,0,-1
183 366 m 2,16,-1
 183 257 l 2,17,18
 183 179 183 179 215 132 c 128,-1,19
 247 85 247 85 300 85 c 128,-1,20
 353 85 353 85 385 132 c 128,-1,21
 417 179 417 179 417 257 c 2,22,-1
 417 366 l 2,23,24
 417 444 417 444 385 491 c 128,-1,25
 353 538 353 538 300 538 c 128,-1,26
 247 538 247 538 215 491 c 128,-1,27
 183 444 183 444 183 366 c 2,16,-1
EndSplineSet
EndChar

StartChar: one
Encoding: 49 49 20
Width: 600
GlyphClass: 2
Flags: W
LayerCount: 2
Fore
SplineSet
350 638 m 1,0,-1
 350 100 l 1,1,-1
 451 100 l 2,2,3
 483 100 483 100 496 91 c 0,4,5
 517 75 517 75 517 50 c 0,6,7
 517 23 517 23 493 7 c 0,8,9
 481 0 481 0 451 0 c 2,10,-1
 149 0 l 2,11,12
 115 0 115 0 104 10 c 0,13,14
 83 25 83 25 83 50 c 0,15,16
 83 79 83 79 107 93 c 0,17,18
 118 100 118 100 149 100 c 2,19,-1
 250 100 l 1,20,-1
 250 509 l 1,21,-1
 163 486 l 2,22,23
 140 480 140 480 131 480 c 0,24,25
 112 480 112 480 98.5 495 c 128,-1,26
 85 510 85 510 85 532 c 128,-1,27
 85 554 85 554 96.5 564.5 c 128,-1,28
 108 575 108 575 138 583 c 2,29,-1
 350 638 l 1,0,-1
EndSplineSet
EndChar

StartChar: two
Encoding: 50 50 21
Width: 600
GlyphClass: 2
Flags: W
LayerCount: 2
Fore
SplineSet
207 100 m 1,0,-1
 408 100 l 1,1,2
 412 154 412 154 458 154 c 0,3,4
 487 154 487 154 501 130 c 0,5,6
 508 117 508 117 508 88 c 2,7,-1
 508 0 l 1,8,-1
 54 0 l 1,9,-1
 54 105 l 1,10,11
 238 257 238 257 286 301 c 0,12,13
 361 369 361 369 382 395.5 c 128,-1,14
 403 422 403 422 403 448 c 0,15,16
 403 486 403 486 370 512 c 128,-1,17
 337 538 337 538 288 538 c 0,18,19
 226 538 226 538 191 497 c 0,20,21
 180 484 180 484 169 451 c 0,22,23
 160 422 160 422 124 422 c 0,24,25
 104 422 104 422 89 436.5 c 128,-1,26
 74 451 74 451 74 470 c 0,27,28
 74 494 74 494 91.5 526.5 c 128,-1,29
 109 559 109 559 134 582 c 0,30,31
 196 638 196 638 290 638 c 0,32,33
 381 638 381 638 442 582.5 c 128,-1,34
 503 527 503 527 503 444 c 0,35,36
 503 395 503 395 478.5 356.5 c 128,-1,37
 454 318 454 318 380 251 c 0,38,39
 354 227 354 227 207 100 c 1,0,-1
EndSplineSet
EndChar

StartChar: three
Encoding: 51 51 22
Width: 600
GlyphClass: 2
Flags: W
LayerCount: 2
Fore
SplineSet
276 383 m 2,0,-1
 316 383 l 2,1,2
 353 383 353 383 380 406.5 c 128,-1,3
 407 430 407 430 407 462 c 0,4,5
 407 497 407 497 377 517.5 c 128,-1,6
 347 538 347 538 295 538 c 0,7,8
 254 538 254 538 229 528 c 128,-1,9
 204 518 204 518 180 492 c 0,10,11
 165 477 165 477 144 477 c 0,12,13
 124 477 124 477 109.5 492 c 128,-1,14
 95 507 95 507 95 527 c 0,15,16
 95 570 95 570 158 604 c 128,-1,17
 221 638 221 638 301 638 c 0,18,19
 400 638 400 638 457 580 c 0,20,21
 507 532 507 532 507 464 c 0,22,23
 507 423 507 423 486 392.5 c 128,-1,24
 465 362 465 362 416 333 c 1,25,26
 529 278 529 278 529 182 c 0,27,28
 529 90 529 90 455 32 c 0,29,30
 392 -15 392 -15 271 -15 c 0,31,32
 179 -15 179 -15 122.5 8.5 c 128,-1,33
 66 32 66 32 66 70 c 0,34,35
 66 91 66 91 80.5 105.5 c 128,-1,36
 95 120 95 120 116 120 c 0,37,38
 129 120 129 120 148 108 c 0,39,40
 183 85 183 85 268 85 c 0,41,42
 363 85 363 85 401 119 c 0,43,44
 429 145 429 145 429 183 c 0,45,46
 429 211 429 211 408.5 235.5 c 128,-1,47
 388 260 388 260 353 274 c 0,48,49
 328 285 328 285 276 287 c 0,50,51
 224 290 224 290 224 333 c 0,52,53
 224 355 224 355 238.5 369 c 128,-1,54
 253 383 253 383 276 383 c 2,0,-1
EndSplineSet
EndChar

StartChar: four
Encoding: 52 52 23
Width: 600
GlyphClass: 2
Flags: W
LayerCount: 2
Fore
SplineSet
447 622 m 1,0,-1
 447 238 l 1,1,2
 508 238 508 238 508 188 c 0,3,4
 508 140 508 140 447 138 c 1,5,-1
 447 100 l 1,6,7
 508 100 508 100 508 50 c 0,8,9
 508 23 508 23 484 7 c 0,10,11
 472 0 472 0 441 0 c 2,12,-1
 309 0 l 2,13,14
 275 0 275 0 264 10 c 0,15,16
 243 25 243 25 243 50 c 0,17,18
 243 79 243 79 267 93 c 0,19,20
 278 100 278 100 309 100 c 2,21,-1
 347 100 l 1,22,-1
 347 138 l 1,23,-1
 75 138 l 1,24,-1
 75 221 l 1,25,-1
 316 622 l 1,26,-1
 447 622 l 1,0,-1
347 238 m 1,27,-1
 347 480 l 1,28,-1
 197 238 l 1,29,-1
 347 238 l 1,27,-1
EndSplineSet
EndChar

StartChar: five
Encoding: 53 53 24
Width: 600
GlyphClass: 2
Flags: W
LayerCount: 2
Fore
SplineSet
219 522 m 1,0,-1
 219 407 l 1,1,2
 275 424 275 424 318 424 c 0,3,4
 409 424 409 424 469 361 c 128,-1,5
 529 298 529 298 529 202 c 0,6,7
 529 113 529 113 474 53 c 0,8,9
 412 -15 412 -15 278 -15 c 0,10,11
 188 -15 188 -15 127 13.5 c 128,-1,12
 66 42 66 42 66 84 c 0,13,14
 66 104 66 104 81 118.5 c 128,-1,15
 96 133 96 133 116 133 c 0,16,17
 133 133 133 133 152 118 c 0,18,19
 175 99 175 99 201.5 92 c 128,-1,20
 228 85 228 85 277 85 c 0,21,22
 355 85 355 85 392 113.5 c 128,-1,23
 429 142 429 142 429 201 c 0,24,25
 429 256 429 256 398 290 c 128,-1,26
 367 324 367 324 317 324 c 0,27,28
 263 324 263 324 197 290 c 0,29,30
 180 282 180 282 169 282 c 0,31,32
 147 282 147 282 133 298 c 128,-1,33
 119 314 119 314 119 338 c 2,34,-1
 119 622 l 1,35,-1
 421 622 l 2,36,37
 453 622 453 622 467 613 c 0,38,39
 487 596 487 596 487 572 c 0,40,41
 487 543 487 543 463 529 c 0,42,43
 453 522 453 522 421 522 c 2,44,-1
 219 522 l 1,0,-1
EndSplineSet
EndChar

StartChar: six
Encoding: 54 54 25
Width: 600
GlyphClass: 2
Flags: W
LayerCount: 2
Fore
SplineSet
208 324 m 1,0,1
 244 362 244 362 275.5 378 c 128,-1,2
 307 394 307 394 345 394 c 0,3,4
 424 394 424 394 479.5 334 c 128,-1,5
 535 274 535 274 535 189 c 0,6,7
 535 101 535 101 483 44 c 0,8,9
 430 -15 430 -15 331 -15 c 0,10,11
 206 -15 206 -15 149 87 c 0,12,13
 105 168 105 168 105 285 c 0,14,15
 105 417 105 417 182 514 c 0,16,17
 283 638 283 638 423 638 c 0,18,19
 476 638 476 638 508 620 c 128,-1,20
 540 602 540 602 540 573 c 0,21,22
 540 552 540 552 525 537 c 128,-1,23
 510 522 510 522 489 522 c 0,24,25
 475 522 475 522 454 530 c 0,26,27
 440 535 440 535 429 535 c 0,28,29
 350 535 350 535 287.5 475.5 c 128,-1,30
 225 416 225 416 208 324 c 1,0,1
218 209 m 1,31,32
 229 144 229 144 257 114.5 c 128,-1,33
 285 85 285 85 334 85 c 0,34,35
 381 85 381 85 408 113 c 128,-1,36
 435 141 435 141 435 190 c 0,37,38
 435 233 435 233 407 263.5 c 128,-1,39
 379 294 379 294 338 294 c 0,40,41
 306 294 306 294 272 270 c 128,-1,42
 238 246 238 246 218 209 c 1,31,32
EndSplineSet
EndChar

StartChar: seven
Encoding: 55 55 26
Width: 600
GlyphClass: 2
Flags: W
LayerCount: 2
Fore
SplineSet
403 522 m 1,0,-1
 175 522 l 1,1,2
 170 468 170 468 125 468 c 0,3,4
 96 468 96 468 82 492 c 0,5,6
 75 505 75 505 75 534 c 2,7,-1
 75 622 l 1,8,-1
 508 622 l 1,9,-1
 508 523 l 1,10,-1
 349 48 l 2,11,12
 339 21 339 21 327.5 10 c 128,-1,13
 316 -1 316 -1 297 -1 c 0,14,15
 277 -1 277 -1 261.5 13.5 c 128,-1,16
 246 28 246 28 246 47 c 0,17,18
 246 57 246 57 253 81 c 2,19,-1
 403 522 l 1,0,-1
EndSplineSet
EndChar

StartChar: eight
Encoding: 56 56 27
Width: 600
GlyphClass: 2
Flags: W
LayerCount: 2
Fore
SplineSet
420 319 m 1,0,1
 517 258 517 258 517 165 c 0,2,3
 517 85 517 85 456.5 35 c 128,-1,4
 396 -15 396 -15 299 -15 c 0,5,6
 203 -15 203 -15 143 35 c 128,-1,7
 83 85 83 85 83 165 c 0,8,9
 83 258 83 258 180 319 c 1,10,11
 92 378 92 378 92 455 c 128,-1,12
 92 532 92 532 152.5 585 c 128,-1,13
 213 638 213 638 300 638 c 0,14,15
 386 638 386 638 447 585 c 128,-1,16
 508 532 508 532 508 457 c 0,17,18
 508 378 508 378 420 319 c 1,0,1
300 538 m 128,-1,20
 252 538 252 538 222 513.5 c 128,-1,21
 192 489 192 489 192 451 c 128,-1,22
 192 413 192 413 222.5 388.5 c 128,-1,23
 253 364 253 364 300 364 c 128,-1,24
 347 364 347 364 377.5 388 c 128,-1,25
 408 412 408 412 408 450 c 0,26,27
 408 489 408 489 378 513.5 c 128,-1,19
 348 538 348 538 300 538 c 128,-1,20
300 263 m 0,28,29
 252 263 252 263 217.5 236.5 c 128,-1,30
 183 210 183 210 183 173 c 0,31,32
 183 135 183 135 216 110 c 128,-1,33
 249 85 249 85 300 85 c 128,-1,34
 351 85 351 85 384 109.5 c 128,-1,35
 417 134 417 134 417 172 c 128,-1,36
 417 210 417 210 383 236.5 c 128,-1,37
 349 263 349 263 300 263 c 0,28,29
EndSplineSet
EndChar

StartChar: nine
Encoding: 57 57 28
Width: 600
GlyphClass: 2
Flags: W
LayerCount: 2
Fore
SplineSet
438 299 m 1,0,1
 372 229 372 229 302 229 c 0,2,3
 223 229 223 229 167 289 c 128,-1,4
 111 349 111 349 111 434 c 0,5,6
 111 522 111 522 163 579 c 0,7,8
 216 638 216 638 315 638 c 0,9,10
 440 638 440 638 497 536 c 0,11,12
 541 456 541 456 541 338 c 0,13,14
 541 206 541 206 464 109 c 0,15,16
 363 -15 363 -15 223 -15 c 0,17,18
 170 -15 170 -15 138 3 c 128,-1,19
 106 21 106 21 106 50 c 0,20,21
 106 71 106 71 121 86 c 128,-1,22
 136 101 136 101 157 101 c 0,23,24
 171 101 171 101 192 93 c 0,25,26
 206 88 206 88 217 88 c 0,27,28
 296 88 296 88 358.5 147.5 c 128,-1,29
 421 207 421 207 438 299 c 1,0,1
428 414 m 1,30,31
 417 479 417 479 389 508.5 c 128,-1,32
 361 538 361 538 312 538 c 0,33,34
 265 538 265 538 238 510 c 128,-1,35
 211 482 211 482 211 433 c 0,36,37
 211 390 211 390 239 359.5 c 128,-1,38
 267 329 267 329 308 329 c 0,39,40
 340 329 340 329 374 353 c 128,-1,41
 408 377 408 377 428 414 c 1,30,31
EndSplineSet
EndChar

StartChar: colon
Encoding: 58 58 29
Width: 600
GlyphClass: 2
Flags: W
LayerCount: 2
Fore
SplineSet
309 -15 m 2,0,-1
 291 -15 l 2,1,2
 264 -15 264 -15 244.5 4.5 c 128,-1,3
 225 24 225 24 225 51 c 128,-1,4
 225 78 225 78 244.5 97.5 c 128,-1,5
 264 117 264 117 291 117 c 2,6,-1
 309 117 l 2,7,8
 337 117 337 117 356 98 c 128,-1,9
 375 79 375 79 375 51 c 128,-1,10
 375 23 375 23 356 4 c 128,-1,11
 337 -15 337 -15 309 -15 c 2,0,-1
309 304 m 2,12,-1
 291 304 l 2,13,14
 264 304 264 304 244.5 323.5 c 128,-1,15
 225 343 225 343 225 370 c 0,16,17
 225 398 225 398 244.5 417.5 c 128,-1,18
 264 437 264 437 291 437 c 2,19,-1
 309 437 l 2,20,21
 337 437 337 437 356 417.5 c 128,-1,22
 375 398 375 398 375 370 c 128,-1,23
 375 342 375 342 356 323 c 128,-1,24
 337 304 337 304 309 304 c 2,12,-1
EndSplineSet
EndChar

StartChar: semicolon
Encoding: 59 59 30
Width: 600
GlyphClass: 2
Flags: W
LayerCount: 2
Fore
SplineSet
219 134 m 1,0,-1
 351 134 l 1,1,-1
 210 -134 l 2,2,3
 198 -158 198 -158 178 -158 c 0,4,5
 165 -158 165 -158 156 -149.5 c 128,-1,6
 147 -141 147 -141 147 -130 c 0,7,8
 147 -122 147 -122 150 -111 c 2,9,-1
 219 134 l 1,0,-1
276 437 m 128,-1,11
 310 437 310 437 330.5 419 c 128,-1,12
 351 401 351 401 351 370 c 0,13,14
 351 340 351 340 330.5 322 c 128,-1,15
 310 304 310 304 276 304 c 128,-1,16
 242 304 242 304 221.5 322.5 c 128,-1,17
 201 341 201 341 201 371 c 0,18,19
 201 400 201 400 221.5 418.5 c 128,-1,10
 242 437 242 437 276 437 c 128,-1,11
EndSplineSet
EndChar

StartChar: less
Encoding: 60 60 31
Width: 600
GlyphClass: 2
Flags: W
LayerCount: 2
Fore
SplineSet
251 279 m 1,0,-1
 512 143 l 2,1,2
 544 126 544 126 544 100 c 0,3,4
 544 93 544 93 539 81 c 2,5,-1
 538 79 l 2,6,7
 527 54 527 54 502 54 c 0,8,9
 488 54 488 54 472 63 c 2,10,-1
 42 280 l 1,11,-1
 472 492 l 2,12,13
 490 501 490 501 502 501 c 0,14,15
 527 501 527 501 538 476 c 2,16,-1
 539 474 l 2,17,18
 544 464 544 464 544 455 c 0,19,20
 544 429 544 429 512 412 c 2,21,-1
 251 279 l 1,0,-1
EndSplineSet
EndChar

StartChar: equal
Encoding: 61 61 32
Width: 600
GlyphClass: 2
Flags: W
LayerCount: 2
Fore
SplineSet
108 422 m 2,0,-1
 492 422 l 2,1,2
 524 422 524 422 537 413 c 0,3,4
 558 397 558 397 558 372 c 0,5,6
 558 343 558 343 534 329 c 0,7,8
 523 322 523 322 492 322 c 2,9,-1
 108 322 l 2,10,11
 74 322 74 322 63 332 c 0,12,13
 42 347 42 347 42 372 c 0,14,15
 42 401 42 401 66 415 c 0,16,17
 76 422 76 422 108 422 c 2,0,-1
108 238 m 2,18,-1
 492 238 l 2,19,20
 524 238 524 238 537 229 c 0,21,22
 558 213 558 213 558 188 c 0,23,24
 558 159 558 159 534 145 c 0,25,26
 523 138 523 138 492 138 c 2,27,-1
 108 138 l 2,28,29
 74 138 74 138 63 148 c 0,30,31
 42 163 42 163 42 188 c 0,32,33
 42 217 42 217 66 231 c 0,34,35
 76 238 76 238 108 238 c 2,18,-1
EndSplineSet
EndChar

StartChar: greater
Encoding: 62 62 33
Width: 600
GlyphClass: 2
Flags: W
LayerCount: 2
Fore
SplineSet
349 275 m 1,0,-1
 88 412 l 2,1,2
 56 427 56 427 56 453 c 0,3,4
 56 461 56 461 61 473 c 2,5,-1
 62 475 l 2,6,7
 66 485 66 485 77 492.5 c 128,-1,8
 88 500 88 500 98 500 c 0,9,10
 112 500 112 500 128 491 c 2,11,-1
 558 274 l 1,12,-1
 128 62 l 2,13,14
 110 53 110 53 98 53 c 0,15,16
 73 53 73 53 62 78 c 2,17,-1
 61 80 l 2,18,19
 56 92 56 92 56 100 c 0,20,21
 56 125 56 125 88 142 c 2,22,-1
 349 275 l 1,0,-1
EndSplineSet
EndChar

StartChar: question
Encoding: 63 63 34
Width: 600
GlyphClass: 2
Flags: W
LayerCount: 2
Fore
SplineSet
104 460 m 2,0,-1
 104 539 l 1,1,2
 176 574 176 574 218 586 c 128,-1,3
 260 598 260 598 308 598 c 0,4,5
 401 598 401 598 459 545.5 c 128,-1,6
 517 493 517 493 517 409 c 0,7,8
 517 348 517 348 480.5 308 c 128,-1,9
 444 268 444 268 353 228 c 1,10,11
 347 174 347 174 303 174 c 0,12,13
 274 174 274 174 260 198 c 0,14,15
 253 211 253 211 253 240 c 2,16,-1
 253 296 l 1,17,18
 349 333 349 333 383 357.5 c 128,-1,19
 417 382 417 382 417 414 c 0,20,21
 417 451 417 451 387 474.5 c 128,-1,22
 357 498 357 498 309 498 c 0,23,24
 254 498 254 498 204 474 c 1,25,-1
 204 460 l 2,26,27
 204 427 204 427 195 415 c 0,28,29
 179 394 179 394 154 394 c 0,30,31
 126 394 126 394 111 418 c 0,32,33
 104 429 104 429 104 460 c 2,0,-1
311 -15 m 2,34,-1
 294 -15 l 2,35,36
 266 -15 266 -15 246.5 4.5 c 128,-1,37
 227 24 227 24 227 51 c 128,-1,38
 227 78 227 78 246.5 97.5 c 128,-1,39
 266 117 266 117 294 117 c 2,40,-1
 311 117 l 2,41,42
 339 117 339 117 358 98 c 128,-1,43
 377 79 377 79 377 51 c 128,-1,44
 377 23 377 23 358 4 c 128,-1,45
 339 -15 339 -15 311 -15 c 2,34,-1
EndSplineSet
EndChar

StartChar: at
Encoding: 64 64 35
Width: 600
GlyphClass: 2
Flags: W
LayerCount: 2
Fore
SplineSet
407 397 m 1,0,-1
 407 429 l 2,1,2
 407 479 407 479 377.5 510 c 128,-1,3
 348 541 348 541 302 541 c 0,4,5
 239 541 239 541 197 477 c 128,-1,6
 155 413 155 413 155 317 c 2,7,-1
 155 161 l 2,8,9
 155 47 155 47 206 -24 c 0,10,11
 240 -74 240 -74 305 -74 c 0,12,13
 378 -74 378 -74 408 -42 c 0,14,15
 425 -25 425 -25 439 -25 c 0,16,17
 456 -25 456 -25 467.5 -37 c 128,-1,18
 479 -49 479 -49 479 -66 c 0,19,20
 479 -101 479 -101 426.5 -126.5 c 128,-1,21
 374 -152 374 -152 302 -152 c 0,22,23
 184 -152 184 -152 123 -45 c 0,24,25
 76 40 76 40 76 154 c 2,26,-1
 76 323 l 2,27,28
 76 452 76 452 139.5 536 c 128,-1,29
 203 620 203 620 301 620 c 0,30,31
 382 620 382 620 434 566 c 128,-1,32
 486 512 486 512 486 429 c 2,33,-1
 486 148 l 1,34,35
 509 138 509 138 509 113 c 0,36,37
 509 72 509 72 454 72 c 2,38,-1
 407 72 l 1,39,-1
 407 75 l 1,40,41
 384 72 384 72 374 72 c 0,42,43
 310 72 310 72 264 118 c 128,-1,44
 218 164 218 164 218 226 c 0,45,46
 218 296 218 296 270.5 343.5 c 128,-1,47
 323 391 323 391 407 397 c 1,0,-1
407 155 m 1,48,-1
 407 316 l 1,49,50
 357 311 357 311 327 286.5 c 128,-1,51
 297 262 297 262 297 225 c 0,52,53
 297 194 297 194 321 173.5 c 128,-1,54
 345 153 345 153 381 153 c 0,55,56
 393 153 393 153 407 155 c 1,48,-1
EndSplineSet
EndChar

StartChar: A
Encoding: 65 65 36
Width: 600
GlyphClass: 2
Flags: W
LayerCount: 2
Fore
SplineSet
416 158 m 1,0,-1
 178 158 l 1,1,-1
 155 100 l 1,2,-1
 178 100 l 2,3,4
 210 100 210 100 223 91 c 0,5,6
 244 75 244 75 244 50 c 0,7,8
 244 21 244 21 220 7 c 0,9,10
 209 0 209 0 178 0 c 2,11,-1
 45 0 l 2,12,13
 -21 0 -21 0 -21 50 c 0,14,15
 -21 79 -21 79 3 93 c 0,16,17
 14 100 14 100 46 100 c 1,18,-1
 201 483 l 1,19,-1
 138 483 l 2,20,21
 105 483 105 483 92 492 c 0,22,23
 71 508 71 508 71 533 c 0,24,25
 71 560 71 560 95 576 c 0,26,27
 105 583 105 583 138 583 c 2,28,-1
 354 583 l 1,29,-1
 553 100 l 1,30,31
 588 100 588 100 600 90 c 0,32,33
 621 75 621 75 621 50 c 0,34,35
 621 21 621 21 597 7 c 0,36,37
 586 0 586 0 555 0 c 2,38,-1
 416 0 l 2,39,40
 384 0 384 0 371 10 c 0,41,42
 350 25 350 25 350 50 c 0,43,44
 350 79 350 79 374 93 c 0,45,46
 384 100 384 100 416 100 c 2,47,-1
 439 100 l 1,48,-1
 416 158 l 1,0,-1
375 258 m 1,49,-1
 297 450 l 1,50,-1
 218 258 l 1,51,-1
 375 258 l 1,49,-1
EndSplineSet
EndChar

StartChar: B
Encoding: 66 66 37
Width: 600
GlyphClass: 2
Flags: W
LayerCount: 2
Fore
SplineSet
94 100 m 1,0,-1
 94 483 l 1,1,-1
 79 483 l 2,2,3
 46 483 46 483 34 492 c 0,4,5
 13 508 13 508 13 533 c 0,6,7
 13 561 13 561 37 576 c 0,8,9
 48 583 48 583 79 583 c 2,10,-1
 332 583 l 2,11,12
 417 583 417 583 472.5 536 c 128,-1,13
 528 489 528 489 528 418 c 0,14,15
 528 354 528 354 465 305 c 1,16,17
 571 252 571 252 571 160 c 0,18,19
 571 88 571 88 517 44 c 128,-1,20
 463 0 463 0 374 0 c 2,21,-1
 79 0 l 2,22,23
 45 0 45 0 34 10 c 0,24,25
 13 25 13 25 13 50 c 0,26,27
 13 79 13 79 37 93 c 0,28,29
 48 100 48 100 79 100 c 2,30,-1
 94 100 l 1,0,-1
194 342 m 1,31,-1
 307 342 l 2,32,33
 361 342 361 342 394.5 363.5 c 128,-1,34
 428 385 428 385 428 419 c 0,35,36
 428 449 428 449 401 466 c 128,-1,37
 374 483 374 483 327 483 c 2,38,-1
 194 483 l 1,39,-1
 194 342 l 1,31,-1
194 100 m 1,40,-1
 369 100 l 2,41,42
 471 100 471 100 471 154 c 0,43,44
 471 194 471 194 428 220 c 0,45,46
 391 242 391 242 329 242 c 2,47,-1
 194 242 l 1,48,-1
 194 100 l 1,40,-1
EndSplineSet
EndChar

StartChar: C
Encoding: 67 67 38
Width: 600
GlyphClass: 2
Flags: W
LayerCount: 2
Fore
SplineSet
447 563 m 2,0,-1
 457 559 l 1,1,2
 474 583 474 583 499 583 c 0,3,4
 528 583 528 583 542 559 c 0,5,6
 549 548 549 548 549 517 c 2,7,-1
 549 433 l 2,8,9
 549 400 549 400 540 388 c 0,10,11
 524 367 524 367 499 367 c 0,12,13
 478 367 478 367 464 381 c 0,14,15
 455 390 455 390 450 420 c 0,16,17
 446 438 446 438 436.5 449.5 c 128,-1,18
 427 461 427 461 406 473 c 0,19,20
 363 497 363 497 309 497 c 0,21,22
 233 497 233 497 183 445.5 c 128,-1,23
 133 394 133 394 133 315 c 2,24,-1
 133 251 l 2,25,26
 133 176 133 176 186.5 131 c 128,-1,27
 240 86 240 86 330 86 c 0,28,29
 402 86 402 86 440 109 c 0,30,31
 451 115 451 115 478 143 c 0,32,33
 494 159 494 159 514 159 c 128,-1,34
 534 159 534 159 549 144 c 128,-1,35
 564 129 564 129 564 109 c 0,36,37
 564 73 564 73 511 36 c 0,38,39
 442 -14 442 -14 327 -14 c 0,40,41
 200 -14 200 -14 116.5 60.5 c 128,-1,42
 33 135 33 135 33 249 c 2,43,-1
 33 315 l 2,44,45
 33 435 33 435 111 516 c 128,-1,46
 189 597 189 597 305 597 c 0,47,48
 375 597 375 597 447 563 c 2,0,-1
EndSplineSet
EndChar

StartChar: D
Encoding: 68 68 39
Width: 600
GlyphClass: 2
Flags: W
LayerCount: 2
Fore
SplineSet
74 100 m 1,0,-1
 74 483 l 1,1,2
 13 483 13 483 13 533 c 0,3,4
 13 562 13 562 37 576 c 0,5,6
 48 583 48 583 80 583 c 2,7,-1
 292 583 l 2,8,9
 401 583 401 583 475.5 503 c 128,-1,10
 550 423 550 423 550 305 c 2,11,-1
 550 258 l 2,12,13
 550 148 550 148 480 75 c 0,14,15
 409 0 409 0 284 0 c 2,16,-1
 80 0 l 2,17,18
 47 0 47 0 34 10 c 0,19,20
 13 25 13 25 13 50 c 0,21,22
 13 74 13 74 29 87 c 128,-1,23
 45 100 45 100 74 100 c 1,0,-1
174 100 m 1,24,-1
 285 100 l 2,25,26
 330 100 330 100 358 110 c 128,-1,27
 386 120 386 120 409 144 c 0,28,29
 450 189 450 189 450 261 c 2,30,-1
 450 307 l 2,31,32
 450 379 450 379 405 432 c 0,33,34
 361 483 361 483 284 483 c 2,35,-1
 174 483 l 1,36,-1
 174 100 l 1,24,-1
EndSplineSet
EndChar

StartChar: E
Encoding: 69 69 40
Width: 600
GlyphClass: 2
Flags: W
LayerCount: 2
Fore
SplineSet
194 243 m 1,0,-1
 194 100 l 1,1,-1
 450 100 l 1,2,-1
 450 152 l 2,3,4
 450 185 450 185 459 198 c 0,5,6
 474 219 474 219 500 219 c 0,7,8
 527 219 527 219 543 195 c 0,9,10
 550 182 550 182 550 152 c 2,11,-1
 550 0 l 1,12,-1
 79 0 l 2,13,14
 45 0 45 0 34 10 c 0,15,16
 13 25 13 25 13 50 c 0,17,18
 13 77 13 77 37 93 c 0,19,20
 48 100 48 100 79 100 c 2,21,-1
 94 100 l 1,22,-1
 94 483 l 1,23,-1
 79 483 l 2,24,25
 46 483 46 483 34 492 c 0,26,27
 13 508 13 508 13 533 c 0,28,29
 13 562 13 562 37 576 c 0,30,31
 48 583 48 583 79 583 c 2,32,-1
 528 583 l 1,33,-1
 528 433 l 2,34,35
 528 400 528 400 519 387 c 0,36,37
 503 366 503 366 478 366 c 0,38,39
 451 366 451 366 435 390 c 0,40,41
 428 403 428 403 428 433 c 2,42,-1
 428 483 l 1,43,-1
 194 483 l 1,44,-1
 194 342 l 1,45,-1
 279 342 l 1,46,-1
 279 349 l 2,47,48
 279 382 279 382 288 395 c 0,49,50
 304 416 304 416 328 416 c 0,51,52
 370 416 370 416 377 370 c 0,53,54
 378 361 378 361 378 349 c 2,55,-1
 378 236 l 2,56,57
 378 203 378 203 369 191 c 0,58,59
 353 170 353 170 329 170 c 0,60,61
 300 170 300 170 286 194 c 0,62,63
 279 207 279 207 279 236 c 2,64,-1
 279 243 l 1,65,-1
 194 243 l 1,0,-1
EndSplineSet
EndChar

StartChar: F
Encoding: 70 70 41
Width: 600
GlyphClass: 2
Flags: W
LayerCount: 2
Fore
SplineSet
194 243 m 1,0,-1
 194 100 l 1,1,-1
 294 100 l 2,2,3
 327 100 327 100 340 91 c 0,4,5
 360 74 360 74 360 50 c 0,6,7
 360 21 360 21 336 7 c 0,8,9
 324 0 324 0 294 0 c 2,10,-1
 79 0 l 2,11,12
 45 0 45 0 34 10 c 0,13,14
 13 25 13 25 13 50 c 0,15,16
 13 79 13 79 37 93 c 0,17,18
 48 100 48 100 79 100 c 2,19,-1
 94 100 l 1,20,-1
 94 483 l 1,21,-1
 79 483 l 2,22,23
 46 483 46 483 34 492 c 0,24,25
 13 508 13 508 13 533 c 0,26,27
 13 562 13 562 37 576 c 0,28,29
 48 583 48 583 79 583 c 2,30,-1
 550 583 l 1,31,-1
 550 432 l 2,32,33
 550 400 550 400 541 387 c 0,34,35
 525 366 525 366 500 366 c 0,36,37
 473 366 473 366 457 390 c 0,38,39
 450 401 450 401 450 432 c 2,40,-1
 450 483 l 1,41,-1
 194 483 l 1,42,-1
 194 342 l 1,43,-1
 279 342 l 1,44,-1
 279 349 l 2,45,46
 279 382 279 382 288 394 c 0,47,48
 304 415 304 415 329 415 c 0,49,50
 357 415 357 415 371 391 c 0,51,52
 378 379 378 379 378 349 c 2,53,-1
 378 236 l 2,54,55
 378 203 378 203 369 190 c 0,56,57
 353 169 353 169 329 169 c 0,58,59
 301 169 301 169 286 193 c 0,60,61
 279 206 279 206 279 236 c 2,62,-1
 279 243 l 1,63,-1
 194 243 l 1,0,-1
EndSplineSet
EndChar

StartChar: G
Encoding: 71 71 42
Width: 600
GlyphClass: 2
Flags: W
LayerCount: 2
Fore
SplineSet
550 180 m 1,0,-1
 550 48 l 1,1,2
 483 13 483 13 436 -0.5 c 128,-1,3
 389 -14 389 -14 331 -14 c 0,4,5
 176 -14 176 -14 99 65 c 0,6,7
 33 134 33 134 33 246 c 2,8,-1
 33 317 l 2,9,10
 33 436 33 436 117 520 c 0,11,12
 195 597 195 597 317 597 c 0,13,14
 398 597 398 597 462 565 c 1,15,16
 478 597 478 597 503 597 c 0,17,18
 532 597 532 597 543 573 c 0,19,20
 550 561 550 561 550 531 c 2,21,-1
 550 453 l 2,22,23
 550 419 550 419 541 408 c 0,24,25
 525 387 525 387 500 387 c 0,26,27
 478 387 478 387 465 402 c 0,28,29
 459 409 459 409 451 440 c 0,30,31
 443 466 443 466 408 481.5 c 128,-1,32
 373 497 373 497 318 497 c 0,33,34
 233 497 233 497 186 450 c 0,35,36
 133 397 133 397 133 317 c 2,37,-1
 133 253 l 2,38,39
 133 168 133 168 178 130 c 0,40,41
 230 86 230 86 325 86 c 0,42,43
 394 86 394 86 450 111 c 1,44,-1
 450 180 l 1,45,-1
 350 180 l 2,46,47
 316 180 316 180 305 190 c 0,48,49
 284 205 284 205 284 230 c 0,50,51
 284 259 284 259 308 273 c 0,52,53
 318 280 318 280 350 280 c 2,54,-1
 525 280 l 2,55,56
 558 280 558 280 571 271 c 0,57,58
 592 256 592 256 592 230 c 0,59,60
 592 192 592 192 550 180 c 1,0,-1
EndSplineSet
EndChar

StartChar: H
Encoding: 72 72 43
Width: 600
GlyphClass: 2
Flags: W
LayerCount: 2
Fore
SplineSet
409 241 m 1,0,-1
 195 241 l 1,1,-1
 195 100 l 1,2,-1
 210 100 l 2,3,4
 243 100 243 100 255 91 c 0,5,6
 276 75 276 75 276 50 c 0,7,8
 276 21 276 21 252 7 c 0,9,10
 241 0 241 0 210 0 c 2,11,-1
 89 0 l 2,12,13
 56 0 56 0 43 9 c 0,14,15
 23 26 23 26 23 50 c 0,16,17
 23 79 23 79 47 93 c 0,18,19
 58 100 58 100 89 100 c 2,20,-1
 95 100 l 1,21,-1
 95 483 l 1,22,23
 43 488 43 488 43 533 c 0,24,25
 43 562 43 562 67 576 c 0,26,27
 78 583 78 583 109 583 c 2,28,-1
 210 583 l 2,29,30
 243 583 243 583 255 574 c 0,31,32
 276 558 276 558 276 533 c 0,33,34
 276 504 276 504 252 490 c 0,35,36
 239 483 239 483 210 483 c 2,37,-1
 195 483 l 1,38,-1
 195 341 l 1,39,-1
 409 341 l 1,40,-1
 409 483 l 1,41,-1
 394 483 l 2,42,43
 362 483 362 483 349 492 c 0,44,45
 328 508 328 508 328 533 c 0,46,47
 328 562 328 562 352 576 c 0,48,49
 363 583 363 583 394 583 c 2,50,-1
 495 583 l 2,51,52
 528 583 528 583 541 574 c 0,53,54
 561 557 561 557 561 533 c 0,55,56
 561 488 561 488 509 483 c 1,57,-1
 509 100 l 1,58,-1
 515 100 l 2,59,60
 548 100 548 100 560 91 c 0,61,62
 581 75 581 75 581 50 c 0,63,64
 581 21 581 21 557 7 c 0,65,66
 546 0 546 0 515 0 c 2,67,-1
 394 0 l 2,68,69
 362 0 362 0 349 9 c 0,70,71
 328 25 328 25 328 50 c 0,72,73
 328 79 328 79 352 93 c 0,74,75
 362 100 362 100 394 100 c 2,76,-1
 409 100 l 1,77,-1
 409 241 l 1,0,-1
EndSplineSet
EndChar

StartChar: I
Encoding: 73 73 44
Width: 600
GlyphClass: 2
Flags: W
LayerCount: 2
Fore
SplineSet
350 483 m 1,0,-1
 350 100 l 1,1,-1
 451 100 l 2,2,3
 483 100 483 100 496 91 c 0,4,5
 517 76 517 76 517 50 c 0,6,7
 517 0 517 0 451 0 c 2,8,-1
 149 0 l 2,9,10
 117 0 117 0 104 10 c 0,11,12
 83 25 83 25 83 50 c 0,13,14
 83 79 83 79 107 93 c 0,15,16
 118 100 118 100 149 100 c 2,17,-1
 250 100 l 1,18,-1
 250 483 l 1,19,-1
 149 483 l 2,20,21
 116 483 116 483 104 492 c 0,22,23
 83 508 83 508 83 533 c 0,24,25
 83 562 83 562 107 576 c 0,26,27
 118 583 118 583 149 583 c 2,28,-1
 451 583 l 2,29,30
 483 583 483 583 496 574 c 0,31,32
 517 559 517 559 517 533 c 0,33,34
 517 504 517 504 493 490 c 0,35,36
 482 483 482 483 451 483 c 2,37,-1
 350 483 l 1,0,-1
EndSplineSet
EndChar

StartChar: J
Encoding: 74 74 45
Width: 600
GlyphClass: 2
Flags: W
LayerCount: 2
Fore
SplineSet
490 483 m 1,0,-1
 490 187 l 2,1,2
 490 138 490 138 475.5 105.5 c 128,-1,3
 461 73 461 73 426 42 c 0,4,5
 361 -14 361 -14 269 -14 c 0,6,7
 185 -14 185 -14 54 51 c 1,8,-1
 54 213 l 2,9,10
 54 247 54 247 63 259 c 0,11,12
 79 280 79 280 104 280 c 0,13,14
 133 280 133 280 147 256 c 0,15,16
 154 246 154 246 154 213 c 2,17,-1
 154 117 l 1,18,19
 223 86 223 86 271 86 c 0,20,21
 328 86 328 86 366 122 c 0,22,23
 382 138 382 138 386 151 c 128,-1,24
 390 164 390 164 390 198 c 2,25,-1
 390 483 l 1,26,-1
 271 483 l 2,27,28
 238 483 238 483 226 492 c 0,29,30
 205 508 205 508 205 533 c 0,31,32
 205 562 205 562 229 576 c 0,33,34
 240 583 240 583 271 583 c 2,35,-1
 547 583 l 2,36,37
 580 583 580 583 592 574 c 0,38,39
 613 558 613 558 613 533 c 0,40,41
 613 504 613 504 589 490 c 0,42,43
 578 483 578 483 547 483 c 2,44,-1
 490 483 l 1,0,-1
EndSplineSet
EndChar

StartChar: K
Encoding: 75 75 46
Width: 600
GlyphClass: 2
Flags: W
LayerCount: 2
Fore
SplineSet
194 208 m 1,0,-1
 194 100 l 1,1,-1
 229 100 l 2,2,3
 261 100 261 100 274 91 c 0,4,5
 295 75 295 75 295 50 c 0,6,7
 295 21 295 21 271 7 c 0,8,9
 259 0 259 0 229 0 c 2,10,-1
 79 0 l 2,11,12
 45 0 45 0 34 10 c 0,13,14
 13 25 13 25 13 50 c 0,15,16
 13 79 13 79 37 93 c 0,17,18
 48 100 48 100 79 100 c 2,19,-1
 94 100 l 1,20,-1
 94 483 l 1,21,-1
 79 483 l 2,22,23
 46 483 46 483 34 492 c 0,24,25
 13 508 13 508 13 533 c 0,26,27
 13 562 13 562 37 576 c 0,28,29
 48 583 48 583 79 583 c 2,30,-1
 229 583 l 2,31,32
 262 583 262 583 274 574 c 0,33,34
 295 558 295 558 295 533 c 0,35,36
 295 504 295 504 271 490 c 0,37,38
 260 483 260 483 229 483 c 2,39,-1
 194 483 l 1,40,-1
 194 334 l 1,41,-1
 372 487 l 1,42,43
 341 499 341 499 341 532 c 0,44,45
 341 576 341 576 386 581 c 0,46,47
 398 583 398 583 407 583 c 2,48,-1
 507 583 l 2,49,50
 540 583 540 583 553 574 c 0,51,52
 573 557 573 557 573 533 c 0,53,54
 573 483 573 483 511 483 c 1,55,-1
 335 330 l 1,56,57
 432 279 432 279 504 100 c 1,58,-1
 536 100 l 2,59,60
 568 100 568 100 581 91 c 0,61,62
 602 75 602 75 602 50 c 0,63,64
 602 21 602 21 578 7 c 0,65,66
 566 0 566 0 536 0 c 2,67,-1
 426 0 l 1,68,69
 391 107 391 107 345.5 176 c 128,-1,70
 300 245 300 245 254 259 c 1,71,-1
 194 208 l 1,0,-1
EndSplineSet
EndChar

StartChar: L
Encoding: 76 76 47
Width: 600
GlyphClass: 2
Flags: W
LayerCount: 2
Fore
SplineSet
256 483 m 1,0,-1
 256 100 l 1,1,-1
 471 100 l 1,2,-1
 471 192 l 2,3,4
 471 225 471 225 480 238 c 0,5,6
 495 259 495 259 521 259 c 0,7,8
 548 259 548 259 564 235 c 0,9,10
 571 225 571 225 571 192 c 2,11,-1
 571 0 l 1,12,-1
 99 0 l 2,13,14
 65 0 65 0 54 10 c 0,15,16
 33 25 33 25 33 50 c 0,17,18
 33 79 33 79 57 93 c 0,19,20
 68 100 68 100 99 100 c 2,21,-1
 156 100 l 1,22,-1
 156 483 l 1,23,-1
 99 483 l 2,24,25
 66 483 66 483 54 492 c 0,26,27
 33 508 33 508 33 533 c 0,28,29
 33 562 33 562 57 576 c 0,30,31
 68 583 68 583 99 583 c 2,32,-1
 313 583 l 2,33,34
 345 583 345 583 358 574 c 0,35,36
 379 558 379 558 379 533 c 0,37,38
 379 504 379 504 355 490 c 0,39,40
 344 483 344 483 313 483 c 2,41,-1
 256 483 l 1,0,-1
EndSplineSet
EndChar

StartChar: M
Encoding: 77 77 48
Width: 600
GlyphClass: 2
Flags: W
LayerCount: 2
Fore
SplineSet
142 389 m 1,0,-1
 142 100 l 1,1,-1
 177 100 l 2,2,3
 209 100 209 100 223 91 c 0,4,5
 243 76 243 76 243 50 c 0,6,7
 243 23 243 23 219 7 c 0,8,9
 207 0 207 0 177 0 c 2,10,-1
 48 0 l 2,11,12
 15 0 15 0 2 10 c 0,13,14
 -19 25 -19 25 -19 50 c 0,15,16
 -19 100 -19 100 42 100 c 1,17,-1
 42 483 l 1,18,19
 -10 488 -10 488 -10 534 c 0,20,21
 -10 561 -10 561 14 577 c 0,22,23
 26 584 26 584 52 584 c 0,24,25
 55 584 55 584 56 583 c 1,26,-1
 165 583 l 1,27,-1
 303 286 l 1,28,-1
 438 583 l 1,29,-1
 548 583 l 2,30,31
 581 583 581 583 594 574 c 0,32,33
 614 557 614 557 614 533 c 0,34,35
 614 488 614 488 562 483 c 1,36,-1
 562 100 l 1,37,38
 623 100 623 100 623 50 c 0,39,40
 623 23 623 23 599 7 c 0,41,42
 587 0 587 0 557 0 c 2,43,-1
 427 0 l 2,44,45
 393 0 393 0 382 10 c 0,46,47
 361 25 361 25 361 50 c 0,48,49
 361 79 361 79 385 93 c 0,50,51
 396 100 396 100 427 100 c 2,52,-1
 462 100 l 1,53,-1
 462 389 l 1,54,-1
 351 138 l 1,55,-1
 260 138 l 1,56,-1
 142 389 l 1,0,-1
EndSplineSet
EndChar

StartChar: N
Encoding: 78 78 49
Width: 600
GlyphClass: 2
Flags: W
LayerCount: 2
Fore
SplineSet
173 394 m 1,0,-1
 173 100 l 1,1,-1
 208 100 l 2,2,3
 241 100 241 100 254 91 c 0,4,5
 274 76 274 76 274 50 c 0,6,7
 274 23 274 23 250 7 c 0,8,9
 238 0 238 0 208 0 c 2,10,-1
 79 0 l 2,11,12
 46 0 46 0 33 10 c 0,13,14
 12 25 12 25 12 50 c 0,15,16
 12 100 12 100 73 100 c 1,17,-1
 73 483 l 1,18,-1
 58 483 l 2,19,20
 25 483 25 483 13 492 c 0,21,22
 -8 508 -8 508 -8 533 c 0,23,24
 -8 562 -8 562 16 576 c 0,25,26
 27 583 27 583 58 583 c 2,27,-1
 173 583 l 1,28,-1
 431 191 l 1,29,-1
 431 483 l 1,30,-1
 396 483 l 2,31,32
 363 483 363 483 351 492 c 0,33,34
 330 508 330 508 330 533 c 0,35,36
 330 562 330 562 354 576 c 0,37,38
 364 583 364 583 396 583 c 2,39,-1
 526 583 l 2,40,41
 558 583 558 583 571 574 c 0,42,43
 592 558 592 558 592 533 c 0,44,45
 592 483 592 483 531 483 c 1,46,-1
 531 0 l 1,47,-1
 432 0 l 1,48,-1
 173 394 l 1,0,-1
EndSplineSet
EndChar

StartChar: O
Encoding: 79 79 50
Width: 600
GlyphClass: 2
Flags: W
LayerCount: 2
Fore
SplineSet
300 597 m 0,0,1
 403 597 403 597 485 520 c 0,2,3
 579 430 579 430 579 287 c 0,4,5
 579 164 579 164 496.5 75 c 128,-1,6
 414 -14 414 -14 300 -14 c 0,7,8
 184 -14 184 -14 102.5 75.5 c 128,-1,9
 21 165 21 165 21 292 c 0,10,11
 21 418 21 418 103 507.5 c 128,-1,12
 185 597 185 597 300 597 c 0,0,1
300 497 m 0,13,14
 227 497 227 497 174 436.5 c 128,-1,15
 121 376 121 376 121 292 c 0,16,17
 121 207 121 207 173.5 146.5 c 128,-1,18
 226 86 226 86 300 86 c 0,19,20
 373 86 373 86 426 146 c 128,-1,21
 479 206 479 206 479 289 c 0,22,23
 479 375 479 375 426.5 436 c 128,-1,24
 374 497 374 497 300 497 c 0,13,14
EndSplineSet
EndChar

StartChar: P
Encoding: 80 80 51
Width: 600
GlyphClass: 2
Flags: W
LayerCount: 2
Fore
SplineSet
194 200 m 1,0,-1
 194 100 l 1,1,-1
 293 100 l 2,2,3
 325 100 325 100 338 91 c 0,4,5
 359 75 359 75 359 50 c 0,6,7
 359 21 359 21 335 7 c 0,8,9
 323 0 323 0 293 0 c 2,10,-1
 79 0 l 2,11,12
 45 0 45 0 34 10 c 0,13,14
 13 25 13 25 13 50 c 0,15,16
 13 79 13 79 37 93 c 0,17,18
 48 100 48 100 79 100 c 2,19,-1
 94 100 l 1,20,-1
 94 483 l 1,21,-1
 79 483 l 2,22,23
 46 483 46 483 34 492 c 0,24,25
 13 508 13 508 13 533 c 0,26,27
 13 562 13 562 37 576 c 0,28,29
 48 583 48 583 79 583 c 2,30,-1
 312 583 l 2,31,32
 407 583 407 583 468 530 c 128,-1,33
 529 477 529 477 529 394 c 0,34,35
 529 321 529 321 479 266 c 0,36,37
 446 229 446 229 404 214.5 c 128,-1,38
 362 200 362 200 292 200 c 2,39,-1
 194 200 l 1,0,-1
194 483 m 1,40,-1
 194 300 l 1,41,-1
 312 300 l 2,42,43
 364 300 364 300 393.5 324.5 c 128,-1,44
 423 349 423 349 423 391 c 0,45,46
 423 434 423 434 393.5 458.5 c 128,-1,47
 364 483 364 483 312 483 c 2,48,-1
 194 483 l 1,40,-1
EndSplineSet
EndChar

StartChar: Q
Encoding: 81 81 52
Width: 600
GlyphClass: 2
Flags: W
LayerCount: 2
Fore
SplineSet
271 -6 m 1,0,-1
 267 -30 l 1,1,2
 297 -25 297 -25 318 -25 c 0,3,4
 356 -25 356 -25 402 -38 c 0,5,6
 429 -45 429 -45 443 -45 c 0,7,8
 462 -45 462 -45 486 -30 c 0,9,10
 512 -13 512 -13 526 -13 c 0,11,12
 548 -13 548 -13 562.5 -27.5 c 128,-1,13
 577 -42 577 -42 577 -63 c 0,14,15
 577 -92 577 -92 539 -114 c 0,16,17
 488 -145 488 -145 444 -145 c 0,18,19
 425 -145 425 -145 414 -142 c 128,-1,20
 403 -139 403 -139 367 -125 c 0,21,22
 345 -117 345 -117 319 -117 c 0,23,24
 275 -117 275 -117 193 -138 c 0,25,26
 173 -143 173 -143 165 -143 c 0,27,28
 146 -143 146 -143 131.5 -127.5 c 128,-1,29
 117 -112 117 -112 117 -91 c 0,30,31
 117 -72 117 -72 137 -53 c 2,32,-1
 199 7 l 1,33,34
 143 39 143 39 114.5 64 c 128,-1,35
 86 89 86 89 65 124 c 0,36,37
 21 201 21 201 21 292 c 0,38,39
 21 418 21 418 103 507.5 c 128,-1,40
 185 597 185 597 300 597 c 128,-1,41
 415 597 415 597 497 508 c 128,-1,42
 579 419 579 419 579 294 c 0,43,44
 579 211 579 211 539.5 140.5 c 128,-1,45
 500 70 500 70 429 27 c 0,46,47
 373 -7 373 -7 289 -7 c 0,48,49
 279 -7 279 -7 271 -6 c 1,0,-1
300 497 m 128,-1,51
 226 497 226 497 173.5 436.5 c 128,-1,52
 121 376 121 376 121 291 c 0,53,54
 121 207 121 207 174 146 c 128,-1,55
 227 85 227 85 300 85 c 128,-1,56
 373 85 373 85 426 145 c 128,-1,57
 479 205 479 205 479 288 c 0,58,59
 479 375 479 375 426.5 436 c 128,-1,50
 374 497 374 497 300 497 c 128,-1,51
EndSplineSet
EndChar

StartChar: R
Encoding: 82 82 53
Width: 600
GlyphClass: 2
Flags: W
LayerCount: 2
Fore
SplineSet
194 222 m 1,0,-1
 194 100 l 1,1,-1
 229 100 l 2,2,3
 262 100 262 100 275 91 c 0,4,5
 295 74 295 74 295 50 c 0,6,7
 295 21 295 21 271 7 c 0,8,9
 259 0 259 0 229 0 c 2,10,-1
 79 0 l 2,11,12
 45 0 45 0 34 10 c 0,13,14
 13 25 13 25 13 50 c 0,15,16
 13 79 13 79 37 93 c 0,17,18
 48 100 48 100 79 100 c 2,19,-1
 94 100 l 1,20,-1
 94 483 l 1,21,-1
 79 483 l 2,22,23
 46 483 46 483 34 492 c 0,24,25
 13 508 13 508 13 533 c 0,26,27
 13 562 13 562 37 576 c 0,28,29
 48 583 48 583 79 583 c 2,30,-1
 302 583 l 2,31,32
 399 583 399 583 460.5 533.5 c 128,-1,33
 522 484 522 484 522 405 c 0,34,35
 522 313 522 313 414 254 c 1,36,37
 479 197 479 197 540 100 c 1,38,-1
 553 100 l 2,39,40
 586 100 586 100 599 91 c 0,41,42
 619 76 619 76 619 50 c 0,43,44
 619 21 619 21 595 7 c 0,45,46
 583 0 583 0 553 0 c 2,47,-1
 474 0 l 1,48,49
 437 72 437 72 379.5 141.5 c 128,-1,50
 322 211 322 211 290 222 c 1,51,-1
 194 222 l 1,0,-1
194 322 m 1,52,-1
 270 322 l 2,53,54
 333 322 333 322 374.5 346.5 c 128,-1,55
 416 371 416 371 416 408 c 0,56,57
 416 440 416 440 385 461.5 c 128,-1,58
 354 483 354 483 306 483 c 2,59,-1
 194 483 l 1,60,-1
 194 322 l 1,52,-1
EndSplineSet
EndChar

StartChar: S
Encoding: 83 83 54
Width: 600
GlyphClass: 2
Flags: W
LayerCount: 2
Fore
SplineSet
517 531 m 2,0,-1
 517 443 l 2,1,2
 517 410 517 410 508 397 c 0,3,4
 492 376 492 376 468 376 c 0,5,6
 446 376 446 376 432 390 c 0,7,8
 425 398 425 398 418 430 c 0,9,10
 411 460 411 460 378.5 478.5 c 128,-1,11
 346 497 346 497 299 497 c 128,-1,12
 252 497 252 497 219 475 c 128,-1,13
 186 453 186 453 186 421 c 0,14,15
 186 405 186 405 196.5 389.5 c 128,-1,16
 207 374 207 374 223 366 c 0,17,18
 246 354 246 354 323 340 c 0,19,20
 437 319 437 319 479 285 c 0,21,22
 538 238 538 238 538 160 c 128,-1,23
 538 82 538 82 475 34 c 128,-1,24
 412 -14 412 -14 309 -14 c 0,25,26
 226 -14 226 -14 153 25 c 1,27,28
 133 1 133 1 113 1 c 0,29,30
 62 1 62 1 62 67 c 2,31,-1
 62 133 l 2,32,33
 62 166 62 166 71 179 c 0,34,35
 86 199 86 199 112 199 c 0,36,37
 134 199 134 199 148 185 c 0,38,39
 155 178 155 178 163 151 c 0,40,41
 170 124 170 124 211 105 c 128,-1,42
 252 86 252 86 302 86 c 0,43,44
 358 86 358 86 396 108 c 128,-1,45
 434 130 434 130 434 162 c 0,46,47
 434 195 434 195 398 215 c 0,48,49
 374 228 374 228 293 242 c 0,50,51
 208 256 208 256 164 281 c 0,52,53
 126 303 126 303 104 340 c 128,-1,54
 82 377 82 377 82 420 c 0,55,56
 82 496 82 496 144 546.5 c 128,-1,57
 206 597 206 597 299 597 c 0,58,59
 377 597 377 597 429 564 c 1,60,61
 437 583 437 583 445 590 c 128,-1,62
 453 597 453 597 468 597 c 0,63,64
 497 597 497 597 510 574 c 0,65,66
 517 564 517 564 517 531 c 2,0,-1
EndSplineSet
EndChar

StartChar: T
Encoding: 84 84 55
Width: 600
GlyphClass: 2
Flags: W
LayerCount: 2
Fore
SplineSet
349 483 m 1,0,-1
 349 100 l 1,1,-1
 415 100 l 2,2,3
 447 100 447 100 460 91 c 0,4,5
 481 75 481 75 481 50 c 0,6,7
 481 21 481 21 457 7 c 0,8,9
 445 0 445 0 415 0 c 2,10,-1
 184 0 l 2,11,12
 152 0 152 0 139 10 c 0,13,14
 118 25 118 25 118 50 c 0,15,16
 118 79 118 79 142 93 c 0,17,18
 152 100 152 100 184 100 c 2,19,-1
 249 100 l 1,20,-1
 249 483 l 1,21,-1
 142 483 l 1,22,-1
 142 390 l 2,23,24
 142 358 142 358 133 345 c 0,25,26
 117 324 117 324 92 324 c 0,27,28
 63 324 63 324 49 348 c 0,29,30
 42 361 42 361 42 390 c 2,31,-1
 42 583 l 1,32,-1
 558 583 l 1,33,-1
 558 390 l 2,34,35
 558 356 558 356 549 345 c 0,36,37
 533 324 533 324 508 324 c 0,38,39
 480 324 480 324 465 348 c 0,40,41
 458 361 458 361 458 390 c 2,42,-1
 458 483 l 1,43,-1
 349 483 l 1,0,-1
EndSplineSet
EndChar

StartChar: U
Encoding: 85 85 56
Width: 600
GlyphClass: 2
Flags: W
LayerCount: 2
Fore
SplineSet
529 483 m 1,0,-1
 529 205 l 2,1,2
 529 98 529 98 445 35 c 0,3,4
 381 -14 381 -14 300 -14 c 128,-1,5
 219 -14 219 -14 155 35 c 0,6,7
 71 99 71 99 71 205 c 2,8,-1
 71 483 l 1,9,10
 10 485 10 485 10 533 c 0,11,12
 10 562 10 562 34 576 c 0,13,14
 45 583 45 583 76 583 c 2,15,-1
 206 583 l 2,16,17
 240 583 240 583 252 574 c 0,18,19
 272 557 272 557 272 533 c 0,20,21
 272 504 272 504 248 490 c 0,22,23
 237 483 237 483 206 483 c 2,24,-1
 171 483 l 1,25,-1
 171 196 l 2,26,27
 171 150 171 150 209 118 c 128,-1,28
 247 86 247 86 300 86 c 128,-1,29
 353 86 353 86 391 118 c 128,-1,30
 429 150 429 150 429 196 c 2,31,-1
 429 483 l 1,32,-1
 394 483 l 2,33,34
 361 483 361 483 349 492 c 0,35,36
 328 508 328 508 328 533 c 0,37,38
 328 562 328 562 352 576 c 0,39,40
 363 583 363 583 394 583 c 2,41,-1
 524 583 l 2,42,43
 556 583 556 583 570 574 c 0,44,45
 590 559 590 559 590 533 c 0,46,47
 590 483 590 483 529 483 c 1,0,-1
EndSplineSet
EndChar

StartChar: V
Encoding: 86 86 57
Width: 600
GlyphClass: 2
Flags: W
LayerCount: 2
Fore
SplineSet
303 144 m 1,0,-1
 447 483 l 1,1,-1
 423 483 l 2,2,3
 391 483 391 483 377 492 c 0,4,5
 357 509 357 509 357 533 c 0,6,7
 357 562 357 562 381 576 c 0,8,9
 392 583 392 583 423 583 c 2,10,-1
 555 583 l 2,11,12
 588 583 588 583 600 574 c 0,13,14
 621 558 621 558 621 533 c 0,15,16
 621 518 621 518 612 505 c 128,-1,17
 603 492 603 492 590 487 c 0,18,19
 578 483 578 483 553 483 c 1,20,-1
 348 0 l 1,21,-1
 249 0 l 1,22,-1
 47 483 l 1,23,24
 22 483 22 483 10 487 c 0,25,26
 -3 492 -3 492 -12 505 c 128,-1,27
 -21 518 -21 518 -21 533 c 0,28,29
 -21 562 -21 562 3 576 c 0,30,31
 14 583 14 583 45 583 c 2,32,-1
 178 583 l 2,33,34
 211 583 211 583 224 574 c 0,35,36
 244 557 244 557 244 533 c 0,37,38
 244 504 244 504 220 490 c 0,39,40
 207 483 207 483 178 483 c 2,41,-1
 159 483 l 1,42,-1
 303 144 l 1,0,-1
EndSplineSet
EndChar

StartChar: W
Encoding: 87 87 58
Width: 600
GlyphClass: 2
Flags: W
LayerCount: 2
Fore
SplineSet
300 277 m 1,0,-1
 209 0 l 1,1,-1
 98 0 l 1,2,-1
 36 483 l 1,3,4
 -10 489 -10 489 -10 531 c 0,5,6
 -10 560 -10 560 14 576 c 0,7,8
 24 583 24 583 56 583 c 2,9,-1
 187 583 l 2,10,11
 220 583 220 583 233 574 c 0,12,13
 254 558 254 558 254 533 c 0,14,15
 254 504 254 504 230 490 c 0,16,17
 217 483 217 483 187 483 c 2,18,-1
 139 483 l 1,19,-1
 175 211 l 1,20,-1
 251 437 l 1,21,-1
 355 437 l 1,22,-1
 431 211 l 1,23,-1
 466 483 l 1,24,-1
 413 483 l 2,25,26
 380 483 380 483 368 492 c 0,27,28
 347 508 347 508 347 533 c 0,29,30
 347 562 347 562 371 576 c 0,31,32
 382 583 382 583 413 583 c 2,33,-1
 544 583 l 2,34,35
 577 583 577 583 590 574 c 0,36,37
 610 557 610 557 610 533 c 0,38,39
 610 491 610 491 563 483 c 1,40,-1
 503 0 l 1,41,-1
 393 0 l 1,42,-1
 300 277 l 1,0,-1
EndSplineSet
EndChar

StartChar: X
Encoding: 88 88 59
Width: 600
GlyphClass: 2
Flags: W
LayerCount: 2
Fore
SplineSet
364 297 m 1,0,-1
 531 100 l 1,1,2
 590 98 590 98 590 50 c 0,3,4
 590 21 590 21 566 7 c 0,5,6
 555 0 555 0 524 0 c 2,7,-1
 413 0 l 2,8,9
 347 0 347 0 347 50 c 0,10,11
 347 97 347 97 402 100 c 1,12,-1
 301 220 l 1,13,-1
 199 100 l 1,14,15
 253 97 253 97 253 50 c 0,16,17
 253 21 253 21 229 7 c 0,18,19
 218 0 218 0 187 0 c 2,20,-1
 76 0 l 2,21,22
 44 0 44 0 31 9 c 0,23,24
 10 25 10 25 10 50 c 0,25,26
 10 73 10 73 25.5 86.5 c 128,-1,27
 41 100 41 100 69 100 c 1,28,-1
 235 298 l 1,29,-1
 77 483 l 1,30,31
 19 486 19 486 19 533 c 0,32,33
 19 576 19 576 65 581 c 0,34,35
 77 583 77 583 85 583 c 2,36,-1
 176 583 l 2,37,38
 209 583 209 583 222 574 c 0,39,40
 243 558 243 558 243 533 c 0,41,42
 243 502 243 502 205 484 c 1,43,-1
 300 375 l 1,44,-1
 393 484 l 1,45,46
 355 503 355 503 355 533 c 0,47,48
 355 558 355 558 376 573 c 0,49,50
 387 583 387 583 422 583 c 2,51,-1
 512 583 l 2,52,53
 544 583 544 583 557 574 c 0,54,55
 578 559 578 559 578 533 c 0,56,57
 578 485 578 485 521 483 c 1,58,-1
 364 297 l 1,0,-1
EndSplineSet
EndChar

StartChar: Y
Encoding: 89 89 60
Width: 600
GlyphClass: 2
Flags: W
LayerCount: 2
Fore
SplineSet
350 245 m 1,0,-1
 350 100 l 1,1,-1
 415 100 l 2,2,3
 448 100 448 100 461 91 c 0,4,5
 482 75 482 75 482 50 c 0,6,7
 482 21 482 21 458 7 c 0,8,9
 446 0 446 0 415 0 c 2,10,-1
 185 0 l 2,11,12
 152 0 152 0 139 10 c 0,13,14
 118 25 118 25 118 50 c 0,15,16
 118 79 118 79 142 93 c 0,17,18
 152 100 152 100 185 100 c 2,19,-1
 250 100 l 1,20,-1
 250 245 l 1,21,-1
 85 483 l 1,22,23
 21 483 21 483 21 533 c 0,24,25
 21 576 21 576 67 581 c 0,26,27
 79 583 79 583 88 583 c 2,28,-1
 177 583 l 2,29,30
 210 583 210 583 223 574 c 0,31,32
 243 557 243 557 243 533 c 0,33,34
 243 500 243 500 205 484 c 1,35,-1
 300 348 l 1,36,-1
 394 484 l 1,37,38
 354 499 354 499 354 533 c 0,39,40
 354 562 354 562 378 576 c 0,41,42
 388 583 388 583 421 583 c 2,43,-1
 513 583 l 2,44,45
 546 583 546 583 558 574 c 0,46,47
 579 559 579 559 579 533 c 0,48,49
 579 510 579 510 560.5 495 c 128,-1,50
 542 480 542 480 516 483 c 2,51,-1
 514 483 l 1,52,-1
 350 245 l 1,0,-1
EndSplineSet
EndChar

StartChar: Z
Encoding: 90 90 61
Width: 600
GlyphClass: 2
Flags: W
LayerCount: 2
Fore
SplineSet
201 100 m 1,0,-1
 427 100 l 1,1,-1
 427 172 l 2,2,3
 427 205 427 205 436 218 c 0,4,5
 453 238 453 238 477 238 c 0,6,7
 506 238 506 238 520 214 c 0,8,9
 527 204 527 204 527 172 c 2,10,-1
 527 0 l 1,11,-1
 73 0 l 1,12,-1
 73 100 l 1,13,-1
 375 483 l 1,14,-1
 196 483 l 1,15,-1
 196 413 l 2,16,17
 196 380 196 380 187 368 c 0,18,19
 171 347 171 347 146 347 c 0,20,21
 119 347 119 347 103 371 c 0,22,23
 96 384 96 384 96 413 c 2,24,-1
 96 583 l 1,25,-1
 504 583 l 1,26,-1
 504 486 l 1,27,-1
 201 100 l 1,0,-1
EndSplineSet
EndChar

StartChar: bracketleft
Encoding: 91 91 62
Width: 600
GlyphClass: 2
Flags: W
LayerCount: 2
Fore
SplineSet
350 527 m 1,0,-1
 350 -48 l 1,1,-1
 409 -48 l 2,2,3
 441 -48 441 -48 454 -57 c 0,4,5
 475 -73 475 -73 475 -98 c 0,6,7
 475 -125 475 -125 451 -141 c 0,8,9
 440 -148 440 -148 409 -148 c 2,10,-1
 250 -148 l 1,11,-1
 250 627 l 1,12,-1
 408 627 l 2,13,14
 440 627 440 627 454 618 c 0,15,16
 474 603 474 603 474 577 c 0,17,18
 474 548 474 548 450 534 c 0,19,20
 439 527 439 527 408 527 c 2,21,-1
 350 527 l 1,0,-1
EndSplineSet
EndChar

StartChar: backslash
Encoding: 92 92 63
Width: 600
GlyphClass: 2
Flags: W
LayerCount: 2
Fore
SplineSet
184 651 m 2,0,-1
 505 -27 l 2,1,2
 517 -51 517 -51 517 -65 c 0,3,4
 517 -84 517 -84 502 -98.5 c 128,-1,5
 487 -113 487 -113 467 -113 c 0,6,7
 449 -113 449 -113 438 -103.5 c 128,-1,8
 427 -94 427 -94 415 -69 c 2,9,-1
 95 610 l 2,10,11
 83 634 83 634 83 647 c 0,12,13
 83 666 83 666 98 680.5 c 128,-1,14
 113 695 113 695 133 695 c 0,15,16
 151 695 151 695 162 685.5 c 128,-1,17
 173 676 173 676 184 651 c 2,0,-1
EndSplineSet
EndChar

StartChar: bracketright
Encoding: 93 93 64
Width: 600
GlyphClass: 2
Flags: W
LayerCount: 2
Fore
SplineSet
250 -48 m 1,0,-1
 250 527 l 1,1,-1
 191 527 l 2,2,3
 159 527 159 527 146 536 c 0,4,5
 125 552 125 552 125 577 c 0,6,7
 125 604 125 604 149 620 c 0,8,9
 160 627 160 627 191 627 c 2,10,-1
 350 627 l 1,11,-1
 350 -148 l 1,12,-1
 192 -148 l 2,13,14
 160 -148 160 -148 146 -139 c 0,15,16
 126 -124 126 -124 126 -98 c 0,17,18
 126 -69 126 -69 150 -55 c 0,19,20
 161 -48 161 -48 192 -48 c 2,21,-1
 250 -48 l 1,0,-1
EndSplineSet
EndChar

StartChar: asciicircum
Encoding: 94 94 65
Width: 600
GlyphClass: 2
Flags: W
LayerCount: 2
Fore
SplineSet
299 494 m 1,0,-1
 182 356 l 2,1,2
 165 336 165 336 156.5 330.5 c 128,-1,3
 148 325 148 325 133 325 c 0,4,5
 113 325 113 325 98 340 c 128,-1,6
 83 355 83 355 83 375 c 0,7,8
 83 393 83 393 105 419 c 2,9,-1
 299 652 l 1,10,-1
 495 419 l 2,11,12
 517 393 517 393 517 375 c 0,13,14
 517 355 517 355 502 340 c 128,-1,15
 487 325 487 325 467 325 c 0,16,17
 453 325 453 325 443.5 330.5 c 128,-1,18
 434 336 434 336 418 355 c 2,19,-1
 299 494 l 1,0,-1
EndSplineSet
EndChar

StartChar: underscore
Encoding: 95 95 66
Width: 600
GlyphClass: 2
Flags: W
LayerCount: 2
Fore
SplineSet
612 -75 m 1,0,-1
 612 -125 l 1,1,-1
 -12 -125 l 1,2,-1
 -12 -75 l 1,3,-1
 612 -75 l 1,0,-1
EndSplineSet
EndChar

StartChar: quoteleft
Encoding: 8216 8216 67
Width: 600
GlyphClass: 2
Flags: W
LayerCount: 2
Fore
SplineSet
381 602 m 1,0,-1
 450 395 l 2,1,2
 453 380 453 380 453 376 c 0,3,4
 453 365 453 365 443.5 356.5 c 128,-1,5
 434 348 434 348 422 348 c 0,6,7
 405 348 405 348 390 372 c 2,8,-1
 249 602 l 1,9,-1
 381 602 l 1,0,-1
EndSplineSet
EndChar

StartChar: a
Encoding: 97 97 68
Width: 600
GlyphClass: 2
Flags: W
LayerCount: 2
Fore
SplineSet
388 0 m 1,0,-1
 388 23 l 1,1,2
 313 -16 313 -16 222 -16 c 0,3,4
 148 -16 148 -16 95 23.5 c 128,-1,5
 42 63 42 63 42 119 c 0,6,7
 42 168 42 168 81 212 c 0,8,9
 149 288 149 288 284 288 c 0,10,11
 329 288 329 288 388 278 c 1,12,-1
 388 301 l 2,13,14
 388 350 388 350 295 350 c 0,15,16
 244 350 244 350 179 333 c 0,17,18
 153 327 153 327 139 327 c 0,19,20
 118 327 118 327 104 341.5 c 128,-1,21
 90 356 90 356 90 378 c 0,22,23
 90 410 90 410 120 420 c 0,24,25
 205 450 205 450 292 450 c 0,26,27
 384 450 384 450 436.5 411 c 128,-1,28
 489 372 489 372 489 302 c 2,29,-1
 489 100 l 1,30,-1
 505 100 l 2,31,32
 538 100 538 100 551 91 c 0,33,34
 571 74 571 74 571 50 c 0,35,36
 571 21 571 21 547 7 c 0,37,38
 537 0 537 0 505 0 c 2,39,-1
 388 0 l 1,0,-1
389 135 m 1,40,-1
 389 185 l 1,41,42
 326 196 326 196 278 196 c 0,43,44
 227 196 227 196 187.5 174 c 128,-1,45
 148 152 148 152 148 123 c 0,46,47
 148 106 148 106 170 95 c 128,-1,48
 192 84 192 84 224 84 c 0,49,50
 306 84 306 84 389 135 c 1,40,-1
EndSplineSet
EndChar

StartChar: b
Encoding: 98 98 69
Width: 600
GlyphClass: 2
Flags: W
LayerCount: 2
Fore
SplineSet
174 624 m 1,0,-1
 174 401 l 1,1,2
 237 451 237 451 324 451 c 0,3,4
 433 451 433 451 501 386 c 0,5,6
 571 319 571 319 571 218 c 0,7,8
 571 119 571 119 501 51 c 0,9,10
 433 -14 433 -14 325 -14 c 0,11,12
 245 -14 245 -14 174 35 c 1,13,-1
 174 0 l 1,14,-1
 58 0 l 2,15,16
 26 0 26 0 12 9 c 0,17,18
 -8 26 -8 26 -8 50 c 0,19,20
 -8 79 -8 79 16 93 c 0,21,22
 26 100 26 100 58 100 c 2,23,-1
 74 100 l 1,24,-1
 74 524 l 1,25,-1
 58 524 l 2,26,27
 25 524 25 524 12 533 c 0,28,29
 -8 550 -8 550 -8 574 c 0,30,31
 -8 603 -8 603 16 617 c 0,32,33
 27 624 27 624 58 624 c 2,34,-1
 174 624 l 1,0,-1
323 351 m 0,35,36
 253 351 253 351 213 311 c 0,37,38
 174 272 174 272 174 220 c 0,39,40
 174 161 174 161 215.5 123.5 c 128,-1,41
 257 86 257 86 323 86 c 0,42,43
 391 86 391 86 432 126 c 0,44,45
 471 165 471 165 471 219 c 0,46,47
 471 270 471 270 432 311 c 0,48,49
 391 351 391 351 323 351 c 0,35,36
EndSplineSet
EndChar

StartChar: c
Encoding: 99 99 70
Width: 600
GlyphClass: 2
Flags: W
LayerCount: 2
Fore
SplineSet
540 384 m 2,0,-1
 540 307 l 2,1,2
 540 274 540 274 531 262 c 0,3,4
 515 241 515 241 490 241 c 0,5,6
 468 241 468 241 454 255 c 0,7,8
 445 262 445 262 439 289 c 0,9,10
 434 313 434 313 416 325 c 0,11,12
 375 350 375 350 310 350 c 0,13,14
 236 350 236 350 194 307 c 0,15,16
 154 267 154 267 154 207 c 0,17,18
 154 84 154 84 330 84 c 0,19,20
 396 84 396 84 435 97 c 0,21,22
 454 103 454 103 485 128 c 0,23,24
 498 140 498 140 515 140 c 0,25,26
 535 140 535 140 550 125 c 128,-1,27
 565 110 565 110 565 89 c 0,28,29
 565 49 565 49 501 16 c 0,30,31
 435 -16 435 -16 323 -16 c 0,32,33
 185 -16 185 -16 115 53 c 0,34,35
 54 114 54 114 54 207 c 0,36,37
 54 314 54 314 125.5 382 c 128,-1,38
 197 450 197 450 310 450 c 0,39,40
 396 450 396 450 454 420 c 1,41,42
 463 450 463 450 492 450 c 0,43,44
 540 450 540 450 540 384 c 2,0,-1
EndSplineSet
EndChar

StartChar: d
Encoding: 100 100 71
Width: 600
GlyphClass: 2
Flags: W
LayerCount: 2
Fore
SplineSet
531 624 m 1,0,-1
 531 100 l 1,1,-1
 547 100 l 2,2,3
 580 100 580 100 593 91 c 0,4,5
 613 74 613 74 613 50 c 0,6,7
 613 21 613 21 589 7 c 0,8,9
 578 0 578 0 547 0 c 2,10,-1
 431 0 l 1,11,-1
 431 35 l 1,12,13
 359 -14 359 -14 280 -14 c 0,14,15
 171 -14 171 -14 103 51 c 0,16,17
 33 119 33 119 33 219 c 128,-1,18
 33 319 33 319 103 386 c 0,19,20
 171 451 171 451 281 451 c 0,21,22
 368 451 368 451 431 401 c 1,23,-1
 431 525 l 1,24,-1
 415 525 l 2,25,26
 382 525 382 525 369 534 c 0,27,28
 349 551 349 551 349 575 c 0,29,30
 349 603 349 603 373 617 c 0,31,32
 384 624 384 624 415 624 c 2,33,-1
 531 624 l 1,0,-1
281 351 m 0,34,35
 212 351 212 351 172 311 c 0,36,37
 133 272 133 272 133 219 c 0,38,39
 133 167 133 167 172 126 c 0,40,41
 213 86 213 86 282 86 c 128,-1,42
 351 86 351 86 392 126 c 0,43,44
 431 165 431 165 431 217 c 0,45,46
 431 272 431 272 392 311 c 0,47,48
 351 351 351 351 281 351 c 0,34,35
EndSplineSet
EndChar

StartChar: e
Encoding: 101 101 72
Width: 600
GlyphClass: 2
Flags: W
LayerCount: 2
Fore
SplineSet
550 172 m 1,0,-1
 142 172 l 1,1,2
 176 84 176 84 306 84 c 0,3,4
 362 84 362 84 469 112 c 0,5,6
 489 117 489 117 502 117 c 0,7,8
 522 117 522 117 536 102.5 c 128,-1,9
 550 88 550 88 550 67 c 0,10,11
 550 38 550 38 515 22 c 0,12,13
 481 7 481 7 415.5 -4.5 c 128,-1,14
 350 -16 350 -16 297 -16 c 0,15,16
 181 -16 181 -16 107 49 c 128,-1,17
 33 114 33 114 33 216 c 0,18,19
 33 315 33 315 107.5 382.5 c 128,-1,20
 182 450 182 450 291 450 c 0,21,22
 403 450 403 450 476.5 382 c 128,-1,23
 550 314 550 314 550 211 c 2,24,-1
 550 172 l 1,0,-1
145 260 m 1,25,-1
 439 260 l 1,26,27
 427 301 427 301 387 325.5 c 128,-1,28
 347 350 347 350 292 350 c 128,-1,29
 237 350 237 350 196.5 325 c 128,-1,30
 156 300 156 300 145 260 c 1,25,-1
EndSplineSet
EndChar

StartChar: f
Encoding: 102 102 73
Width: 600
GlyphClass: 2
Flags: W
LayerCount: 2
Fore
SplineSet
299 337 m 1,0,-1
 299 100 l 1,1,-1
 438 100 l 2,2,3
 471 100 471 100 484 91 c 0,4,5
 504 74 504 74 504 50 c 0,6,7
 504 23 504 23 480 7 c 0,8,9
 468 0 468 0 438 0 c 2,10,-1
 141 0 l 2,11,12
 108 0 108 0 95 10 c 0,13,14
 75 25 75 25 75 50 c 0,15,16
 75 79 75 79 99 93 c 0,17,18
 110 100 110 100 141 100 c 2,19,-1
 199 100 l 1,20,-1
 199 337 l 1,21,-1
 152 337 l 2,22,23
 118 337 118 337 107 347 c 0,24,25
 86 362 86 362 86 387 c 0,26,27
 86 416 86 416 110 430 c 0,28,29
 121 437 121 437 153 437 c 2,30,-1
 199 437 l 1,31,-1
 199 474 l 2,32,33
 199 543 199 543 251 583 c 128,-1,34
 303 623 303 623 392 623 c 0,35,36
 472 623 472 623 529 607 c 0,37,38
 571 596 571 596 571 560 c 0,39,40
 571 538 571 538 557.5 523.5 c 128,-1,41
 544 509 544 509 524 509 c 0,42,43
 514 509 514 509 496 512 c 0,44,45
 434 523 434 523 383 523 c 0,46,47
 299 523 299 523 299 474 c 2,48,-1
 299 437 l 1,49,-1
 450 437 l 2,50,51
 482 437 482 437 495 428 c 0,52,53
 516 412 516 412 516 387 c 0,54,55
 516 360 516 360 492 344 c 0,56,57
 481 337 481 337 450 337 c 2,58,-1
 299 337 l 1,0,-1
EndSplineSet
EndChar

StartChar: g
Encoding: 103 103 74
Width: 600
GlyphClass: 2
Flags: W
LayerCount: 2
Fore
SplineSet
410 401 m 1,0,-1
 410 437 l 1,1,-1
 526 437 l 2,2,3
 559 437 559 437 572 428 c 0,4,5
 592 411 592 411 592 387 c 0,6,7
 592 358 592 358 568 344 c 0,8,9
 557 337 557 337 526 337 c 2,10,-1
 510 337 l 1,11,-1
 510 -20 l 2,12,13
 510 -99 510 -99 455.5 -152 c 128,-1,14
 401 -205 401 -205 319 -205 c 2,15,-1
 207 -205 l 2,16,17
 173 -205 173 -205 162 -195 c 0,18,19
 141 -180 141 -180 141 -155 c 0,20,21
 141 -126 141 -126 165 -112 c 0,22,23
 176 -105 176 -105 207 -105 c 2,24,-1
 316 -105 l 2,25,26
 359 -105 359 -105 384.5 -82 c 128,-1,27
 410 -59 410 -59 410 -20 c 2,28,-1
 410 35 l 1,29,30
 344 -14 344 -14 269 -14 c 0,31,32
 168 -14 168 -14 100.5 52.5 c 128,-1,33
 33 119 33 119 33 218 c 0,34,35
 33 318 33 318 100.5 384.5 c 128,-1,36
 168 451 168 451 269 451 c 0,37,38
 351 451 351 451 410 401 c 1,0,-1
271 351 m 0,39,40
 214 351 214 351 173.5 312.5 c 128,-1,41
 133 274 133 274 133 219 c 128,-1,42
 133 164 133 164 173.5 125 c 128,-1,43
 214 86 214 86 271 86 c 128,-1,44
 328 86 328 86 369 124.5 c 128,-1,45
 410 163 410 163 410 217 c 0,46,47
 410 273 410 273 369.5 312 c 128,-1,48
 329 351 329 351 271 351 c 0,39,40
EndSplineSet
EndChar

StartChar: h
Encoding: 104 104 75
Width: 600
GlyphClass: 2
Flags: W
LayerCount: 2
Fore
SplineSet
195 624 m 1,0,-1
 195 389 l 1,1,2
 255 450 255 450 332 450 c 0,3,4
 412 450 412 450 460.5 404.5 c 128,-1,5
 509 359 509 359 509 284 c 2,6,-1
 509 100 l 1,7,-1
 515 100 l 2,8,9
 548 100 548 100 561 91 c 0,10,11
 581 74 581 74 581 50 c 0,12,13
 581 21 581 21 557 7 c 0,14,15
 546 0 546 0 515 0 c 2,16,-1
 403 0 l 2,17,18
 370 0 370 0 357 9 c 0,19,20
 336 25 336 25 336 50 c 0,21,22
 336 77 336 77 360 93 c 0,23,24
 373 100 373 100 403 100 c 2,25,-1
 409 100 l 1,26,-1
 409 271 l 2,27,28
 409 297 409 297 405 309 c 128,-1,29
 401 321 401 321 388 331 c 0,30,31
 365 350 365 350 321 350 c 0,32,33
 286 350 286 350 262 337 c 128,-1,34
 238 324 238 324 195 283 c 1,35,-1
 195 100 l 1,36,-1
 201 100 l 2,37,38
 234 100 234 100 247 91 c 0,39,40
 268 75 268 75 268 50 c 0,41,42
 268 23 268 23 244 7 c 0,43,44
 233 0 233 0 201 0 c 2,45,-1
 89 0 l 2,46,47
 58 0 58 0 44 9 c 0,48,49
 23 25 23 25 23 50 c 0,50,51
 23 79 23 79 47 93 c 0,52,53
 60 100 60 100 89 100 c 2,54,-1
 95 100 l 1,55,-1
 95 524 l 1,56,-1
 79 524 l 2,57,58
 46 524 46 524 33 533 c 0,59,60
 13 550 13 550 13 574 c 0,61,62
 13 603 13 603 37 617 c 0,63,64
 50 624 50 624 79 624 c 2,65,-1
 195 624 l 1,0,-1
EndSplineSet
EndChar

StartChar: i
Encoding: 105 105 76
Width: 600
GlyphClass: 2
Flags: W
LayerCount: 2
Fore
SplineSet
350 437 m 1,0,-1
 350 100 l 1,1,-1
 472 100 l 2,2,3
 504 100 504 100 517 91 c 0,4,5
 538 75 538 75 538 50 c 0,6,7
 538 23 538 23 514 7 c 0,8,9
 502 0 502 0 472 0 c 2,10,-1
 128 0 l 2,11,12
 94 0 94 0 83 10 c 0,13,14
 62 25 62 25 62 50 c 0,15,16
 62 79 62 79 86 93 c 0,17,18
 96 100 96 100 128 100 c 2,19,-1
 250 100 l 1,20,-1
 250 337 l 1,21,-1
 172 337 l 2,22,23
 137 337 137 337 126 347 c 0,24,25
 105 362 105 362 105 387 c 0,26,27
 105 416 105 416 129 430 c 0,28,29
 140 437 140 437 172 437 c 2,30,-1
 350 437 l 1,0,-1
336 623 m 1,31,-1
 336 518 l 1,32,-1
 218 518 l 1,33,-1
 218 623 l 1,34,-1
 336 623 l 1,31,-1
EndSplineSet
EndChar

StartChar: j
Encoding: 106 106 77
Width: 600
GlyphClass: 2
Flags: W
LayerCount: 2
Fore
SplineSet
388 337 m 1,0,-1
 186 337 l 2,1,2
 152 337 152 337 141 347 c 0,3,4
 120 362 120 362 120 387 c 0,5,6
 120 416 120 416 144 430 c 0,7,8
 154 437 154 437 186 437 c 2,9,-1
 488 437 l 1,10,-1
 488 -20 l 2,11,12
 488 -99 488 -99 433.5 -152 c 128,-1,13
 379 -205 379 -205 297 -205 c 2,14,-1
 183 -205 l 2,15,16
 149 -205 149 -205 138 -195 c 0,17,18
 117 -180 117 -180 117 -155 c 0,19,20
 117 -127 117 -127 141 -112 c 0,21,22
 152 -105 152 -105 183 -105 c 2,23,-1
 294 -105 l 2,24,25
 337 -105 337 -105 362.5 -82 c 128,-1,26
 388 -59 388 -59 388 -20 c 2,27,-1
 388 337 l 1,0,-1
430 623 m 1,28,-1
 430 518 l 1,29,-1
 311 518 l 1,30,-1
 311 623 l 1,31,-1
 430 623 l 1,28,-1
EndSplineSet
EndChar

StartChar: k
Encoding: 107 107 78
Width: 600
GlyphClass: 2
Flags: W
LayerCount: 2
Fore
SplineSet
215 164 m 1,0,-1
 215 0 l 1,1,-1
 99 0 l 2,2,3
 33 0 33 0 33 50 c 0,4,5
 33 79 33 79 57 93 c 0,6,7
 68 100 68 100 99 100 c 2,8,-1
 115 100 l 1,9,-1
 115 524 l 1,10,-1
 99 524 l 2,11,12
 66 524 66 524 53 533 c 0,13,14
 33 550 33 550 33 574 c 0,15,16
 33 603 33 603 57 617 c 0,17,18
 68 624 68 624 99 624 c 2,19,-1
 215 624 l 1,20,-1
 215 287 l 1,21,-1
 294 350 l 1,22,23
 278 369 278 369 278 387 c 0,24,25
 278 414 278 414 302 430 c 0,26,27
 313 437 313 437 345 437 c 2,28,-1
 457 437 l 2,29,30
 490 437 490 437 503 428 c 0,31,32
 523 413 523 413 523 387 c 0,33,34
 523 360 523 360 499 344 c 0,35,36
 488 337 488 337 457 337 c 2,37,-1
 429 337 l 1,38,-1
 311 241 l 1,39,-1
 471 100 l 1,40,-1
 504 100 l 2,41,42
 537 100 537 100 550 91 c 0,43,44
 571 75 571 75 571 50 c 0,45,46
 571 23 571 23 547 7 c 0,47,48
 536 0 536 0 504 0 c 2,49,-1
 386 0 l 2,50,51
 320 0 320 0 320 50 c 0,52,53
 320 70 320 70 336 87 c 1,54,-1
 233 178 l 1,55,-1
 215 164 l 1,0,-1
EndSplineSet
EndChar

StartChar: l
Encoding: 108 108 79
Width: 600
GlyphClass: 2
Flags: W
LayerCount: 2
Fore
SplineSet
350 624 m 1,0,-1
 350 100 l 1,1,-1
 472 100 l 2,2,3
 504 100 504 100 517 91 c 0,4,5
 538 75 538 75 538 50 c 0,6,7
 538 23 538 23 514 7 c 0,8,9
 502 0 502 0 472 0 c 2,10,-1
 128 0 l 2,11,12
 94 0 94 0 83 10 c 0,13,14
 62 25 62 25 62 50 c 0,15,16
 62 79 62 79 86 93 c 0,17,18
 96 100 96 100 128 100 c 2,19,-1
 250 100 l 1,20,-1
 250 524 l 1,21,-1
 172 524 l 2,22,23
 137 524 137 524 126 534 c 1,24,25
 105 548 105 548 105 574 c 0,26,27
 105 603 105 603 129 617 c 0,28,29
 140 624 140 624 172 624 c 2,30,-1
 350 624 l 1,0,-1
EndSplineSet
EndChar

StartChar: m
Encoding: 109 109 80
Width: 600
GlyphClass: 2
Flags: W
LayerCount: 2
Fore
SplineSet
141 437 m 1,0,-1
 141 413 l 1,1,2
 187 450 187 450 226 450 c 0,3,4
 283 450 283 450 328 401 c 1,5,6
 373 450 373 450 432 450 c 0,7,8
 488 450 488 450 525.5 412.5 c 128,-1,9
 563 375 563 375 563 319 c 2,10,-1
 563 100 l 1,11,12
 623 100 623 100 623 50 c 128,-1,13
 623 0 623 0 557 0 c 2,14,-1
 463 0 l 1,15,-1
 463 311 l 2,16,17
 463 333 463 333 455.5 341.5 c 128,-1,18
 448 350 448 350 428 350 c 128,-1,19
 408 350 408 350 392.5 341 c 128,-1,20
 377 332 377 332 352 305 c 1,21,-1
 352 100 l 1,22,23
 380 100 380 100 396 86.5 c 128,-1,24
 412 73 412 73 412 50 c 0,25,26
 412 23 412 23 388 7 c 0,27,28
 377 0 377 0 346 0 c 2,29,-1
 252 0 l 1,30,-1
 252 311 l 2,31,32
 252 332 252 332 244 341 c 128,-1,33
 236 350 236 350 217 350 c 0,34,35
 181 350 181 350 141 305 c 1,36,-1
 141 100 l 1,37,38
 202 100 202 100 202 50 c 0,39,40
 202 23 202 23 178 7 c 0,41,42
 167 0 167 0 136 0 c 2,43,-1
 48 0 l 2,44,45
 15 0 15 0 2 10 c 0,46,47
 -19 25 -19 25 -19 50 c 0,48,49
 -19 100 -19 100 41 100 c 1,50,-1
 41 337 l 1,51,52
 -19 339 -19 339 -19 387 c 0,53,54
 -19 407 -19 407 -7 420 c 128,-1,55
 5 433 5 433 27 435 c 0,56,57
 38 437 38 437 48 437 c 2,58,-1
 141 437 l 1,0,-1
EndSplineSet
EndChar

StartChar: n
Encoding: 110 110 81
Width: 600
GlyphClass: 2
Flags: W
LayerCount: 2
Fore
SplineSet
195 437 m 1,0,-1
 195 389 l 1,1,2
 231 423 231 423 261 436.5 c 128,-1,3
 291 450 291 450 332 450 c 0,4,5
 400 450 400 450 451 413 c 0,6,7
 510 369 510 369 510 282 c 2,8,-1
 510 100 l 1,9,10
 571 100 571 100 571 50 c 0,11,12
 571 21 571 21 547 7 c 0,13,14
 536 0 536 0 505 0 c 2,15,-1
 416 0 l 2,16,17
 349 0 349 0 349 50 c 128,-1,18
 349 100 349 100 410 100 c 1,19,-1
 410 278 l 2,20,21
 410 350 410 350 320 350 c 0,22,23
 285 350 285 350 257.5 335 c 128,-1,24
 230 320 230 320 195 282 c 1,25,-1
 195 100 l 1,26,-1
 201 100 l 2,27,28
 233 100 233 100 246 91 c 0,29,30
 267 75 267 75 267 50 c 0,31,32
 267 23 267 23 243 7 c 0,33,34
 232 0 232 0 201 0 c 2,35,-1
 89 0 l 2,36,37
 57 0 57 0 43 10 c 0,38,39
 23 25 23 25 23 50 c 0,40,41
 23 79 23 79 47 93 c 0,42,43
 60 100 60 100 89 100 c 2,44,-1
 95 100 l 1,45,-1
 95 337 l 1,46,47
 34 339 34 339 34 387 c 0,48,49
 34 430 34 430 80 435 c 0,50,51
 91 437 91 437 101 437 c 2,52,-1
 195 437 l 1,0,-1
EndSplineSet
EndChar

StartChar: o
Encoding: 111 111 82
Width: 600
GlyphClass: 2
Flags: W
LayerCount: 2
Fore
SplineSet
303 450 m 0,0,1
 409 450 409 450 483.5 382 c 128,-1,2
 558 314 558 314 558 217 c 0,3,4
 558 119 558 119 483 51.5 c 128,-1,5
 408 -16 408 -16 300 -16 c 128,-1,6
 192 -16 192 -16 117 51.5 c 128,-1,7
 42 119 42 119 42 217 c 0,8,9
 42 316 42 316 117 383 c 128,-1,10
 192 450 192 450 303 450 c 0,0,1
302 350 m 0,11,12
 234 350 234 350 188 312 c 128,-1,13
 142 274 142 274 142 217 c 0,14,15
 142 161 142 161 187.5 122.5 c 128,-1,16
 233 84 233 84 300 84 c 128,-1,17
 367 84 367 84 412.5 122.5 c 128,-1,18
 458 161 458 161 458 217 c 128,-1,19
 458 273 458 273 412.5 311.5 c 128,-1,20
 367 350 367 350 302 350 c 0,11,12
EndSplineSet
EndChar

StartChar: p
Encoding: 112 112 83
Width: 600
GlyphClass: 2
Flags: W
LayerCount: 2
Fore
SplineSet
174 66 m 1,0,-1
 174 -105 l 1,1,-1
 232 -105 l 2,2,3
 265 -105 265 -105 278 -114 c 0,4,5
 298 -129 298 -129 298 -155 c 0,6,7
 298 -182 298 -182 274 -198 c 0,8,9
 263 -205 263 -205 232 -205 c 2,10,-1
 58 -205 l 2,11,12
 24 -205 24 -205 12 -195 c 0,13,14
 -8 -180 -8 -180 -8 -155 c 0,15,16
 -8 -126 -8 -126 16 -112 c 0,17,18
 26 -105 26 -105 58 -105 c 2,19,-1
 74 -105 l 1,20,-1
 74 337 l 1,21,-1
 58 337 l 2,22,23
 25 337 25 337 12 346 c 0,24,25
 -8 363 -8 363 -8 387 c 0,26,27
 -8 416 -8 416 16 430 c 0,28,29
 29 437 29 437 58 437 c 2,30,-1
 174 437 l 1,31,-1
 174 392 l 1,32,33
 242 450 242 450 327 450 c 0,34,35
 432 450 432 450 501.5 385.5 c 128,-1,36
 571 321 571 321 571 224 c 0,37,38
 571 132 571 132 502 71 c 128,-1,39
 433 10 433 10 329 10 c 0,40,41
 247 10 247 10 174 66 c 1,0,-1
323 350 m 0,42,43
 260 350 260 350 222 321 c 0,44,45
 200 305 200 305 187 280 c 128,-1,46
 174 255 174 255 174 231 c 0,47,48
 174 178 174 178 215.5 144 c 128,-1,49
 257 110 257 110 323 110 c 0,50,51
 388 110 388 110 429.5 144 c 128,-1,52
 471 178 471 178 471 230 c 0,53,54
 471 255 471 255 458 280 c 128,-1,55
 445 305 445 305 423 321 c 0,56,57
 385 350 385 350 323 350 c 0,42,43
EndSplineSet
EndChar

StartChar: q
Encoding: 113 113 84
Width: 600
GlyphClass: 2
Flags: W
LayerCount: 2
Fore
SplineSet
431 -105 m 1,0,-1
 431 66 l 1,1,2
 358 10 358 10 275 10 c 0,3,4
 171 10 171 10 102 71 c 128,-1,5
 33 132 33 132 33 224 c 0,6,7
 33 321 33 321 102.5 385.5 c 128,-1,8
 172 450 172 450 277 450 c 0,9,10
 324 450 324 450 359 437 c 128,-1,11
 394 424 394 424 431 392 c 1,12,-1
 431 437 l 1,13,-1
 547 437 l 2,14,15
 580 437 580 437 593 428 c 0,16,17
 613 411 613 411 613 387 c 0,18,19
 613 358 613 358 589 344 c 0,20,21
 578 337 578 337 547 337 c 2,22,-1
 531 337 l 1,23,-1
 531 -105 l 1,24,-1
 547 -105 l 2,25,26
 580 -105 580 -105 593 -114 c 0,27,28
 613 -131 613 -131 613 -155 c 0,29,30
 613 -182 613 -182 589 -198 c 0,31,32
 578 -205 578 -205 547 -205 c 2,33,-1
 373 -205 l 2,34,35
 340 -205 340 -205 327 -195 c 0,36,37
 307 -180 307 -180 307 -155 c 0,38,39
 307 -126 307 -126 331 -112 c 0,40,41
 342 -105 342 -105 373 -105 c 2,42,-1
 431 -105 l 1,0,-1
281 350 m 0,43,44
 221 350 221 350 181 321 c 0,45,46
 133 285 133 285 133 230 c 128,-1,47
 133 175 133 175 181 139 c 0,48,49
 219 110 219 110 282 110 c 128,-1,50
 345 110 345 110 383 139 c 0,51,52
 405 155 405 155 418 180 c 128,-1,53
 431 205 431 205 431 229 c 0,54,55
 431 282 431 282 389.5 316 c 128,-1,56
 348 350 348 350 281 350 c 0,43,44
EndSplineSet
EndChar

StartChar: r
Encoding: 114 114 85
Width: 600
GlyphClass: 2
Flags: W
LayerCount: 2
Fore
SplineSet
278 437 m 1,0,-1
 278 372 l 1,1,2
 338 417 338 417 373 433 c 128,-1,3
 408 449 408 449 445 449 c 0,4,5
 498 449 498 449 543 411 c 0,6,7
 571 388 571 388 571 364 c 0,8,9
 571 343 571 343 556 328 c 128,-1,10
 541 313 541 313 521 313 c 0,11,12
 503 313 503 313 482 331 c 128,-1,13
 461 349 461 349 443 349 c 0,14,15
 419 349 419 349 384.5 327.5 c 128,-1,16
 350 306 350 306 278 247 c 1,17,-1
 278 100 l 1,18,-1
 417 100 l 2,19,20
 450 100 450 100 463 91 c 0,21,22
 484 75 484 75 484 50 c 0,23,24
 484 21 484 21 460 7 c 0,25,26
 448 0 448 0 417 0 c 2,27,-1
 120 0 l 2,28,29
 87 0 87 0 74 10 c 0,30,31
 54 25 54 25 54 50 c 0,32,33
 54 79 54 79 78 93 c 0,34,35
 88 100 88 100 120 100 c 2,36,-1
 178 100 l 1,37,-1
 178 337 l 1,38,-1
 143 337 l 2,39,40
 109 337 109 337 98 347 c 0,41,42
 77 362 77 362 77 387 c 0,43,44
 77 415 77 415 101 429 c 1,45,46
 111 437 111 437 143 437 c 2,47,-1
 278 437 l 1,0,-1
EndSplineSet
EndChar

StartChar: s
Encoding: 115 115 86
Width: 600
GlyphClass: 2
Flags: W
LayerCount: 2
Fore
SplineSet
409 312 m 2,0,-1
 404 321 l 1,1,2
 363 350 363 350 301 350 c 0,3,4
 263 350 263 350 232.5 339.5 c 128,-1,5
 202 329 202 329 202 315 c 128,-1,6
 202 301 202 301 228 291 c 0,7,8
 243 286 243 286 312 276 c 0,9,10
 414 262 414 262 457 238 c 0,11,12
 490 220 490 220 508.5 190 c 128,-1,13
 527 160 527 160 527 125 c 0,14,15
 527 64 527 64 464 24 c 128,-1,16
 401 -16 401 -16 304 -16 c 0,17,18
 217 -16 217 -16 156 13 c 1,19,20
 141 1 141 1 124 1 c 0,21,22
 95 1 95 1 80 25 c 0,23,24
 73 38 73 38 73 67 c 2,25,-1
 73 100 l 2,26,27
 73 134 73 134 83 146 c 0,28,29
 98 167 98 167 124 167 c 0,30,31
 162 167 162 167 175 123 c 1,32,33
 218 84 218 84 300 84 c 0,34,35
 348 84 348 84 382.5 97 c 128,-1,36
 417 110 417 110 417 127 c 0,37,38
 417 149 417 149 383 162 c 0,39,40
 360 171 360 171 291 179 c 0,41,42
 186 190 186 190 139 222 c 128,-1,43
 92 254 92 254 92 313 c 0,44,45
 92 373 92 373 150 411.5 c 128,-1,46
 208 450 208 450 298 450 c 0,47,48
 371 450 371 450 427 424 c 1,49,50
 438 450 438 450 459 450 c 0,51,52
 506 450 506 450 506 384 c 2,53,-1
 506 347 l 2,54,55
 506 314 506 314 497 301 c 0,56,57
 480 281 480 281 456 281 c 0,58,59
 426 281 426 281 409 312 c 2,0,-1
EndSplineSet
EndChar

StartChar: t
Encoding: 116 116 87
Width: 600
GlyphClass: 2
Flags: W
LayerCount: 2
Fore
SplineSet
214 337 m 1,0,-1
 214 141 l 2,1,2
 214 113 214 113 222 104 c 0,3,4
 240 84 240 84 300 84 c 0,5,6
 379 84 379 84 446 118 c 0,7,8
 467 129 467 129 481 129 c 0,9,10
 501 129 501 129 515 114 c 128,-1,11
 529 99 529 99 529 78 c 0,12,13
 529 60 529 60 518 48.5 c 128,-1,14
 507 37 507 37 479 24 c 0,15,16
 443 7 443 7 390.5 -4.5 c 128,-1,17
 338 -16 338 -16 299 -16 c 0,18,19
 214 -16 214 -16 164 21 c 128,-1,20
 114 58 114 58 114 122 c 2,21,-1
 114 337 l 1,22,-1
 79 337 l 2,23,24
 46 337 46 337 33 347 c 0,25,26
 13 362 13 362 13 387 c 0,27,28
 13 416 13 416 37 430 c 0,29,30
 47 437 47 437 79 437 c 2,31,-1
 114 437 l 1,32,-1
 114 525 l 2,33,34
 114 558 114 558 124 571 c 0,35,36
 139 591 139 591 164 591 c 0,37,38
 193 591 193 591 207 567 c 0,39,40
 214 556 214 556 214 525 c 2,41,-1
 214 437 l 1,42,-1
 395 437 l 2,43,44
 427 437 427 437 441 428 c 0,45,46
 461 411 461 411 461 387 c 0,47,48
 461 358 461 358 437 344 c 0,49,50
 426 337 426 337 395 337 c 2,51,-1
 214 337 l 1,0,-1
EndSplineSet
EndChar

StartChar: u
Encoding: 117 117 88
Width: 600
GlyphClass: 2
Flags: W
LayerCount: 2
Fore
SplineSet
510 437 m 1,0,-1
 510 100 l 1,1,2
 571 100 571 100 571 50 c 0,3,4
 571 23 571 23 547 7 c 0,5,6
 536 0 536 0 505 0 c 2,7,-1
 410 0 l 1,8,-1
 410 48 l 1,9,10
 373 13 373 13 343.5 0 c 128,-1,11
 314 -13 314 -13 273 -13 c 0,12,13
 203 -13 203 -13 154 24 c 0,14,15
 95 68 95 68 95 156 c 2,16,-1
 95 338 l 1,17,-1
 79 338 l 1,18,-1
 68 337 l 2,19,20
 46 336 46 336 29.5 350.5 c 128,-1,21
 13 365 13 365 13 387 c 0,22,23
 13 416 13 416 37 430 c 0,24,25
 47 437 47 437 79 437 c 2,26,-1
 195 437 l 1,27,-1
 195 159 l 2,28,29
 195 87 195 87 283 87 c 0,30,31
 321 87 321 87 346 100.5 c 128,-1,32
 371 114 371 114 410 155 c 1,33,-1
 410 337 l 1,34,-1
 375 337 l 2,35,36
 341 337 341 337 330 347 c 0,37,38
 309 362 309 362 309 387 c 0,39,40
 309 416 309 416 333 430 c 0,41,42
 344 437 344 437 375 437 c 2,43,-1
 510 437 l 1,0,-1
EndSplineSet
EndChar

StartChar: v
Encoding: 118 118 89
Width: 600
GlyphClass: 2
Flags: W
LayerCount: 2
Fore
SplineSet
302 122 m 1,0,-1
 409 337 l 1,1,-1
 399 337 l 2,2,3
 366 337 366 337 354 346 c 0,4,5
 333 362 333 362 333 387 c 0,6,7
 333 416 333 416 357 430 c 0,8,9
 370 437 370 437 399 437 c 2,10,-1
 534 437 l 2,11,12
 567 437 567 437 580 428 c 0,13,14
 600 411 600 411 600 387 c 0,15,16
 600 358 600 358 576 344 c 0,17,18
 565 337 565 337 534 337 c 2,19,-1
 518 337 l 1,20,-1
 351 0 l 1,21,-1
 247 0 l 1,22,-1
 80 337 l 1,23,-1
 66 337 l 2,24,25
 33 337 33 337 21 346 c 0,26,27
 0 362 0 362 0 387 c 0,28,29
 0 416 0 416 24 430 c 0,30,31
 37 437 37 437 66 437 c 2,32,-1
 198 437 l 2,33,34
 231 437 231 437 244 428 c 0,35,36
 264 411 264 411 264 387 c 0,37,38
 264 358 264 358 240 344 c 0,39,40
 229 337 229 337 198 337 c 2,41,-1
 193 337 l 1,42,-1
 302 122 l 1,0,-1
EndSplineSet
EndChar

StartChar: w
Encoding: 119 119 90
Width: 600
GlyphClass: 2
Flags: W
LayerCount: 2
Fore
SplineSet
301 181 m 1,0,-1
 233 0 l 1,1,-1
 139 0 l 1,2,-1
 54 338 l 1,3,4
 28 340 28 340 14 352.5 c 128,-1,5
 0 365 0 365 0 387 c 0,6,7
 0 430 0 430 45 435 c 0,8,9
 57 437 57 437 66 437 c 2,10,-1
 158 437 l 2,11,12
 191 437 191 437 204 428 c 0,13,14
 224 411 224 411 224 387 c 0,15,16
 224 360 224 360 201 345 c 0,17,18
 190 338 190 338 160 338 c 1,19,-1
 199 185 l 1,20,-1
 259 343 l 1,21,-1
 347 343 l 1,22,-1
 408 185 l 1,23,-1
 448 338 l 1,24,-1
 441 338 l 2,25,26
 408 338 408 338 396 347 c 0,27,28
 375 362 375 362 375 387 c 128,-1,29
 375 412 375 412 396 427 c 0,30,31
 407 437 407 437 441 437 c 2,32,-1
 534 437 l 2,33,34
 567 437 567 437 579 428 c 0,35,36
 600 412 600 412 600 387 c 0,37,38
 600 341 600 341 548 338 c 1,39,-1
 464 0 l 1,40,-1
 372 0 l 1,41,-1
 301 181 l 1,0,-1
EndSplineSet
EndChar

StartChar: x
Encoding: 120 120 91
Width: 600
GlyphClass: 2
Flags: W
LayerCount: 2
Fore
SplineSet
373 227 m 1,0,-1
 525 100 l 1,1,2
 579 97 579 97 579 50 c 0,3,4
 579 22 579 22 555 7 c 0,5,6
 544 0 544 0 513 0 c 2,7,-1
 401 0 l 2,8,9
 368 0 368 0 354 10 c 0,10,11
 334 25 334 25 334 51 c 0,12,13
 334 89 334 89 374 100 c 1,14,-1
 299 161 l 1,15,-1
 226 100 l 1,16,17
 264 84 264 84 264 51 c 0,18,19
 264 0 264 0 198 0 c 2,20,-1
 87 0 l 2,21,22
 21 0 21 0 21 50 c 0,23,24
 21 97 21 97 75 100 c 1,25,-1
 220 228 l 1,26,-1
 92 337 l 1,27,28
 40 342 40 342 40 387 c 0,29,30
 40 430 40 430 85 435 c 0,31,32
 97 437 97 437 106 437 c 2,33,-1
 198 437 l 2,34,35
 232 437 232 437 244 427 c 0,36,37
 264 412 264 412 264 388 c 0,38,39
 264 359 264 359 238 342 c 1,40,-1
 299 293 l 1,41,-1
 360 343 l 1,42,43
 334 361 334 361 334 386 c 0,44,45
 334 430 334 430 379 435 c 0,46,47
 391 437 391 437 400 437 c 2,48,-1
 491 437 l 2,49,50
 524 437 524 437 537 428 c 0,51,52
 558 412 558 412 558 387 c 0,53,54
 558 342 558 342 505 337 c 1,55,-1
 373 227 l 1,0,-1
EndSplineSet
EndChar

StartChar: y
Encoding: 121 121 92
Width: 600
GlyphClass: 2
Flags: W
LayerCount: 2
Fore
SplineSet
242 3 m 1,0,-1
 70 337 l 1,1,2
 21 343 21 343 21 387 c 0,3,4
 21 430 21 430 67 435 c 0,5,6
 78 437 78 437 87 437 c 2,7,-1
 177 437 l 2,8,9
 210 437 210 437 223 428 c 0,10,11
 243 411 243 411 243 387 c 0,12,13
 243 339 243 339 184 337 c 1,14,-1
 298 114 l 1,15,-1
 418 337 l 1,16,17
 354 337 354 337 354 387 c 0,18,19
 354 430 354 430 400 435 c 0,20,21
 411 437 411 437 421 437 c 2,22,-1
 513 437 l 2,23,24
 546 437 546 437 558 428 c 0,25,26
 579 413 579 413 579 387 c 0,27,28
 579 342 579 342 527 337 c 1,29,-1
 297 -105 l 1,30,-1
 302 -105 l 2,31,32
 335 -105 335 -105 348 -114 c 0,33,34
 368 -131 368 -131 368 -155 c 0,35,36
 368 -182 368 -182 344 -198 c 0,37,38
 333 -205 333 -205 302 -205 c 2,39,-1
 87 -205 l 2,40,41
 53 -205 53 -205 42 -195 c 0,42,43
 21 -180 21 -180 21 -155 c 0,44,45
 21 -126 21 -126 45 -112 c 0,46,47
 58 -105 58 -105 87 -105 c 2,48,-1
 187 -105 l 1,49,-1
 242 3 l 1,0,-1
EndSplineSet
EndChar

StartChar: z
Encoding: 122 122 93
Width: 600
GlyphClass: 2
Flags: W
LayerCount: 2
Fore
SplineSet
244 100 m 1,0,-1
 419 100 l 1,1,2
 422 154 422 154 469 154 c 0,3,4
 498 154 498 154 512 130 c 0,5,6
 519 120 519 120 519 88 c 2,7,-1
 519 0 l 1,8,-1
 85 0 l 1,9,-1
 85 83 l 1,10,-1
 346 337 l 1,11,-1
 197 337 l 1,12,-1
 197 328 l 2,13,14
 197 296 197 296 188 283 c 0,15,16
 172 262 172 262 147 262 c 0,17,18
 118 262 118 262 104 286 c 0,19,20
 97 299 97 299 97 328 c 2,21,-1
 97 437 l 1,22,-1
 506 437 l 1,23,-1
 506 356 l 1,24,-1
 244 100 l 1,0,-1
EndSplineSet
EndChar

StartChar: braceleft
Encoding: 123 123 94
Width: 600
GlyphClass: 2
Flags: W
LayerCount: 2
Fore
SplineSet
348 485 m 2,0,-1
 348 328 l 2,1,2
 348 296 348 296 342 278.5 c 128,-1,3
 336 261 336 261 319 240 c 1,4,5
 337 218 337 218 342.5 199.5 c 128,-1,6
 348 181 348 181 348 142 c 2,7,-1
 348 -15 l 2,8,9
 348 -35 348 -35 355.5 -42.5 c 128,-1,10
 363 -50 363 -50 384 -52 c 0,11,12
 406 -53 406 -53 419.5 -67.5 c 128,-1,13
 433 -82 433 -82 433 -103 c 0,14,15
 433 -126 433 -126 418 -139.5 c 128,-1,16
 403 -153 403 -153 378 -153 c 0,17,18
 325 -153 325 -153 286.5 -114 c 128,-1,19
 248 -75 248 -75 248 -22 c 2,20,-1
 248 151 l 2,21,22
 248 172 248 172 242 179.5 c 128,-1,23
 236 187 236 187 216 189 c 0,24,25
 167 195 167 195 167 240 c 128,-1,26
 167 285 167 285 216 290 c 0,27,28
 235 292 235 292 241.5 300 c 128,-1,29
 248 308 248 308 248 328 c 2,30,-1
 248 492 l 2,31,32
 248 545 248 545 286.5 584 c 128,-1,33
 325 623 325 623 377 623 c 0,34,35
 402 623 402 623 417.5 609.5 c 128,-1,36
 433 596 433 596 433 573 c 0,37,38
 433 552 433 552 419.5 537.5 c 128,-1,39
 406 523 406 523 384 522 c 0,40,41
 363 521 363 521 355.5 513 c 128,-1,42
 348 505 348 505 348 485 c 2,0,-1
EndSplineSet
EndChar

StartChar: bar
Encoding: 124 124 95
Width: 600
GlyphClass: 2
Flags: W
LayerCount: 2
Fore
SplineSet
350 556 m 2,0,-1
 350 -87 l 2,1,2
 350 -119 350 -119 341 -132 c 0,3,4
 325 -153 325 -153 300 -153 c 0,5,6
 273 -153 273 -153 257 -129 c 0,7,8
 250 -118 250 -118 250 -87 c 2,9,-1
 250 556 l 2,10,11
 250 589 250 589 259 602 c 0,12,13
 276 622 276 622 300 622 c 0,14,15
 329 622 329 622 343 598 c 0,16,17
 350 585 350 585 350 556 c 2,0,-1
EndSplineSet
EndChar

StartChar: braceright
Encoding: 125 125 96
Width: 600
GlyphClass: 2
Flags: W
LayerCount: 2
Fore
SplineSet
252 -15 m 2,0,-1
 252 142 l 2,1,2
 252 174 252 174 258 191.5 c 128,-1,3
 264 209 264 209 281 230 c 1,4,5
 263 252 263 252 257.5 270.5 c 128,-1,6
 252 289 252 289 252 328 c 2,7,-1
 252 485 l 2,8,9
 252 505 252 505 244.5 512.5 c 128,-1,10
 237 520 237 520 216 522 c 0,11,12
 194 523 194 523 180.5 537.5 c 128,-1,13
 167 552 167 552 167 573 c 0,14,15
 167 596 167 596 182 609.5 c 128,-1,16
 197 623 197 623 222 623 c 0,17,18
 275 623 275 623 313.5 584 c 128,-1,19
 352 545 352 545 352 492 c 2,20,-1
 352 319 l 2,21,22
 352 298 352 298 358 290.5 c 128,-1,23
 364 283 364 283 384 281 c 0,24,25
 433 275 433 275 433 230 c 128,-1,26
 433 185 433 185 384 180 c 0,27,28
 365 178 365 178 358.5 170 c 128,-1,29
 352 162 352 162 352 142 c 2,30,-1
 352 -22 l 2,31,32
 352 -75 352 -75 313.5 -114 c 128,-1,33
 275 -153 275 -153 223 -153 c 0,34,35
 198 -153 198 -153 182.5 -139.5 c 128,-1,36
 167 -126 167 -126 167 -103 c 0,37,38
 167 -82 167 -82 180.5 -67.5 c 128,-1,39
 194 -53 194 -53 216 -52 c 0,40,41
 237 -51 237 -51 244.5 -43 c 128,-1,42
 252 -35 252 -35 252 -15 c 2,0,-1
EndSplineSet
EndChar

StartChar: asciitilde
Encoding: 126 126 97
Width: 600
GlyphClass: 2
Flags: W
LayerCount: 2
Fore
SplineSet
488 364 m 0,0,1
 508 364 508 364 523 349 c 128,-1,2
 538 334 538 334 538 314 c 0,3,4
 538 289 538 289 497 241 c 0,5,6
 445 179 445 179 391 179 c 128,-1,7
 337 179 337 179 254 254 c 0,8,9
 223 281 223 281 212 281 c 0,10,11
 199 281 199 281 165 239 c 0,12,13
 145 215 145 215 135.5 208 c 128,-1,14
 126 201 126 201 113 201 c 0,15,16
 93 201 93 201 77.5 216.5 c 128,-1,17
 62 232 62 232 62 252 c 0,18,19
 62 279 62 279 101 322 c 0,20,21
 156 385 156 385 213 385 c 0,22,23
 245 385 245 385 272 369.5 c 128,-1,24
 299 354 299 354 350 307 c 0,25,26
 378 284 378 284 389 284 c 0,27,28
 403 284 403 284 438 330 c 0,29,30
 453 350 453 350 463 357 c 128,-1,31
 473 364 473 364 488 364 c 0,0,1
EndSplineSet
EndChar

StartChar: exclamdown
Encoding: 161 161 98
Width: 600
GlyphClass: 2
Flags: W
LayerCount: 2
Fore
SplineSet
222 -114 m 2,0,-1
 251 183 l 2,1,2
 256 232 256 232 300 232 c 0,3,4
 321 232 321 232 334.5 219 c 128,-1,5
 348 206 348 206 350 183 c 2,6,-1
 379 -114 l 2,7,8
 381 -140 381 -140 381 -147 c 0,9,10
 381 -182 381 -182 358 -204.5 c 128,-1,11
 335 -227 335 -227 300 -227 c 0,12,13
 266 -227 266 -227 243 -204.5 c 128,-1,14
 220 -182 220 -182 220 -147 c 0,15,16
 220 -138 220 -138 222 -114 c 2,0,-1
292 426 m 2,17,-1
 309 426 l 2,18,19
 337 426 337 426 356 407 c 128,-1,20
 375 388 375 388 375 360 c 128,-1,21
 375 332 375 332 356 313 c 128,-1,22
 337 294 337 294 309 294 c 2,23,-1
 292 294 l 2,24,25
 264 294 264 294 244.5 313 c 128,-1,26
 225 332 225 332 225 360 c 128,-1,27
 225 388 225 388 244.5 407 c 128,-1,28
 264 426 264 426 292 426 c 2,17,-1
EndSplineSet
EndChar

StartChar: cent
Encoding: 162 162 99
Width: 600
GlyphClass: 2
Flags: W
LayerCount: 2
Fore
SplineSet
351 99 m 1,0,-1
 351 22 l 2,1,2
 351 -10 351 -10 342 -23 c 0,3,4
 326 -44 326 -44 301 -44 c 0,5,6
 274 -44 274 -44 258 -20 c 0,7,8
 251 -9 251 -9 251 22 c 2,9,-1
 251 103 l 1,10,11
 174 122 174 122 128.5 178.5 c 128,-1,12
 83 235 83 235 83 312 c 0,13,14
 83 385 83 385 130 442 c 128,-1,15
 177 499 177 499 251 517 c 1,16,-1
 251 594 l 2,17,18
 251 628 251 628 261 640 c 0,19,20
 276 661 276 661 301 661 c 0,21,22
 330 661 330 661 344 637 c 0,23,24
 351 626 351 626 351 594 c 2,25,-1
 351 527 l 1,26,27
 396 520 396 520 424 503 c 1,28,29
 436 507 436 507 444 507 c 0,30,31
 472 507 472 507 488 483 c 0,32,33
 495 472 495 472 495 441 c 2,34,-1
 495 399 l 2,35,36
 495 367 495 367 486 354 c 0,37,38
 470 333 470 333 445 333 c 0,39,40
 425 333 425 333 410 346 c 0,41,42
 403 354 403 354 395 384 c 0,43,44
 385 427 385 427 320 427 c 0,45,46
 261 427 261 427 222 393.5 c 128,-1,47
 183 360 183 360 183 310 c 0,48,49
 183 263 183 263 219.5 230 c 128,-1,50
 256 197 256 197 310 197 c 0,51,52
 366 197 366 197 415 233 c 0,53,54
 433 245 433 245 449 245 c 0,55,56
 469 245 469 245 484 229.5 c 128,-1,57
 499 214 499 214 499 194 c 0,58,59
 499 163 499 163 458 136.5 c 128,-1,60
 417 110 417 110 351 99 c 1,0,-1
EndSplineSet
EndChar

StartChar: sterling
Encoding: 163 163 100
Width: 600
GlyphClass: 2
Flags: W
LayerCount: 2
Fore
SplineSet
314 243 m 2,0,-1
 269 243 l 1,1,2
 270 231 270 231 270 216 c 0,3,4
 270 157 270 157 247 100 c 1,5,-1
 450 100 l 1,6,7
 456 146 456 146 499 146 c 0,8,9
 522 146 522 146 536 131 c 128,-1,10
 550 116 550 116 550 90 c 0,11,12
 550 46 550 46 522 23 c 128,-1,13
 494 0 494 0 442 0 c 2,14,-1
 121 0 l 2,15,16
 89 0 89 0 76 10 c 0,17,18
 55 25 55 25 55 51 c 0,19,20
 55 90 55 90 105 100 c 0,21,22
 138 107 138 107 150 132 c 0,23,24
 169 169 169 169 169 224 c 0,25,26
 169 235 169 235 168 243 c 1,27,-1
 99 243 l 2,28,29
 66 243 66 243 54 252 c 0,30,31
 33 268 33 268 33 293 c 0,32,33
 33 322 33 322 57 336 c 0,34,35
 68 343 68 343 99 343 c 2,36,-1
 143 343 l 1,37,38
 126 394 126 394 126 432 c 0,39,40
 126 505 126 505 174.5 551.5 c 128,-1,41
 223 598 223 598 299 598 c 0,42,43
 358 598 358 598 407.5 565.5 c 128,-1,44
 457 533 457 533 457 495 c 0,45,46
 457 474 457 474 442.5 459 c 128,-1,47
 428 444 428 444 408 444 c 0,48,49
 394 444 394 444 386 448.5 c 128,-1,50
 378 453 378 453 361 472 c 0,51,52
 338 498 338 498 298 498 c 0,53,54
 267 498 267 498 246.5 480.5 c 128,-1,55
 226 463 226 463 226 437 c 0,56,57
 226 414 226 414 246 343 c 1,58,-1
 314 343 l 2,59,60
 347 343 347 343 360 334 c 0,61,62
 381 318 381 318 381 293 c 0,63,64
 381 266 381 266 357 250 c 0,65,66
 344 243 344 243 314 243 c 2,0,-1
EndSplineSet
EndChar

StartChar: fraction
Encoding: 8260 8260 101
Width: 600
GlyphClass: 2
Flags: W
LayerCount: 2
Fore
SplineSet
543 398 m 2,0,-1
 112 119 l 2,1,2
 87 102 87 102 70 102 c 0,3,4
 51 102 51 102 36 118 c 128,-1,5
 21 134 21 134 21 154 c 0,6,7
 21 170 21 170 28.5 180 c 128,-1,8
 36 190 36 190 58 204 c 2,9,-1
 489 483 l 2,10,11
 514 500 514 500 531 500 c 0,12,13
 550 500 550 500 565 484.5 c 128,-1,14
 580 469 580 469 580 449 c 0,15,16
 580 433 580 433 572.5 422.5 c 128,-1,17
 565 412 565 412 543 398 c 2,0,-1
EndSplineSet
EndChar

StartChar: yen
Encoding: 165 165 102
Width: 600
GlyphClass: 2
Flags: W
LayerCount: 2
Fore
SplineSet
301 348 m 1,0,-1
 396 481 l 1,1,2
 355 492 355 492 355 530 c 0,3,4
 355 559 355 559 379 573 c 0,5,6
 390 580 390 580 422 580 c 2,7,-1
 513 580 l 2,8,9
 545 580 545 580 558 571 c 0,10,11
 579 555 579 555 579 530 c 0,12,13
 579 503 579 503 555 487 c 0,14,15
 551 485 551 485 535 482 c 128,-1,16
 519 479 519 479 515 480 c 1,17,-1
 514 480 l 1,18,-1
 375 281 l 1,19,-1
 447 281 l 2,20,21
 478 281 478 281 478 253 c 128,-1,22
 478 225 478 225 447 225 c 2,23,-1
 350 225 l 1,24,-1
 350 191 l 1,25,-1
 447 191 l 2,26,27
 478 191 478 191 478 163 c 128,-1,28
 478 135 478 135 447 135 c 2,29,-1
 350 135 l 1,30,-1
 350 100 l 1,31,-1
 397 100 l 2,32,33
 429 100 429 100 442 91 c 0,34,35
 463 76 463 76 463 50 c 0,36,37
 463 0 463 0 397 0 c 2,38,-1
 203 0 l 2,39,40
 169 0 169 0 158 10 c 0,41,42
 137 25 137 25 137 50 c 0,43,44
 137 79 137 79 161 93 c 0,45,46
 172 100 172 100 204 100 c 2,47,-1
 250 100 l 1,48,-1
 250 135 l 1,49,-1
 153 135 l 2,50,51
 122 135 122 135 122 163 c 128,-1,52
 122 191 122 191 153 191 c 2,53,-1
 250 191 l 1,54,-1
 250 225 l 1,55,-1
 153 225 l 2,56,57
 122 225 122 225 122 253 c 128,-1,58
 122 281 122 281 153 281 c 2,59,-1
 225 281 l 1,60,-1
 87 481 l 1,61,62
 85 480 85 480 82 480 c 0,63,64
 56 478 56 478 38.5 492.5 c 128,-1,65
 21 507 21 507 21 530 c 0,66,67
 21 559 21 559 45 573 c 0,68,69
 56 580 56 580 87 580 c 2,70,-1
 179 580 l 2,71,72
 212 580 212 580 226 570 c 0,73,74
 246 555 246 555 246 530 c 0,75,76
 246 512 246 512 235 498.5 c 128,-1,77
 224 485 224 485 207 482 c 1,78,-1
 301 348 l 1,0,-1
EndSplineSet
EndChar

StartChar: florin
Encoding: 402 402 103
Width: 600
GlyphClass: 2
Flags: W
LayerCount: 2
Fore
SplineSet
354 404 m 1,0,-1
 411 404 l 2,1,2
 446 404 446 404 457 395 c 0,3,4
 478 379 478 379 478 354 c 0,5,6
 478 325 478 325 454 311 c 0,7,8
 443 304 443 304 411 304 c 2,9,-1
 354 304 l 1,10,-1
 354 66 l 2,11,12
 354 -14 354 -14 303.5 -68.5 c 128,-1,13
 253 -123 253 -123 179 -123 c 0,14,15
 121 -123 121 -123 89 -106 c 128,-1,16
 57 -89 57 -89 57 -59 c 0,17,18
 57 -39 57 -39 71.5 -24 c 128,-1,19
 86 -9 86 -9 105 -9 c 0,20,21
 111 -9 111 -9 128 -15 c 0,22,23
 154 -23 154 -23 176 -23 c 0,24,25
 211 -23 211 -23 232.5 1.5 c 128,-1,26
 254 26 254 26 254 66 c 2,27,-1
 254 304 l 1,28,-1
 197 304 l 2,29,30
 163 304 163 304 151 313 c 0,31,32
 130 329 130 329 130 354 c 0,33,34
 130 383 130 383 154 397 c 0,35,36
 165 404 165 404 197 404 c 2,37,-1
 254 404 l 1,38,-1
 254 459 l 2,39,40
 254 533 254 533 305 585.5 c 128,-1,41
 356 638 356 638 428 638 c 0,42,43
 484 638 484 638 516 622 c 128,-1,44
 548 606 548 606 548 577 c 0,45,46
 548 555 548 555 534 539.5 c 128,-1,47
 520 524 520 524 500 524 c 0,48,49
 491 524 491 524 476 529 c 0,50,51
 452 538 452 538 427 538 c 0,52,53
 397 538 397 538 375.5 514 c 128,-1,54
 354 490 354 490 354 456 c 2,55,-1
 354 404 l 1,0,-1
EndSplineSet
EndChar

StartChar: section
Encoding: 167 167 104
Width: 600
GlyphClass: 2
Flags: W
LayerCount: 2
Fore
SplineSet
431 493 m 1,0,-1
 287 493 l 2,1,2
 258 493 258 493 237.5 477.5 c 128,-1,3
 217 462 217 462 217 440 c 0,4,5
 217 403 217 403 324 342 c 2,6,-1
 416 291 l 2,7,8
 503 242 503 242 533.5 209 c 128,-1,9
 564 176 564 176 564 129 c 0,10,11
 564 83 564 83 537.5 52 c 128,-1,12
 511 21 511 21 462 10 c 1,13,14
 467 -11 467 -11 467 -28 c 0,15,16
 467 -79 467 -79 429 -123 c 0,17,18
 386 -170 386 -170 312 -170 c 2,19,-1
 81 -170 l 1,20,-1
 81 -43 l 2,21,22
 81 12 81 12 125 12 c 0,23,24
 150 12 150 12 163 -9 c 0,25,26
 169 -17 169 -17 169 -43 c 2,27,-1
 169 -82 l 1,28,-1
 314 -82 l 2,29,30
 341 -82 341 -82 361 -66 c 128,-1,31
 381 -50 381 -50 381 -29 c 0,32,33
 381 10 381 10 276 69 c 2,34,-1
 170 130 l 2,35,36
 95 173 95 173 65.5 206.5 c 128,-1,37
 36 240 36 240 36 283 c 0,38,39
 36 374 36 374 137 402 c 1,40,41
 132 417 132 417 132 432 c 0,42,43
 132 491 132 491 174 535 c 0,44,45
 218 583 218 583 294 583 c 2,46,-1
 519 583 l 1,47,-1
 519 456 l 2,48,49
 519 428 519 428 511 419 c 0,50,51
 498 401 498 401 475 401 c 0,52,53
 450 401 450 401 437 421 c 0,54,55
 431 431 431 431 431 456 c 2,56,-1
 431 493 l 1,0,-1
371 214 m 2,57,-1
 272 271 l 2,58,59
 234 292 234 292 192 326 c 1,60,61
 132 326 132 326 132 292 c 0,62,63
 132 255 132 255 218 205 c 2,64,-1
 321 147 l 2,65,66
 386 107 386 107 407 88 c 1,67,-1
 413 88 l 1,68,-1
 424 88 l 2,69,70
 443 89 443 89 455.5 98 c 128,-1,71
 468 107 468 107 468 121 c 0,72,73
 468 158 468 158 371 214 c 2,57,-1
EndSplineSet
EndChar

StartChar: currency
Encoding: 164 164 105
Width: 600
GlyphClass: 2
Flags: W
LayerCount: 2
Fore
SplineSet
131 388 m 1,0,-1
 98 420 l 2,1,2
 73 445 73 445 73 469 c 0,3,4
 73 489 73 489 88 504 c 128,-1,5
 103 519 103 519 124 519 c 0,6,7
 144 519 144 519 171 493 c 2,8,-1
 203 462 l 1,9,10
 251 488 251 488 300 488 c 0,11,12
 347 488 347 488 397 461 c 1,13,-1
 428 491 l 2,14,15
 454 517 454 517 475 517 c 128,-1,16
 496 517 496 517 511 502 c 128,-1,17
 526 487 526 487 526 466 c 0,18,19
 526 453 526 453 521.5 445 c 128,-1,20
 517 437 517 437 500 420 c 2,21,-1
 469 388 l 1,22,23
 494 339 494 339 494 292 c 0,24,25
 494 244 494 244 468 196 c 1,26,-1
 501 162 l 2,27,28
 527 136 527 136 527 116 c 0,29,30
 527 95 527 95 511.5 79.5 c 128,-1,31
 496 64 496 64 475 64 c 0,32,33
 462 64 462 64 454 68.5 c 128,-1,34
 446 73 446 73 429 90 c 2,35,-1
 395 122 l 1,36,37
 348 97 348 97 300 97 c 128,-1,38
 252 97 252 97 204 123 c 1,39,-1
 171 91 l 2,40,41
 154 74 154 74 145.5 69 c 128,-1,42
 137 64 137 64 124 64 c 0,43,44
 103 64 103 64 88 79 c 128,-1,45
 73 94 73 94 73 115 c 0,46,47
 73 135 73 135 99 162 c 2,48,-1
 131 196 l 1,49,50
 106 245 106 245 106 292 c 0,51,52
 106 341 106 341 131 388 c 1,0,-1
300 388 m 0,53,54
 261 388 261 388 233.5 360.5 c 128,-1,55
 206 333 206 333 206 293 c 0,56,57
 206 254 206 254 234 225.5 c 128,-1,58
 262 197 262 197 300 197 c 128,-1,59
 338 197 338 197 366 225.5 c 128,-1,60
 394 254 394 254 394 292 c 0,61,62
 394 333 394 333 367 360.5 c 128,-1,63
 340 388 340 388 300 388 c 0,53,54
EndSplineSet
EndChar

StartChar: quotesingle
Encoding: 39 39 106
Width: 600
GlyphClass: 2
Flags: W
LayerCount: 2
Fore
SplineSet
236 602 m 1,0,-1
 364 602 l 1,1,-1
 333 348 l 2,2,3
 330 328 330 328 323 320 c 128,-1,4
 316 312 316 312 301 312 c 0,5,6
 274 312 274 312 270 347 c 2,7,-1
 236 602 l 1,0,-1
EndSplineSet
EndChar

StartChar: quotedblleft
Encoding: 8220 8220 107
Width: 600
GlyphClass: 2
Flags: W
LayerCount: 2
Fore
SplineSet
430 602 m 1,0,-1
 499 395 l 2,1,2
 502 380 502 380 502 376 c 0,3,4
 502 365 502 365 492.5 356.5 c 128,-1,5
 483 348 483 348 471 348 c 0,6,7
 454 348 454 348 439 372 c 2,8,-1
 298 602 l 1,9,-1
 430 602 l 1,0,-1
230 602 m 1,10,-1
 299 395 l 2,11,12
 302 380 302 380 302 376 c 0,13,14
 302 365 302 365 292.5 356.5 c 128,-1,15
 283 348 283 348 271 348 c 0,16,17
 254 348 254 348 239 372 c 2,18,-1
 98 602 l 1,19,-1
 230 602 l 1,10,-1
EndSplineSet
EndChar

StartChar: guillemotleft
Encoding: 171 171 108
Width: 600
GlyphClass: 2
Flags: W
LayerCount: 2
Fore
SplineSet
175 218 m 1,0,-1
 326 77 l 2,1,2
 342 62 342 62 342 50 c 128,-1,3
 342 38 342 38 332 29 c 128,-1,4
 322 20 322 20 309 20 c 0,5,6
 298 20 298 20 281 33 c 2,7,-1
 33 218 l 1,8,-1
 281 402 l 2,9,10
 298 415 298 415 310 415 c 0,11,12
 323 415 323 415 332.5 406 c 128,-1,13
 342 397 342 397 342 385 c 0,14,15
 342 371 342 371 326 358 c 2,16,-1
 175 218 l 1,0,-1
404 218 m 1,17,-1
 555 77 l 2,18,19
 571 62 571 62 571 50 c 128,-1,20
 571 38 571 38 561 29 c 128,-1,21
 551 20 551 20 538 20 c 0,22,23
 527 20 527 20 510 33 c 2,24,-1
 262 218 l 1,25,-1
 510 402 l 2,26,27
 527 415 527 415 539 415 c 0,28,29
 552 415 552 415 561.5 406 c 128,-1,30
 571 397 571 397 571 385 c 0,31,32
 571 371 571 371 555 358 c 2,33,-1
 404 218 l 1,17,-1
EndSplineSet
EndChar

StartChar: guilsinglleft
Encoding: 8249 8249 109
Width: 600
GlyphClass: 2
Flags: W
LayerCount: 2
Fore
SplineSet
175 218 m 1,0,-1
 326 77 l 2,1,2
 342 62 342 62 342 50 c 128,-1,3
 342 38 342 38 332 29 c 128,-1,4
 322 20 322 20 309 20 c 0,5,6
 298 20 298 20 281 33 c 2,7,-1
 33 218 l 1,8,-1
 281 402 l 2,9,10
 298 415 298 415 310 415 c 0,11,12
 323 415 323 415 332.5 406 c 128,-1,13
 342 397 342 397 342 385 c 0,14,15
 342 371 342 371 326 358 c 2,16,-1
 175 218 l 1,0,-1
EndSplineSet
EndChar

StartChar: guilsinglright
Encoding: 8250 8250 110
Width: 600
GlyphClass: 2
Flags: W
LayerCount: 2
Fore
SplineSet
430 217 m 1,0,-1
 279 358 l 2,1,2
 263 373 263 373 263 385 c 128,-1,3
 263 397 263 397 273 406 c 128,-1,4
 283 415 283 415 296 415 c 0,5,6
 307 415 307 415 324 402 c 2,7,-1
 571 217 l 1,8,-1
 324 33 l 2,9,10
 307 20 307 20 295 20 c 0,11,12
 282 20 282 20 272.5 29 c 128,-1,13
 263 38 263 38 263 50 c 0,14,15
 263 64 263 64 279 77 c 2,16,-1
 430 217 l 1,0,-1
EndSplineSet
EndChar

StartChar: fi
Encoding: 64257 64257 111
Width: 600
GlyphClass: 3
Flags: W
LayerCount: 2
Fore
SplineSet
195 337 m 1,0,-1
 195 100 l 1,1,-1
 228 100 l 2,2,3
 260 100 260 100 273 91 c 0,4,5
 294 75 294 75 294 50 c 0,6,7
 294 23 294 23 270 7 c 0,8,9
 258 0 258 0 228 0 c 2,10,-1
 53 0 l 2,11,12
 20 0 20 0 7 10 c 0,13,14
 -14 25 -14 25 -14 50 c 0,15,16
 -14 79 -14 79 10 93 c 0,17,18
 20 100 20 100 53 100 c 2,19,-1
 95 100 l 1,20,-1
 95 337 l 1,21,-1
 57 337 l 2,22,23
 23 337 23 337 11 347 c 0,24,25
 -10 362 -10 362 -10 387 c 0,26,27
 -10 416 -10 416 14 430 c 0,28,29
 25 437 25 437 57 437 c 2,30,-1
 95 437 l 1,31,-1
 95 476 l 2,32,33
 95 538 95 538 134.5 580.5 c 128,-1,34
 174 623 174 623 231 623 c 0,35,36
 293 623 293 623 330 599 c 0,37,38
 352 585 352 585 352 559 c 0,39,40
 352 538 352 538 337.5 523 c 128,-1,41
 323 508 323 508 303 508 c 0,42,43
 293 508 293 508 273 515 c 0,44,45
 249 524 249 524 234 524 c 0,46,47
 218 524 218 524 206.5 509.5 c 128,-1,48
 195 495 195 495 195 476 c 2,49,-1
 195 437 l 1,50,-1
 228 437 l 2,51,52
 260 437 260 437 273 428 c 0,53,54
 294 412 294 412 294 387 c 0,55,56
 294 360 294 360 270 344 c 0,57,58
 259 337 259 337 228 337 c 2,59,-1
 195 337 l 1,0,-1
517 437 m 1,60,-1
 517 100 l 1,61,-1
 553 100 l 2,62,63
 586 100 586 100 599 91 c 0,64,65
 619 76 619 76 619 50 c 0,66,67
 619 21 619 21 595 7 c 0,68,69
 583 0 583 0 553 0 c 2,70,-1
 379 0 l 2,71,72
 346 0 346 0 333 10 c 0,73,74
 312 25 312 25 312 50 c 0,75,76
 312 79 312 79 336 93 c 0,77,78
 346 100 346 100 379 100 c 2,79,-1
 417 100 l 1,80,-1
 417 337 l 1,81,-1
 397 337 l 2,82,83
 364 337 364 337 352 347 c 0,84,85
 331 362 331 362 331 387 c 0,86,87
 331 416 331 416 355 430 c 0,88,89
 366 437 366 437 397 437 c 2,90,-1
 517 437 l 1,60,-1
500 624 m 1,91,-1
 500 519 l 1,92,-1
 382 519 l 1,93,-1
 382 624 l 1,94,-1
 500 624 l 1,91,-1
EndSplineSet
Ligature2: "'liga' Standard Ligatures in Latin lookup 0 subtable" f i
EndChar

StartChar: fl
Encoding: 64258 64258 112
Width: 600
GlyphClass: 3
Flags: W
LayerCount: 2
Fore
SplineSet
192 337 m 1,0,-1
 192 100 l 1,1,-1
 225 100 l 2,2,3
 258 100 258 100 270 91 c 0,4,5
 291 75 291 75 291 50 c 0,6,7
 291 23 291 23 267 7 c 0,8,9
 255 0 255 0 225 0 c 2,10,-1
 49 0 l 2,11,12
 16 0 16 0 3 10 c 0,13,14
 -17 25 -17 25 -17 50 c 0,15,16
 -17 79 -17 79 7 93 c 0,17,18
 17 100 17 100 49 100 c 2,19,-1
 92 100 l 1,20,-1
 92 337 l 1,21,-1
 55 337 l 2,22,23
 22 337 22 337 9 347 c 0,24,25
 -12 362 -12 362 -12 387 c 0,26,27
 -12 416 -12 416 12 430 c 0,28,29
 22 437 22 437 55 437 c 2,30,-1
 92 437 l 1,31,-1
 92 475 l 2,32,33
 92 536 92 536 131 579.5 c 128,-1,34
 170 623 170 623 225 623 c 0,35,36
 289 623 289 623 334 595 c 1,37,38
 349 623 349 623 383 623 c 2,39,-1
 513 623 l 1,40,-1
 513 100 l 1,41,-1
 550 100 l 2,42,43
 583 100 583 100 596 91 c 0,44,45
 617 75 617 75 617 50 c 0,46,47
 617 21 617 21 593 7 c 0,48,49
 581 0 581 0 550 0 c 2,50,-1
 375 0 l 2,51,52
 342 0 342 0 329 10 c 0,53,54
 308 25 308 25 308 50 c 0,55,56
 308 77 308 77 332 93 c 0,57,58
 342 100 342 100 375 100 c 2,59,-1
 413 100 l 1,60,-1
 413 523 l 1,61,-1
 379 523 l 2,62,63
 360 523 360 523 343 535 c 1,64,65
 328 508 328 508 303 508 c 0,66,67
 294 508 294 508 274 514 c 0,68,69
 247 523 247 523 232 523 c 0,70,71
 192 523 192 523 192 475 c 2,72,-1
 192 437 l 1,73,-1
 225 437 l 2,74,75
 257 437 257 437 270 428 c 0,76,77
 291 412 291 412 291 387 c 0,78,79
 291 360 291 360 267 344 c 0,80,81
 256 337 256 337 225 337 c 2,82,-1
 192 337 l 1,0,-1
EndSplineSet
Ligature2: "'liga' Standard Ligatures in Latin lookup 0 subtable" f l
EndChar

StartChar: endash
Encoding: 8211 8211 113
Width: 600
GlyphClass: 2
Flags: W
LayerCount: 2
Fore
SplineSet
492 229 m 2,0,-1
 108 229 l 2,1,2
 75 229 75 229 63 238 c 0,3,4
 42 254 42 254 42 279 c 0,5,6
 42 306 42 306 66 322 c 0,7,8
 76 329 76 329 108 329 c 2,9,-1
 492 329 l 2,10,11
 525 329 525 329 538 320 c 0,12,13
 558 305 558 305 558 279 c 0,14,15
 558 250 558 250 534 236 c 0,16,17
 523 229 523 229 492 229 c 2,0,-1
EndSplineSet
EndChar

StartChar: dagger
Encoding: 8224 8224 114
Width: 600
GlyphClass: 2
Flags: W
LayerCount: 2
Fore
SplineSet
350 337 m 1,0,-1
 350 -26 l 2,1,2
 350 -58 350 -58 341 -71 c 0,3,4
 325 -92 325 -92 300 -92 c 0,5,6
 273 -92 273 -92 257 -68 c 0,7,8
 250 -57 250 -57 250 -26 c 2,9,-1
 250 337 l 1,10,-1
 160 337 l 2,11,12
 127 337 127 337 114 346 c 0,13,14
 94 363 94 363 94 387 c 0,15,16
 94 416 94 416 118 430 c 0,17,18
 129 437 129 437 160 437 c 2,19,-1
 250 437 l 1,20,-1
 250 556 l 2,21,22
 250 590 250 590 260 601 c 0,23,24
 275 622 275 622 300 622 c 0,25,26
 329 622 329 622 343 598 c 0,27,28
 350 588 350 588 350 556 c 2,29,-1
 350 437 l 1,30,-1
 439 437 l 2,31,32
 472 437 472 437 485 428 c 0,33,34
 506 412 506 412 506 387 c 0,35,36
 506 360 506 360 482 344 c 0,37,38
 469 337 469 337 439 337 c 2,39,-1
 350 337 l 1,0,-1
EndSplineSet
EndChar

StartChar: daggerdbl
Encoding: 8225 8225 115
Width: 600
GlyphClass: 2
Flags: W
LayerCount: 2
Fore
SplineSet
350 337 m 1,0,-1
 350 193 l 1,1,-1
 439 193 l 2,2,3
 472 193 472 193 485 184 c 0,4,5
 506 168 506 168 506 143 c 0,6,7
 506 114 506 114 482 100 c 0,8,9
 472 93 472 93 439 93 c 2,10,-1
 350 93 l 1,11,-1
 350 -26 l 2,12,13
 350 -58 350 -58 341 -71 c 0,14,15
 325 -92 325 -92 300 -92 c 0,16,17
 273 -92 273 -92 257 -68 c 0,18,19
 250 -57 250 -57 250 -26 c 2,20,-1
 250 93 l 1,21,-1
 160 93 l 2,22,23
 128 93 128 93 114 102 c 0,24,25
 94 119 94 119 94 143 c 0,26,27
 94 172 94 172 118 186 c 0,28,29
 129 193 129 193 160 193 c 2,30,-1
 250 193 l 1,31,-1
 250 337 l 1,32,-1
 160 337 l 2,33,34
 127 337 127 337 114 346 c 0,35,36
 94 363 94 363 94 387 c 0,37,38
 94 416 94 416 118 430 c 0,39,40
 129 437 129 437 160 437 c 2,41,-1
 250 437 l 1,42,-1
 250 556 l 2,43,44
 250 590 250 590 260 601 c 0,45,46
 275 622 275 622 300 622 c 0,47,48
 329 622 329 622 343 598 c 0,49,50
 350 588 350 588 350 556 c 2,51,-1
 350 437 l 1,52,-1
 439 437 l 2,53,54
 472 437 472 437 485 428 c 0,55,56
 506 412 506 412 506 387 c 0,57,58
 506 360 506 360 482 344 c 0,59,60
 469 337 469 337 439 337 c 2,61,-1
 350 337 l 1,0,-1
EndSplineSet
EndChar

StartChar: periodcentered
Encoding: 183 183 116
Width: 600
GlyphClass: 2
Flags: W
LayerCount: 2
Fore
SplineSet
309 214 m 2,0,-1
 291 214 l 2,1,2
 264 214 264 214 244.5 233.5 c 128,-1,3
 225 253 225 253 225 280 c 128,-1,4
 225 307 225 307 244.5 326.5 c 128,-1,5
 264 346 264 346 291 346 c 2,6,-1
 309 346 l 2,7,8
 337 346 337 346 356 327 c 128,-1,9
 375 308 375 308 375 280 c 128,-1,10
 375 252 375 252 356 233 c 128,-1,11
 337 214 337 214 309 214 c 2,0,-1
EndSplineSet
EndChar

StartChar: paragraph
Encoding: 182 182 117
Width: 600
GlyphClass: 2
Flags: W
LayerCount: 2
Fore
SplineSet
468 505 m 1,0,-1
 468 -96 l 1,1,-1
 504 -96 l 2,2,3
 558 -96 558 -96 558 -135 c 128,-1,4
 558 -174 558 -174 504 -174 c 2,5,-1
 411 -174 l 2,6,7
 383 -174 383 -174 371 -140 c 1,8,9
 363 -161 363 -161 354.5 -167.5 c 128,-1,10
 346 -174 346 -174 328 -174 c 2,11,-1
 191 -174 l 2,12,13
 138 -174 138 -174 138 -135 c 0,14,15
 138 -114 138 -114 157 -102 c 0,16,17
 167 -96 167 -96 191 -96 c 2,18,-1
 270 -96 l 1,19,-1
 270 185 l 1,20,21
 173 195 173 195 111 244.5 c 128,-1,22
 49 294 49 294 49 361 c 2,23,-1
 49 407 l 2,24,25
 49 480 49 480 124 531.5 c 128,-1,26
 199 583 199 583 305 583 c 2,27,-1
 502 583 l 2,28,29
 556 583 556 583 556 544 c 128,-1,30
 556 505 556 505 502 505 c 2,31,-1
 468 505 l 1,0,-1
270 266 m 1,32,-1
 270 500 l 1,33,34
 220 489 220 489 191 464 c 128,-1,35
 162 439 162 439 162 405 c 2,36,-1
 162 361 l 2,37,38
 162 327 162 327 191 302 c 128,-1,39
 220 277 220 277 270 266 c 1,32,-1
392 505 m 1,40,-1
 348 505 l 1,41,-1
 348 -96 l 1,42,43
 365 -104 365 -104 371 -124 c 1,44,45
 376 -105 376 -105 392 -96 c 1,46,-1
 392 505 l 1,40,-1
EndSplineSet
EndChar

StartChar: bullet
Encoding: 8226 8226 118
Width: 600
GlyphClass: 2
Flags: W
LayerCount: 2
Fore
SplineSet
299 453 m 0,0,1
 362 453 362 453 405.5 409.5 c 128,-1,2
 449 366 449 366 449 302 c 0,3,4
 449 241 449 241 405 197.5 c 128,-1,5
 361 154 361 154 299 154 c 128,-1,6
 237 154 237 154 193.5 198 c 128,-1,7
 150 242 150 242 150 304 c 128,-1,8
 150 366 150 366 194 409.5 c 128,-1,9
 238 453 238 453 299 453 c 0,0,1
EndSplineSet
EndChar

StartChar: quotesinglbase
Encoding: 8218 8218 119
Width: 600
GlyphClass: 2
Flags: W
LayerCount: 2
Fore
SplineSet
219 134 m 1,0,-1
 351 134 l 1,1,-1
 210 -134 l 2,2,3
 198 -158 198 -158 178 -158 c 0,4,5
 165 -158 165 -158 156 -149.5 c 128,-1,6
 147 -141 147 -141 147 -130 c 0,7,8
 147 -122 147 -122 150 -111 c 2,9,-1
 219 134 l 1,0,-1
EndSplineSet
EndChar

StartChar: quotedblbase
Encoding: 8222 8222 120
Width: 600
GlyphClass: 2
Flags: W
LayerCount: 2
Fore
SplineSet
159 134 m 1,0,-1
 291 134 l 1,1,-1
 150 -96 l 2,2,3
 135 -120 135 -120 118 -120 c 0,4,5
 106 -120 106 -120 96.5 -111.5 c 128,-1,6
 87 -103 87 -103 87 -92 c 0,7,8
 87 -82 87 -82 90 -73 c 2,9,-1
 159 134 l 1,0,-1
359 134 m 1,10,-1
 491 134 l 1,11,-1
 350 -96 l 2,12,13
 335 -120 335 -120 318 -120 c 0,14,15
 306 -120 306 -120 296.5 -111.5 c 128,-1,16
 287 -103 287 -103 287 -92 c 0,17,18
 287 -82 287 -82 290 -73 c 2,19,-1
 359 134 l 1,10,-1
EndSplineSet
EndChar

StartChar: quotedblright
Encoding: 8221 8221 121
Width: 600
GlyphClass: 2
Flags: W
LayerCount: 2
Fore
SplineSet
159 602 m 1,0,-1
 291 602 l 1,1,-1
 150 372 l 2,2,3
 135 348 135 348 118 348 c 0,4,5
 106 348 106 348 96.5 356.5 c 128,-1,6
 87 365 87 365 87 376 c 0,7,8
 87 386 87 386 90 395 c 2,9,-1
 159 602 l 1,0,-1
359 602 m 1,10,-1
 491 602 l 1,11,-1
 350 372 l 2,12,13
 335 348 335 348 318 348 c 0,14,15
 306 348 306 348 296.5 356.5 c 128,-1,16
 287 365 287 365 287 376 c 0,17,18
 287 386 287 386 290 395 c 2,19,-1
 359 602 l 1,10,-1
EndSplineSet
EndChar

StartChar: guillemotright
Encoding: 187 187 122
Width: 600
GlyphClass: 2
Flags: W
LayerCount: 2
Fore
SplineSet
430 217 m 1,0,-1
 279 358 l 2,1,2
 263 373 263 373 263 385 c 128,-1,3
 263 397 263 397 273 406 c 128,-1,4
 283 415 283 415 296 415 c 0,5,6
 307 415 307 415 324 402 c 2,7,-1
 571 217 l 1,8,-1
 324 33 l 2,9,10
 307 20 307 20 295 20 c 0,11,12
 282 20 282 20 272.5 29 c 128,-1,13
 263 38 263 38 263 50 c 0,14,15
 263 64 263 64 279 77 c 2,16,-1
 430 217 l 1,0,-1
200 217 m 1,17,-1
 49 358 l 2,18,19
 33 373 33 373 33 385 c 128,-1,20
 33 397 33 397 43 406 c 128,-1,21
 53 415 53 415 66 415 c 0,22,23
 77 415 77 415 94 402 c 2,24,-1
 341 217 l 1,25,-1
 94 33 l 2,26,27
 77 20 77 20 65 20 c 0,28,29
 52 20 52 20 42.5 29 c 128,-1,30
 33 38 33 38 33 50 c 0,31,32
 33 64 33 64 49 77 c 2,33,-1
 200 217 l 1,17,-1
EndSplineSet
EndChar

StartChar: ellipsis
Encoding: 8230 8230 123
Width: 600
GlyphClass: 2
Flags: W
LayerCount: 2
Fore
SplineSet
109 -15 m 2,0,-1
 91 -15 l 2,1,2
 64 -15 64 -15 44.5 4.5 c 128,-1,3
 25 24 25 24 25 51 c 128,-1,4
 25 78 25 78 44.5 97.5 c 128,-1,5
 64 117 64 117 91 117 c 2,6,-1
 109 117 l 2,7,8
 137 117 137 117 156 98 c 128,-1,9
 175 79 175 79 175 51 c 128,-1,10
 175 23 175 23 156 4 c 128,-1,11
 137 -15 137 -15 109 -15 c 2,0,-1
309 -15 m 2,12,-1
 291 -15 l 2,13,14
 264 -15 264 -15 244.5 4.5 c 128,-1,15
 225 24 225 24 225 51 c 128,-1,16
 225 78 225 78 244.5 97.5 c 128,-1,17
 264 117 264 117 291 117 c 2,18,-1
 309 117 l 2,19,20
 337 117 337 117 356 98 c 128,-1,21
 375 79 375 79 375 51 c 128,-1,22
 375 23 375 23 356 4 c 128,-1,23
 337 -15 337 -15 309 -15 c 2,12,-1
509 -15 m 2,24,-1
 491 -15 l 2,25,26
 464 -15 464 -15 444.5 4.5 c 128,-1,27
 425 24 425 24 425 51 c 128,-1,28
 425 78 425 78 444.5 97.5 c 128,-1,29
 464 117 464 117 491 117 c 2,30,-1
 509 117 l 2,31,32
 537 117 537 117 556 98 c 128,-1,33
 575 79 575 79 575 51 c 128,-1,34
 575 23 575 23 556 4 c 128,-1,35
 537 -15 537 -15 509 -15 c 2,24,-1
EndSplineSet
EndChar

StartChar: perthousand
Encoding: 8240 8240 124
Width: 600
GlyphClass: 2
Flags: W
LayerCount: 2
Fore
SplineSet
469 377 m 2,0,-1
 104 259 l 2,1,2
 92 255 92 255 85 255 c 0,3,4
 74 255 74 255 65 265 c 128,-1,5
 56 275 56 275 56 288 c 0,6,7
 56 309 56 309 85 319 c 2,8,-1
 450 436 l 2,9,10
 462 440 462 440 469 440 c 0,11,12
 480 440 480 440 489 430.5 c 128,-1,13
 498 421 498 421 498 408 c 0,14,15
 498 387 498 387 469 377 c 2,0,-1
116 618 m 0,16,17
 165 618 165 618 198.5 584 c 128,-1,18
 232 550 232 550 232 501 c 0,19,20
 232 454 232 454 197.5 420 c 128,-1,21
 163 386 163 386 116 386 c 0,22,23
 68 386 68 386 34 420 c 128,-1,24
 0 454 0 454 0 502 c 128,-1,25
 0 550 0 550 34 584 c 128,-1,26
 68 618 68 618 116 618 c 0,16,17
116 560 m 128,-1,28
 92 560 92 560 75 543 c 128,-1,29
 58 526 58 526 58 502 c 128,-1,30
 58 478 58 478 75 461 c 128,-1,31
 92 444 92 444 116 444 c 0,32,33
 139 444 139 444 156.5 461 c 128,-1,34
 174 478 174 478 174 501 c 0,35,36
 174 526 174 526 157 543 c 128,-1,27
 140 560 140 560 116 560 c 128,-1,28
214 232 m 0,37,38
 263 232 263 232 296.5 198 c 128,-1,39
 330 164 330 164 330 115 c 0,40,41
 330 68 330 68 295.5 34 c 128,-1,42
 261 0 261 0 214 0 c 0,43,44
 166 0 166 0 132 34 c 128,-1,45
 98 68 98 68 98 116 c 128,-1,46
 98 164 98 164 132 198 c 128,-1,47
 166 232 166 232 214 232 c 0,37,38
214 174 m 128,-1,49
 190 174 190 174 173 157 c 128,-1,50
 156 140 156 140 156 116 c 128,-1,51
 156 92 156 92 173 75 c 128,-1,52
 190 58 190 58 214 58 c 0,53,54
 237 58 237 58 254.5 75 c 128,-1,55
 272 92 272 92 272 115 c 0,56,57
 272 140 272 140 255 157 c 128,-1,48
 238 174 238 174 214 174 c 128,-1,49
484 232 m 0,58,59
 533 232 533 232 566.5 198 c 128,-1,60
 600 164 600 164 600 115 c 0,61,62
 600 68 600 68 565.5 34 c 128,-1,63
 531 0 531 0 484 0 c 0,64,65
 436 0 436 0 402 34 c 128,-1,66
 368 68 368 68 368 116 c 128,-1,67
 368 164 368 164 402 198 c 128,-1,68
 436 232 436 232 484 232 c 0,58,59
484 174 m 128,-1,70
 460 174 460 174 443 157 c 128,-1,71
 426 140 426 140 426 116 c 128,-1,72
 426 92 426 92 443 75 c 128,-1,73
 460 58 460 58 484 58 c 0,74,75
 507 58 507 58 524.5 75 c 128,-1,76
 542 92 542 92 542 115 c 0,77,78
 542 140 542 140 525 157 c 128,-1,69
 508 174 508 174 484 174 c 128,-1,70
EndSplineSet
EndChar

StartChar: questiondown
Encoding: 191 191 125
Width: 600
GlyphClass: 2
Flags: W
LayerCount: 2
Fore
SplineSet
496 -89 m 2,0,-1
 496 -168 l 1,1,2
 424 -203 424 -203 382 -215 c 128,-1,3
 340 -227 340 -227 292 -227 c 0,4,5
 199 -227 199 -227 141 -174.5 c 128,-1,6
 83 -122 83 -122 83 -38 c 0,7,8
 83 23 83 23 119.5 63 c 128,-1,9
 156 103 156 103 247 143 c 1,10,11
 253 197 253 197 297 197 c 0,12,13
 326 197 326 197 340 173 c 0,14,15
 347 160 347 160 347 131 c 2,16,-1
 347 75 l 1,17,18
 251 38 251 38 217 13.5 c 128,-1,19
 183 -11 183 -11 183 -43 c 0,20,21
 183 -80 183 -80 213 -103.5 c 128,-1,22
 243 -127 243 -127 291 -127 c 0,23,24
 346 -127 346 -127 396 -103 c 1,25,-1
 396 -89 l 2,26,27
 396 -57 396 -57 405 -44 c 0,28,29
 421 -23 421 -23 446 -23 c 0,30,31
 474 -23 474 -23 489 -47 c 0,32,33
 496 -58 496 -58 496 -89 c 2,0,-1
289 386 m 2,34,-1
 306 386 l 2,35,36
 334 386 334 386 353.5 366.5 c 128,-1,37
 373 347 373 347 373 320 c 128,-1,38
 373 293 373 293 353.5 273.5 c 128,-1,39
 334 254 334 254 306 254 c 2,40,-1
 289 254 l 2,41,42
 261 254 261 254 242 273 c 128,-1,43
 223 292 223 292 223 320 c 128,-1,44
 223 348 223 348 242 367 c 128,-1,45
 261 386 261 386 289 386 c 2,34,-1
EndSplineSet
EndChar

StartChar: grave
Encoding: 96 96 126
Width: 600
GlyphClass: 2
Flags: W
LayerCount: 2
Fore
SplineSet
194 680 m 2,0,-1
 327 569 l 2,1,2
 350 550 350 550 350 532 c 0,3,4
 350 518 350 518 339 507 c 128,-1,5
 328 496 328 496 313 496 c 0,6,7
 301 496 301 496 281 512 c 2,8,-1
 148 624 l 2,9,10
 125 642 125 642 125 660 c 0,11,12
 125 675 125 675 135.5 685.5 c 128,-1,13
 146 696 146 696 162 696 c 0,14,15
 174 696 174 696 194 680 c 2,0,-1
EndSplineSet
EndChar

StartChar: acute
Encoding: 180 180 127
Width: 600
GlyphClass: 2
Flags: W
LayerCount: 2
Fore
SplineSet
452 624 m 2,0,-1
 319 512 l 2,1,2
 299 496 299 496 287 496 c 0,3,4
 272 496 272 496 261 507 c 128,-1,5
 250 518 250 518 250 532 c 0,6,7
 250 550 250 550 273 569 c 2,8,-1
 406 680 l 2,9,10
 426 696 426 696 438 696 c 0,11,12
 454 696 454 696 464.5 685.5 c 128,-1,13
 475 675 475 675 475 659 c 0,14,15
 475 642 475 642 452 624 c 2,0,-1
EndSplineSet
EndChar

StartChar: circumflex
Encoding: 710 710 128
Width: 600
GlyphClass: 2
Flags: W
LayerCount: 2
Fore
SplineSet
301 607 m 1,0,-1
 188 510 l 2,1,2
 172 497 172 497 160 497 c 0,3,4
 146 497 146 497 135.5 507.5 c 128,-1,5
 125 518 125 518 125 532 c 0,6,7
 125 543 125 543 129 548.5 c 128,-1,8
 133 554 133 554 149 567 c 2,9,-1
 301 696 l 1,10,-1
 452 567 l 2,11,12
 458 563 458 563 461 560 c 0,13,14
 476 548 476 548 476 532 c 0,15,16
 476 518 476 518 465.5 507.5 c 128,-1,17
 455 497 455 497 442 497 c 128,-1,18
 429 497 429 497 413 510 c 2,19,-1
 301 607 l 1,0,-1
EndSplineSet
EndChar

StartChar: tilde
Encoding: 732 732 129
Width: 600
GlyphClass: 2
Flags: W
LayerCount: 2
Fore
SplineSet
453 656 m 0,0,1
 466 656 466 656 475.5 647.5 c 128,-1,2
 485 639 485 639 485 628 c 0,3,4
 485 608 485 608 456 571 c 0,5,6
 418 523 418 523 376 523 c 0,7,8
 342 523 342 523 277 566 c 0,9,10
 246 587 246 587 227 587 c 0,11,12
 214 587 214 587 204 578.5 c 128,-1,13
 194 570 194 570 172 541 c 0,14,15
 161 526 161 526 146 526 c 0,16,17
 133 526 133 526 124 535 c 128,-1,18
 115 544 115 544 115 556 c 0,19,20
 115 578 115 578 142 611 c 0,21,22
 181 656 181 656 225 656 c 0,23,24
 254 656 254 656 315 618 c 0,25,26
 359 592 359 592 373 592 c 0,27,28
 384 592 384 592 390.5 597.5 c 128,-1,29
 397 603 397 603 414 626 c 0,30,31
 435 656 435 656 453 656 c 0,0,1
EndSplineSet
EndChar

StartChar: macron
Encoding: 175 175 130
Width: 600
GlyphClass: 2
Flags: W
LayerCount: 2
Fore
SplineSet
178 626 m 2,0,-1
 422 626 l 2,1,2
 454 626 454 626 464 615 c 0,3,4
 475 602 475 602 475 586 c 0,5,6
 475 546 475 546 422 546 c 2,7,-1
 178 546 l 2,8,9
 147 546 147 546 136 558 c 0,10,11
 125 573 125 573 125 586 c 0,12,13
 125 626 125 626 178 626 c 2,0,-1
EndSplineSet
EndChar

StartChar: breve
Encoding: 728 728 131
Width: 600
GlyphClass: 2
Flags: W
LayerCount: 2
Fore
SplineSet
159 687 m 128,-1,1
 174 687 174 687 181 678.5 c 128,-1,2
 188 670 188 670 193 647 c 0,3,4
 201 612 201 612 230 591.5 c 128,-1,5
 259 571 259 571 300 571 c 128,-1,6
 341 571 341 571 370 591.5 c 128,-1,7
 399 612 399 612 407 647 c 0,8,9
 412 670 412 670 419 678.5 c 128,-1,10
 426 687 426 687 441 687 c 128,-1,11
 456 687 456 687 465.5 676.5 c 128,-1,12
 475 666 475 666 475 649 c 0,13,14
 475 592 475 592 422 547.5 c 128,-1,15
 369 503 369 503 300 503 c 128,-1,16
 231 503 231 503 178 547.5 c 128,-1,17
 125 592 125 592 125 649 c 0,18,19
 125 666 125 666 134.5 676.5 c 128,-1,0
 144 687 144 687 159 687 c 128,-1,1
EndSplineSet
EndChar

StartChar: dotaccent
Encoding: 729 729 132
Width: 600
GlyphClass: 2
Flags: W
LayerCount: 2
Fore
SplineSet
300 654 m 128,-1,1
 325 654 325 654 342.5 636.5 c 128,-1,2
 360 619 360 619 360 593 c 0,3,4
 360 569 360 569 342.5 551.5 c 128,-1,5
 325 534 325 534 300 534 c 128,-1,6
 275 534 275 534 257.5 551.5 c 128,-1,7
 240 569 240 569 240 594 c 128,-1,8
 240 619 240 619 257.5 636.5 c 128,-1,0
 275 654 275 654 300 654 c 128,-1,1
EndSplineSet
EndChar

StartChar: dieresis
Encoding: 168 168 133
Width: 600
GlyphClass: 2
Flags: W
LayerCount: 2
Fore
SplineSet
196 654 m 128,-1,1
 221 654 221 654 238.5 636.5 c 128,-1,2
 256 619 256 619 256 593 c 0,3,4
 256 569 256 569 238.5 551.5 c 128,-1,5
 221 534 221 534 196 534 c 128,-1,6
 171 534 171 534 153.5 551.5 c 128,-1,7
 136 569 136 569 136 594 c 128,-1,8
 136 619 136 619 153.5 636.5 c 128,-1,0
 171 654 171 654 196 654 c 128,-1,1
404 654 m 128,-1,10
 429 654 429 654 446.5 636.5 c 128,-1,11
 464 619 464 619 464 593 c 0,12,13
 464 569 464 569 446.5 551.5 c 128,-1,14
 429 534 429 534 404 534 c 128,-1,15
 379 534 379 534 361.5 551.5 c 128,-1,16
 344 569 344 569 344 594 c 128,-1,17
 344 619 344 619 361.5 636.5 c 128,-1,9
 379 654 379 654 404 654 c 128,-1,10
EndSplineSet
EndChar

StartChar: ring
Encoding: 730 730 134
Width: 600
GlyphClass: 2
Flags: W
LayerCount: 2
Fore
SplineSet
300 727 m 0,0,1
 351 727 351 727 387 691 c 128,-1,2
 423 655 423 655 423 605 c 0,3,4
 423 557 423 557 386.5 521.5 c 128,-1,5
 350 486 350 486 300 486 c 128,-1,6
 250 486 250 486 213.5 522 c 128,-1,7
 177 558 177 558 177 607 c 128,-1,8
 177 656 177 656 213.5 691.5 c 128,-1,9
 250 727 250 727 300 727 c 0,0,1
300 674 m 0,10,11
 272 674 272 674 251 654 c 128,-1,12
 230 634 230 634 230 607 c 128,-1,13
 230 580 230 580 251 560 c 128,-1,14
 272 540 272 540 300 540 c 128,-1,15
 328 540 328 540 349 560 c 128,-1,16
 370 580 370 580 370 606 c 0,17,18
 370 634 370 634 349.5 654 c 128,-1,19
 329 674 329 674 300 674 c 0,10,11
EndSplineSet
EndChar

StartChar: cedilla
Encoding: 184 184 135
Width: 600
GlyphClass: 2
Flags: W
LayerCount: 2
Fore
SplineSet
262 0 m 1,0,-1
 332 0 l 1,1,-1
 332 -41 l 1,2,3
 407 -57 407 -57 407 -132 c 0,4,5
 407 -175 407 -175 377 -202 c 128,-1,6
 347 -229 347 -229 300 -229 c 0,7,8
 252 -229 252 -229 208 -205 c 0,9,10
 180 -189 180 -189 180 -166 c 0,11,12
 180 -152 180 -152 190.5 -141.5 c 128,-1,13
 201 -131 201 -131 215 -131 c 0,14,15
 224 -131 224 -131 244 -142 c 0,16,17
 275 -159 275 -159 301 -159 c 0,18,19
 337 -159 337 -159 337 -134 c 0,20,21
 337 -100 337 -100 284 -100 c 0,22,23
 275 -100 275 -100 262 -102 c 1,24,-1
 262 0 l 1,0,-1
EndSplineSet
EndChar

StartChar: hungarumlaut
Encoding: 733 733 136
Width: 600
GlyphClass: 2
Flags: W
LayerCount: 2
Fore
SplineSet
291 622 m 6,0,-1
 189 512 l 6,1,2
 175 496 175 496 160 496 c 4,3,4
 147 496 147 496 136 507.5 c 132,-1,5
 125 519 125 519 125 533 c 4,6,7
 125 545 125 545 146 569 c 6,8,-1
 248 679 l 6,9,10
 263 694 263 694 277 694 c 4,11,12
 290 694 290 694 300.5 683 c 132,-1,13
 311 672 311 672 311 658 c 4,14,15
 311 643 311 643 291 622 c 6,0,-1
455 622 m 2,16,-1
 353 512 l 2,17,18
 337 496 337 496 324 496 c 128,-1,19
 311 496 311 496 300 507.5 c 128,-1,20
 289 519 289 519 289 533 c 0,21,22
 289 545 289 545 310 569 c 2,23,-1
 412 679 l 2,24,25
 426 694 426 694 441 694 c 0,26,27
 454 694 454 694 464.5 683 c 128,-1,28
 475 672 475 672 475 658 c 0,29,30
 475 643 475 643 455 622 c 2,16,-1
EndSplineSet
EndChar

StartChar: ogonek
Encoding: 731 731 137
Width: 600
GlyphClass: 2
Flags: W
LayerCount: 2
Fore
SplineSet
329 0 m 1,0,-1
 427 0 l 1,1,2
 373 -37 373 -37 350 -62.5 c 128,-1,3
 327 -88 327 -88 327 -112 c 0,4,5
 327 -132 327 -132 351 -132 c 0,6,7
 365 -132 365 -132 402 -114 c 0,8,9
 414 -108 414 -108 424 -108 c 0,10,11
 440 -108 440 -108 451.5 -119 c 128,-1,12
 463 -130 463 -130 463 -146 c 0,13,14
 463 -173 463 -173 428 -189 c 0,15,16
 385 -208 385 -208 344 -208 c 0,17,18
 300 -208 300 -208 275 -184 c 128,-1,19
 250 -160 250 -160 250 -119 c 0,20,21
 250 -82 250 -82 268 -54.5 c 128,-1,22
 286 -27 286 -27 329 0 c 1,0,-1
EndSplineSet
EndChar

StartChar: caron
Encoding: 711 711 138
Width: 600
GlyphClass: 2
Flags: W
LayerCount: 2
Fore
SplineSet
301 586 m 1,0,-1
 413 682 l 2,1,2
 428 696 428 696 442 696 c 0,3,4
 455 696 455 696 465.5 685 c 128,-1,5
 476 674 476 674 476 660 c 0,6,7
 476 644 476 644 461 632 c 2,8,-1
 452 625 l 1,9,-1
 301 497 l 1,10,-1
 149 625 l 2,11,12
 133 638 133 638 129 644 c 128,-1,13
 125 650 125 650 125 660 c 0,14,15
 125 674 125 674 135.5 685 c 128,-1,16
 146 696 146 696 160 696 c 0,17,18
 171 696 171 696 188 682 c 2,19,-1
 301 586 l 1,0,-1
EndSplineSet
EndChar

StartChar: emdash
Encoding: 8212 8212 139
Width: 600
GlyphClass: 2
Flags: W
LayerCount: 2
Fore
SplineSet
563 229 m 2,0,-1
 37 229 l 2,1,2
 4 229 4 229 -8 238 c 0,3,4
 -29 254 -29 254 -29 279 c 0,5,6
 -29 308 -29 308 -5 322 c 0,7,8
 5 329 5 329 37 329 c 2,9,-1
 563 329 l 2,10,11
 596 329 596 329 608 320 c 0,12,13
 629 305 629 305 629 279 c 0,14,15
 629 250 629 250 605 236 c 0,16,17
 594 229 594 229 563 229 c 2,0,-1
EndSplineSet
EndChar

StartChar: AE
Encoding: 198 198 140
Width: 600
GlyphClass: 2
Flags: W
LayerCount: 2
Fore
SplineSet
53 100 m 1,0,-1
 168 483 l 1,1,-1
 154 483 l 2,2,3
 121 483 121 483 109 492 c 0,4,5
 88 508 88 508 88 533 c 0,6,7
 88 562 88 562 112 576 c 0,8,9
 123 583 123 583 154 583 c 2,10,-1
 593 583 l 1,11,-1
 593 418 l 2,12,13
 593 386 593 386 584 373 c 0,14,15
 568 352 568 352 543 352 c 0,16,17
 516 352 516 352 500 376 c 0,18,19
 493 387 493 387 493 418 c 2,20,-1
 493 483 l 1,21,-1
 367 483 l 1,22,-1
 367 342 l 1,23,-1
 386 342 l 1,24,25
 389 397 389 397 436 397 c 0,26,27
 465 397 465 397 479 373 c 0,28,29
 486 363 486 363 486 331 c 2,30,-1
 486 253 l 2,31,32
 486 221 486 221 477 208 c 0,33,34
 461 187 461 187 436 187 c 0,35,36
 413 187 413 187 400 202 c 128,-1,37
 387 217 387 217 386 243 c 1,38,-1
 367 243 l 1,39,-1
 367 100 l 1,40,-1
 514 100 l 1,41,-1
 514 123 l 2,42,43
 514 155 514 155 523 168 c 0,44,45
 539 189 539 189 564 189 c 0,46,47
 593 189 593 189 607 165 c 0,48,49
 614 154 614 154 614 123 c 2,50,-1
 614 0 l 1,51,-1
 265 0 l 2,52,53
 239 0 239 0 224 14 c 128,-1,54
 209 28 209 28 209 52 c 0,55,56
 209 72 209 72 223.5 86 c 128,-1,57
 238 100 238 100 259 100 c 2,58,-1
 267 100 l 1,59,-1
 267 158 l 1,60,-1
 174 158 l 1,61,-1
 157 100 l 1,62,63
 198 94 198 94 198 53 c 0,64,65
 198 0 198 0 141 0 c 2,66,-1
 46 0 l 2,67,68
 -20 0 -20 0 -20 50 c 0,69,70
 -20 79 -20 79 4 93 c 0,71,72
 14 100 14 100 46 100 c 2,73,-1
 53 100 l 1,0,-1
267 259 m 1,74,-1
 267 471 l 1,75,-1
 203 259 l 1,76,-1
 267 259 l 1,74,-1
EndSplineSet
EndChar

StartChar: ordfeminine
Encoding: 170 170 141
Width: 600
GlyphClass: 2
Flags: W
LayerCount: 2
Fore
SplineSet
354 284 m 1,0,-1
 354 295 l 1,1,2
 299 273 299 273 246 273 c 128,-1,3
 193 273 193 273 155.5 301 c 128,-1,4
 118 329 118 329 118 369 c 0,5,6
 118 403 118 403 146 434 c 0,7,8
 193 487 193 487 292 487 c 0,9,10
 318 487 318 487 354 482 c 1,11,-1
 354 490 l 2,12,13
 354 517 354 517 296 517 c 0,14,15
 261 517 261 517 217 506 c 0,16,17
 199 501 199 501 189 501 c 0,18,19
 173 501 173 501 162 512.5 c 128,-1,20
 151 524 151 524 151 541 c 0,21,22
 151 565 151 565 175 575 c 0,23,24
 232 595 232 595 292 595 c 0,25,26
 359 595 359 595 395.5 567.5 c 128,-1,27
 432 540 432 540 432 490 c 2,28,-1
 432 362 l 1,29,-1
 438 362 l 2,30,31
 489 362 489 362 489 323 c 128,-1,32
 489 284 489 284 439 284 c 2,33,-1
 354 284 l 1,0,-1
354 383 m 1,34,-1
 354 410 l 1,35,36
 317 417 317 417 288 417 c 0,37,38
 256 417 256 417 232.5 404 c 128,-1,39
 209 391 209 391 209 374 c 0,40,41
 209 364 209 364 221 358 c 128,-1,42
 233 352 233 352 252 352 c 0,43,44
 309 352 309 352 354 383 c 1,34,-1
432 182 m 2,45,-1
 176 182 l 2,46,47
 143 182 143 182 133.5 190 c 128,-1,48
 124 198 124 198 124 227 c 0,49,50
 124 246 124 246 134.5 252.5 c 128,-1,51
 145 259 145 259 176 259 c 2,52,-1
 431 259 l 2,53,54
 483 259 483 259 483 221 c 0,55,56
 483 182 483 182 432 182 c 2,45,-1
EndSplineSet
EndChar

StartChar: Lslash
Encoding: 321 321 142
Width: 600
GlyphClass: 2
Flags: W
LayerCount: 2
Fore
SplineSet
256 483 m 1,0,-1
 256 359 l 1,1,-1
 344 411 l 2,2,3
 370 426 370 426 385 426 c 0,4,5
 404 426 404 426 418 411 c 128,-1,6
 432 396 432 396 432 376 c 0,7,8
 432 359 432 359 424 349 c 128,-1,9
 416 339 416 339 393 325 c 2,10,-1
 256 244 l 1,11,-1
 256 100 l 1,12,-1
 471 100 l 1,13,-1
 471 191 l 2,14,15
 471 225 471 225 480 237 c 0,16,17
 495 258 495 258 521 258 c 0,18,19
 548 258 548 258 564 234 c 0,20,21
 571 221 571 221 571 191 c 2,22,-1
 571 0 l 1,23,-1
 99 0 l 2,24,25
 33 0 33 0 33 50 c 0,26,27
 33 79 33 79 57 93 c 0,28,29
 68 100 68 100 99 100 c 2,30,-1
 156 100 l 1,31,-1
 156 203 l 1,32,-1
 102 171 l 2,33,34
 78 156 78 156 60 156 c 0,35,36
 41 156 41 156 26.5 171.5 c 128,-1,37
 12 187 12 187 12 207 c 0,38,39
 12 224 12 224 20 234.5 c 128,-1,40
 28 245 28 245 52 258 c 2,41,-1
 156 318 l 1,42,-1
 156 483 l 1,43,-1
 99 483 l 2,44,45
 66 483 66 483 53 492 c 0,46,47
 33 509 33 509 33 533 c 0,48,49
 33 562 33 562 57 576 c 0,50,51
 68 583 68 583 99 583 c 2,52,-1
 313 583 l 2,53,54
 345 583 345 583 358 574 c 0,55,56
 379 558 379 558 379 533 c 0,57,58
 379 504 379 504 355 490 c 0,59,60
 342 483 342 483 313 483 c 2,61,-1
 256 483 l 1,0,-1
EndSplineSet
EndChar

StartChar: Oslash
Encoding: 216 216 143
Width: 600
GlyphClass: 2
Flags: W
LayerCount: 2
Fore
SplineSet
159 28 m 1,0,-1
 105 -40 l 2,1,2
 90 -59 90 -59 81 -64.5 c 128,-1,3
 72 -70 72 -70 58 -70 c 0,4,5
 38 -70 38 -70 23.5 -56 c 128,-1,6
 9 -42 9 -42 9 -23 c 0,7,8
 9 -7 9 -7 30 19 c 2,9,-1
 87 92 l 1,10,11
 20 180 20 180 20 292 c 0,12,13
 20 418 20 418 102 507.5 c 128,-1,14
 184 597 184 597 300 597 c 0,15,16
 377 597 377 597 449 549 c 1,17,-1
 495 607 l 2,18,19
 509 626 509 626 518.5 632 c 128,-1,20
 528 638 528 638 542 638 c 0,21,22
 562 638 562 638 576 624 c 128,-1,23
 590 610 590 610 590 590 c 0,24,25
 590 574 590 574 570 548 c 2,26,-1
 518 483 l 1,27,28
 579 403 579 403 579 291 c 0,29,30
 579 165 579 165 497 75.5 c 128,-1,31
 415 -14 415 -14 300 -14 c 0,32,33
 226 -14 226 -14 159 28 c 1,0,-1
452 400 m 1,34,-1
 221 107 l 1,35,36
 259 86 259 86 300 86 c 0,37,38
 373 86 373 86 426 146.5 c 128,-1,39
 479 207 479 207 479 290 c 0,40,41
 479 351 479 351 452 400 c 1,34,-1
152 174 m 1,42,-1
 387 471 l 1,43,44
 343 497 343 497 299 497 c 0,45,46
 226 497 226 497 173 436.5 c 128,-1,47
 120 376 120 376 120 292 c 0,48,49
 120 228 120 228 152 174 c 1,42,-1
EndSplineSet
EndChar

StartChar: OE
Encoding: 338 338 144
Width: 600
GlyphClass: 2
Flags: W
LayerCount: 2
Fore
SplineSet
366 243 m 1,0,-1
 366 100 l 1,1,-1
 513 100 l 1,2,-1
 513 122 l 2,3,4
 513 155 513 155 522 168 c 0,5,6
 539 188 539 188 563 188 c 0,7,8
 592 188 592 188 605 164 c 0,9,10
 612 153 612 153 612 122 c 2,11,-1
 612 0 l 1,12,-1
 259 0 l 2,13,14
 137 0 137 0 58.5 82.5 c 128,-1,15
 -20 165 -20 165 -20 292 c 128,-1,16
 -20 419 -20 419 58.5 501 c 128,-1,17
 137 583 137 583 259 583 c 2,18,-1
 593 583 l 1,19,-1
 593 418 l 2,20,21
 593 385 593 385 584 372 c 0,22,23
 567 352 567 352 543 352 c 0,24,25
 516 352 516 352 500 376 c 0,26,27
 493 387 493 387 493 418 c 2,28,-1
 493 483 l 1,29,-1
 366 483 l 1,30,-1
 366 342 l 1,31,-1
 385 342 l 1,32,33
 388 397 388 397 434 397 c 0,34,35
 463 397 463 397 477 373 c 0,36,37
 484 363 484 363 484 331 c 2,38,-1
 484 253 l 2,39,40
 484 221 484 221 475 208 c 0,41,42
 459 187 459 187 434 187 c 0,43,44
 412 187 412 187 399 202 c 128,-1,45
 386 217 386 217 385 243 c 1,46,-1
 366 243 l 1,0,-1
266 100 m 1,47,-1
 266 483 l 1,48,49
 195 482 195 482 155 452 c 0,50,51
 121 427 121 427 100.5 382.5 c 128,-1,52
 80 338 80 338 80 291 c 0,53,54
 80 241 80 241 104 194 c 128,-1,55
 128 147 128 147 166 124 c 0,56,57
 206 100 206 100 266 100 c 1,47,-1
EndSplineSet
EndChar

StartChar: ordmasculine
Encoding: 186 186 145
Width: 600
GlyphClass: 2
Flags: W
LayerCount: 2
Fore
SplineSet
301 595 m 0,0,1
 372 595 372 595 421.5 546.5 c 128,-1,2
 471 498 471 498 471 428 c 0,3,4
 471 364 471 364 421 318.5 c 128,-1,5
 371 273 371 273 301 273 c 0,6,7
 230 273 230 273 180.5 319 c 128,-1,8
 131 365 131 365 131 430 c 0,9,10
 131 498 131 498 181 546.5 c 128,-1,11
 231 595 231 595 301 595 c 0,0,1
301 517 m 128,-1,13
 264 517 264 517 237 491 c 128,-1,14
 210 465 210 465 210 430 c 0,15,16
 210 399 210 399 237.5 375 c 128,-1,17
 265 351 265 351 301 351 c 128,-1,18
 337 351 337 351 364.5 375 c 128,-1,19
 392 399 392 399 392 430 c 0,20,21
 392 465 392 465 365 491 c 128,-1,12
 338 517 338 517 301 517 c 128,-1,13
428 182 m 2,22,-1
 174 182 l 2,23,24
 122 182 122 182 122 221 c 0,25,26
 122 242 122 242 140 253 c 0,27,28
 150 259 150 259 174 259 c 2,29,-1
 428 259 l 2,30,31
 480 259 480 259 480 221 c 0,32,33
 480 182 480 182 428 182 c 2,22,-1
EndSplineSet
EndChar

StartChar: ae
Encoding: 230 230 146
Width: 600
GlyphClass: 2
Flags: W
LayerCount: 2
Fore
SplineSet
611 172 m 1,0,-1
 360 172 l 1,1,2
 373 125 373 125 391.5 104.5 c 128,-1,3
 410 84 410 84 441 84 c 0,4,5
 471 84 471 84 509 101 c 0,6,7
 550 118 550 118 566 118 c 0,8,9
 586 118 586 118 599 103 c 128,-1,10
 612 88 612 88 612 66 c 0,11,12
 612 38 612 38 587 22 c 0,13,14
 561 6 561 6 519.5 -5 c 128,-1,15
 478 -16 478 -16 442 -16 c 0,16,17
 389 -16 389 -16 342 16 c 1,18,19
 328 -1 328 -1 305 -1 c 0,20,21
 284 -1 284 -1 269 16 c 1,22,23
 218 -16 218 -16 159 -16 c 0,24,25
 81 -16 81 -16 34 28 c 128,-1,26
 -13 72 -13 72 -13 145 c 0,27,28
 -13 178 -13 178 0.5 200.5 c 128,-1,29
 14 223 14 223 45 242 c 0,30,31
 75 261 75 261 117 273.5 c 128,-1,32
 159 286 159 286 195 286 c 0,33,34
 212 286 212 286 255 281 c 1,35,-1
 255 301 l 2,36,37
 255 322 255 322 241.5 336 c 128,-1,38
 228 350 228 350 207 350 c 0,39,40
 188 350 188 350 117 329 c 0,41,42
 105 325 105 325 94 325 c 0,43,44
 74 325 74 325 60 340 c 128,-1,45
 46 355 46 355 46 376 c 0,46,47
 46 412 46 412 87 426 c 0,48,49
 161 450 161 450 207 450 c 0,50,51
 273 450 273 450 323 394 c 1,52,53
 375 450 375 450 435 450 c 0,54,55
 509 450 509 450 563 381 c 0,56,57
 611 319 611 319 611 218 c 2,58,-1
 611 172 l 1,0,-1
255 130 m 1,59,-1
 255 189 l 1,60,61
 224 197 224 197 199 197 c 0,62,63
 136 197 136 197 101 171 c 0,64,65
 88 160 88 160 88 142 c 0,66,67
 88 116 88 116 107 100 c 128,-1,68
 126 84 126 84 158 84 c 0,69,70
 201 84 201 84 255 130 c 1,59,-1
362 258 m 1,71,-1
 502 258 l 1,72,73
 496 297 496 297 487 313 c 0,74,75
 468 350 468 350 432 350 c 0,76,77
 415 350 415 350 399 338 c 128,-1,78
 383 326 383 326 375 307 c 0,79,80
 368 291 368 291 362 258 c 1,71,-1
EndSplineSet
EndChar

StartChar: dotlessi
Encoding: 305 305 147
Width: 600
GlyphClass: 2
Flags: W
LayerCount: 2
Fore
SplineSet
350 437 m 1,0,-1
 350 100 l 1,1,-1
 472 100 l 2,2,3
 504 100 504 100 517 91 c 0,4,5
 538 75 538 75 538 50 c 0,6,7
 538 23 538 23 514 7 c 0,8,9
 502 0 502 0 472 0 c 2,10,-1
 128 0 l 2,11,12
 94 0 94 0 83 10 c 0,13,14
 62 25 62 25 62 50 c 0,15,16
 62 79 62 79 86 93 c 0,17,18
 96 100 96 100 128 100 c 2,19,-1
 250 100 l 1,20,-1
 250 337 l 1,21,-1
 172 337 l 2,22,23
 137 337 137 337 126 347 c 0,24,25
 105 362 105 362 105 387 c 0,26,27
 105 416 105 416 129 430 c 0,28,29
 140 437 140 437 172 437 c 2,30,-1
 350 437 l 1,0,-1
EndSplineSet
EndChar

StartChar: lslash
Encoding: 322 322 148
Width: 600
GlyphClass: 2
Flags: W
LayerCount: 2
Fore
SplineSet
350 624 m 1,0,-1
 350 399 l 1,1,-1
 385 419 l 2,2,3
 411 435 411 435 425 435 c 0,4,5
 445 435 445 435 459.5 419.5 c 128,-1,6
 474 404 474 404 474 383 c 0,7,8
 474 367 474 367 465.5 355.5 c 128,-1,9
 457 344 457 344 435 332 c 2,10,-1
 350 283 l 1,11,-1
 350 100 l 1,12,-1
 472 100 l 2,13,14
 504 100 504 100 517 91 c 0,15,16
 538 76 538 76 538 50 c 0,17,18
 538 23 538 23 514 7 c 0,19,20
 502 0 502 0 472 0 c 2,21,-1
 128 0 l 2,22,23
 94 0 94 0 83 10 c 0,24,25
 62 25 62 25 62 50 c 0,26,27
 62 77 62 77 86 93 c 0,28,29
 96 100 96 100 128 100 c 2,30,-1
 250 100 l 1,31,-1
 250 243 l 1,32,-1
 216 223 l 2,33,34
 192 209 192 209 176 209 c 0,35,36
 157 209 157 209 142 224.5 c 128,-1,37
 127 240 127 240 127 260 c 0,38,39
 127 277 127 277 135.5 288 c 128,-1,40
 144 299 144 299 167 312 c 2,41,-1
 250 359 l 1,42,-1
 250 524 l 1,43,-1
 175 524 l 2,44,45
 140 524 140 524 129 534 c 0,46,47
 108 549 108 549 108 574 c 0,48,49
 108 603 108 603 132 617 c 0,50,51
 142 624 142 624 175 624 c 2,52,-1
 350 624 l 1,0,-1
EndSplineSet
EndChar

StartChar: oslash
Encoding: 248 248 149
Width: 600
GlyphClass: 2
Flags: W
LayerCount: 2
Fore
SplineSet
548 402 m 2,0,-1
 506 359 l 1,1,2
 558 293 558 293 558 217 c 0,3,4
 558 119 558 119 483 51.5 c 128,-1,5
 408 -16 408 -16 300 -16 c 0,6,7
 234 -16 234 -16 172 14 c 1,8,-1
 116 -44 l 2,9,10
 90 -70 90 -70 71 -70 c 0,11,12
 51 -70 51 -70 37 -56 c 128,-1,13
 23 -42 23 -42 23 -22 c 0,14,15
 23 -3 23 -3 48 22 c 2,16,-1
 96 72 l 1,17,18
 42 139 42 139 42 217 c 0,19,20
 42 314 42 314 116.5 382 c 128,-1,21
 191 450 191 450 298 450 c 0,22,23
 373 450 373 450 432 419 c 1,24,-1
 480 468 l 2,25,26
 506 494 506 494 526 494 c 128,-1,27
 546 494 546 494 559.5 480 c 128,-1,28
 573 466 573 466 573 447 c 0,29,30
 573 426 573 426 548 402 c 2,0,-1
436 286 m 1,31,-1
 247 91 l 1,32,33
 272 84 272 84 299 84 c 0,34,35
 366 84 366 84 412 122.5 c 128,-1,36
 458 161 458 161 458 217 c 0,37,38
 458 251 458 251 436 286 c 1,31,-1
167 145 m 1,39,-1
 357 342 l 1,40,41
 323 350 323 350 300 350 c 0,42,43
 233 350 233 350 187.5 311.5 c 128,-1,44
 142 273 142 273 142 217 c 0,45,46
 142 179 142 179 167 145 c 1,39,-1
EndSplineSet
EndChar

StartChar: oe
Encoding: 339 339 150
Width: 600
GlyphClass: 2
Flags: W
LayerCount: 2
Fore
SplineSet
612 171 m 1,0,-1
 360 171 l 1,1,2
 380 84 380 84 444 84 c 0,3,4
 476 84 476 84 540 112 c 0,5,6
 553 117 553 117 564 117 c 0,7,8
 584 117 584 117 598.5 102 c 128,-1,9
 613 87 613 87 613 65 c 0,10,11
 613 33 613 33 576 14 c 0,12,13
 551 2 551 2 509.5 -7 c 128,-1,14
 468 -16 468 -16 438 -16 c 0,15,16
 355 -16 355 -16 303 58 c 1,17,18
 249 -16 249 -16 171 -16 c 0,19,20
 95 -16 95 -16 42 50.5 c 128,-1,21
 -11 117 -11 117 -11 212 c 0,22,23
 -11 312 -11 312 41.5 381 c 128,-1,24
 94 450 94 450 170 450 c 0,25,26
 247 450 247 450 303 370 c 1,27,28
 356 450 356 450 436 450 c 0,29,30
 504 450 504 450 557 389 c 0,31,32
 612 328 612 328 612 216 c 2,33,-1
 612 171 l 1,0,-1
172 349 m 0,34,35
 138 349 138 349 113.5 310 c 128,-1,36
 89 271 89 271 89 216 c 0,37,38
 89 162 89 162 113.5 123 c 128,-1,39
 138 84 138 84 172 84 c 0,40,41
 207 84 207 84 231.5 122.5 c 128,-1,42
 256 161 256 161 256 215 c 0,43,44
 256 271 256 271 231.5 310 c 128,-1,45
 207 349 207 349 172 349 c 0,34,35
363 257 m 1,46,-1
 504 257 l 1,47,48
 498 288 498 288 488 310 c 0,49,50
 468 349 468 349 434 349 c 0,51,52
 397 349 397 349 378 306 c 0,53,54
 370 288 370 288 363 257 c 1,46,-1
EndSplineSet
EndChar

StartChar: germandbls
Encoding: 223 223 151
Width: 600
GlyphClass: 2
Flags: W
LayerCount: 2
Fore
SplineSet
95 100 m 1,0,-1
 95 478 l 2,1,2
 95 542 95 542 143.5 582.5 c 128,-1,3
 192 623 192 623 268 623 c 128,-1,4
 344 623 344 623 395 575 c 128,-1,5
 446 527 446 527 446 456 c 0,6,7
 446 406 446 406 411 365 c 1,8,9
 529 296 529 296 529 165 c 0,10,11
 529 84 529 84 486.5 34 c 128,-1,12
 444 -16 444 -16 374 -16 c 0,13,14
 322 -16 322 -16 288.5 16 c 128,-1,15
 255 48 255 48 255 97 c 0,16,17
 255 125 255 125 268.5 140.5 c 128,-1,18
 282 156 282 156 305 156 c 128,-1,19
 328 156 328 156 340 142 c 0,20,21
 347 134 347 134 352 113 c 0,22,23
 358 84 358 84 382 84 c 0,24,25
 403 84 403 84 416 106 c 128,-1,26
 429 128 429 128 429 164 c 0,27,28
 429 220 429 220 388 259 c 0,29,30
 351 295 351 295 278 303 c 0,31,32
 223 309 223 309 223 353 c 128,-1,33
 223 397 223 397 276 402 c 0,34,35
 308 406 308 406 321 415 c 0,36,37
 346 431 346 431 346 459 c 128,-1,38
 346 487 346 487 324 505 c 128,-1,39
 302 523 302 523 268 523 c 0,40,41
 195 523 195 523 195 461 c 2,42,-1
 195 100 l 1,43,44
 238 92 238 92 238 51 c 0,45,46
 238 0 238 0 172 0 c 2,47,-1
 79 0 l 2,48,49
 46 0 46 0 33 9 c 0,50,51
 13 26 13 26 13 50 c 0,52,53
 13 78 13 78 37 93 c 0,54,55
 48 100 48 100 79 100 c 2,56,-1
 95 100 l 1,0,-1
EndSplineSet
EndChar

StartChar: Adieresis
Encoding: 196 196 152
Width: 600
GlyphClass: 2
Flags: W
LayerCount: 2
Fore
SplineSet
416 158 m 1,0,-1
 178 158 l 1,1,-1
 155 100 l 1,2,-1
 178 100 l 2,3,4
 210 100 210 100 223 91 c 0,5,6
 244 75 244 75 244 50 c 0,7,8
 244 21 244 21 220 7 c 0,9,10
 209 0 209 0 178 0 c 2,11,-1
 45 0 l 2,12,13
 -21 0 -21 0 -21 50 c 0,14,15
 -21 79 -21 79 3 93 c 0,16,17
 14 100 14 100 46 100 c 1,18,-1
 201 483 l 1,19,-1
 138 483 l 2,20,21
 105 483 105 483 92 492 c 0,22,23
 71 508 71 508 71 533 c 0,24,25
 71 560 71 560 95 576 c 0,26,27
 105 583 105 583 138 583 c 2,28,-1
 354 583 l 1,29,-1
 553 100 l 1,30,31
 588 100 588 100 600 90 c 0,32,33
 621 75 621 75 621 50 c 0,34,35
 621 21 621 21 597 7 c 0,36,37
 586 0 586 0 555 0 c 2,38,-1
 416 0 l 2,39,40
 384 0 384 0 371 10 c 0,41,42
 350 25 350 25 350 50 c 0,43,44
 350 79 350 79 374 93 c 0,45,46
 384 100 384 100 416 100 c 2,47,-1
 439 100 l 1,48,-1
 416 158 l 1,0,-1
375 258 m 1,49,-1
 297 450 l 1,50,-1
 218 258 l 1,51,-1
 375 258 l 1,49,-1
179 798 m 128,-1,53
 204 798 204 798 221.5 780.5 c 128,-1,54
 239 763 239 763 239 737 c 0,55,56
 239 713 239 713 221.5 695.5 c 128,-1,57
 204 678 204 678 179 678 c 128,-1,58
 154 678 154 678 136.5 695.5 c 128,-1,59
 119 713 119 713 119 738 c 128,-1,60
 119 763 119 763 136.5 780.5 c 128,-1,52
 154 798 154 798 179 798 c 128,-1,53
387 798 m 128,-1,62
 412 798 412 798 429.5 780.5 c 128,-1,63
 447 763 447 763 447 737 c 0,64,65
 447 713 447 713 429.5 695.5 c 128,-1,66
 412 678 412 678 387 678 c 128,-1,67
 362 678 362 678 344.5 695.5 c 128,-1,68
 327 713 327 713 327 738 c 128,-1,69
 327 763 327 763 344.5 780.5 c 128,-1,61
 362 798 362 798 387 798 c 128,-1,62
EndSplineSet
EndChar

StartChar: Aacute
Encoding: 193 193 153
Width: 600
GlyphClass: 2
Flags: W
LayerCount: 2
Fore
SplineSet
416 158 m 1,0,-1
 178 158 l 1,1,-1
 155 100 l 1,2,-1
 178 100 l 2,3,4
 210 100 210 100 223 91 c 0,5,6
 244 75 244 75 244 50 c 0,7,8
 244 21 244 21 220 7 c 0,9,10
 209 0 209 0 178 0 c 2,11,-1
 45 0 l 2,12,13
 -21 0 -21 0 -21 50 c 0,14,15
 -21 79 -21 79 3 93 c 0,16,17
 14 100 14 100 46 100 c 1,18,-1
 201 483 l 1,19,-1
 138 483 l 2,20,21
 105 483 105 483 92 492 c 0,22,23
 71 508 71 508 71 533 c 0,24,25
 71 560 71 560 95 576 c 0,26,27
 105 583 105 583 138 583 c 2,28,-1
 354 583 l 1,29,-1
 553 100 l 1,30,31
 588 100 588 100 600 90 c 0,32,33
 621 75 621 75 621 50 c 0,34,35
 621 21 621 21 597 7 c 0,36,37
 586 0 586 0 555 0 c 2,38,-1
 416 0 l 2,39,40
 384 0 384 0 371 10 c 0,41,42
 350 25 350 25 350 50 c 0,43,44
 350 79 350 79 374 93 c 0,45,46
 384 100 384 100 416 100 c 2,47,-1
 439 100 l 1,48,-1
 416 158 l 1,0,-1
375 258 m 1,49,-1
 297 450 l 1,50,-1
 218 258 l 1,51,-1
 375 258 l 1,49,-1
410 767 m 2,52,-1
 277 656 l 2,53,54
 258 640 258 640 245 640 c 0,55,56
 230 640 230 640 219 651 c 128,-1,57
 208 662 208 662 208 676 c 0,58,59
 208 695 208 695 231 712 c 2,60,-1
 364 824 l 2,61,62
 383 839 383 839 396 839 c 0,63,64
 412 839 412 839 422.5 828.5 c 128,-1,65
 433 818 433 818 433 803 c 0,66,67
 433 785 433 785 410 767 c 2,52,-1
EndSplineSet
EndChar

StartChar: Agrave
Encoding: 192 192 154
Width: 600
GlyphClass: 2
Flags: W
LayerCount: 2
Fore
SplineSet
416 158 m 1,0,-1
 178 158 l 1,1,-1
 155 100 l 1,2,-1
 178 100 l 2,3,4
 210 100 210 100 223 91 c 0,5,6
 244 75 244 75 244 50 c 0,7,8
 244 21 244 21 220 7 c 0,9,10
 209 0 209 0 178 0 c 2,11,-1
 45 0 l 2,12,13
 -21 0 -21 0 -21 50 c 0,14,15
 -21 79 -21 79 3 93 c 0,16,17
 14 100 14 100 46 100 c 1,18,-1
 201 483 l 1,19,-1
 138 483 l 2,20,21
 105 483 105 483 92 492 c 0,22,23
 71 508 71 508 71 533 c 0,24,25
 71 560 71 560 95 576 c 0,26,27
 105 583 105 583 138 583 c 2,28,-1
 354 583 l 1,29,-1
 553 100 l 1,30,31
 588 100 588 100 600 90 c 0,32,33
 621 75 621 75 621 50 c 0,34,35
 621 21 621 21 597 7 c 0,36,37
 586 0 586 0 555 0 c 2,38,-1
 416 0 l 2,39,40
 384 0 384 0 371 10 c 0,41,42
 350 25 350 25 350 50 c 0,43,44
 350 79 350 79 374 93 c 0,45,46
 384 100 384 100 416 100 c 2,47,-1
 439 100 l 1,48,-1
 416 158 l 1,0,-1
375 258 m 1,49,-1
 297 450 l 1,50,-1
 218 258 l 1,51,-1
 375 258 l 1,49,-1
210 824 m 2,52,-1
 343 712 l 2,53,54
 366 693 366 693 366 676 c 0,55,56
 366 662 366 662 355 651 c 128,-1,57
 344 640 344 640 329 640 c 0,58,59
 316 640 316 640 297 656 c 2,60,-1
 164 767 l 2,61,62
 141 786 141 786 141 803 c 0,63,64
 141 818 141 818 151.5 828.5 c 128,-1,65
 162 839 162 839 178 839 c 0,66,67
 191 839 191 839 210 824 c 2,52,-1
EndSplineSet
EndChar

StartChar: Acircumflex
Encoding: 194 194 155
Width: 600
GlyphClass: 2
Flags: W
LayerCount: 2
Fore
SplineSet
416 158 m 1,0,-1
 178 158 l 1,1,-1
 155 100 l 1,2,-1
 178 100 l 2,3,4
 210 100 210 100 223 91 c 0,5,6
 244 75 244 75 244 50 c 0,7,8
 244 21 244 21 220 7 c 0,9,10
 209 0 209 0 178 0 c 2,11,-1
 45 0 l 2,12,13
 -21 0 -21 0 -21 50 c 0,14,15
 -21 79 -21 79 3 93 c 0,16,17
 14 100 14 100 46 100 c 1,18,-1
 201 483 l 1,19,-1
 138 483 l 2,20,21
 105 483 105 483 92 492 c 0,22,23
 71 508 71 508 71 533 c 0,24,25
 71 560 71 560 95 576 c 0,26,27
 105 583 105 583 138 583 c 2,28,-1
 354 583 l 1,29,-1
 553 100 l 1,30,31
 588 100 588 100 600 90 c 0,32,33
 621 75 621 75 621 50 c 0,34,35
 621 21 621 21 597 7 c 0,36,37
 586 0 586 0 555 0 c 2,38,-1
 416 0 l 2,39,40
 384 0 384 0 371 10 c 0,41,42
 350 25 350 25 350 50 c 0,43,44
 350 79 350 79 374 93 c 0,45,46
 384 100 384 100 416 100 c 2,47,-1
 439 100 l 1,48,-1
 416 158 l 1,0,-1
375 258 m 1,49,-1
 297 450 l 1,50,-1
 218 258 l 1,51,-1
 375 258 l 1,49,-1
284 750 m 1,52,-1
 171 653 l 2,53,54
 155 640 155 640 143 640 c 0,55,56
 129 640 129 640 118.5 650.5 c 128,-1,57
 108 661 108 661 108 675 c 0,58,59
 108 686 108 686 112 691.5 c 128,-1,60
 116 697 116 697 132 711 c 2,61,-1
 284 839 l 1,62,-1
 435 711 l 1,63,-1
 444 703 l 2,64,65
 459 691 459 691 459 675 c 0,66,67
 459 661 459 661 448.5 650.5 c 128,-1,68
 438 640 438 640 425 640 c 128,-1,69
 412 640 412 640 396 653 c 2,70,-1
 284 750 l 1,52,-1
EndSplineSet
EndChar

StartChar: Abreve
Encoding: 258 258 156
Width: 600
GlyphClass: 2
Flags: W
LayerCount: 2
Fore
SplineSet
416 158 m 1,0,-1
 178 158 l 1,1,-1
 155 100 l 1,2,-1
 178 100 l 2,3,4
 210 100 210 100 223 91 c 0,5,6
 244 75 244 75 244 50 c 0,7,8
 244 21 244 21 220 7 c 0,9,10
 209 0 209 0 178 0 c 2,11,-1
 45 0 l 2,12,13
 -21 0 -21 0 -21 50 c 0,14,15
 -21 79 -21 79 3 93 c 0,16,17
 14 100 14 100 46 100 c 1,18,-1
 201 483 l 1,19,-1
 138 483 l 2,20,21
 105 483 105 483 92 492 c 0,22,23
 71 508 71 508 71 533 c 0,24,25
 71 560 71 560 95 576 c 0,26,27
 105 583 105 583 138 583 c 2,28,-1
 354 583 l 1,29,-1
 553 100 l 1,30,31
 588 100 588 100 600 90 c 0,32,33
 621 75 621 75 621 50 c 0,34,35
 621 21 621 21 597 7 c 0,36,37
 586 0 586 0 555 0 c 2,38,-1
 416 0 l 2,39,40
 384 0 384 0 371 10 c 0,41,42
 350 25 350 25 350 50 c 0,43,44
 350 79 350 79 374 93 c 0,45,46
 384 100 384 100 416 100 c 2,47,-1
 439 100 l 1,48,-1
 416 158 l 1,0,-1
375 258 m 1,49,-1
 297 450 l 1,50,-1
 218 258 l 1,51,-1
 375 258 l 1,49,-1
159 831 m 128,-1,53
 174 831 174 831 181 822.5 c 128,-1,54
 188 814 188 814 193 791 c 0,55,56
 201 756 201 756 230 735.5 c 128,-1,57
 259 715 259 715 300 715 c 128,-1,58
 341 715 341 715 370 735.5 c 128,-1,59
 399 756 399 756 407 791 c 0,60,61
 412 814 412 814 419 822.5 c 128,-1,62
 426 831 426 831 441 831 c 128,-1,63
 456 831 456 831 465.5 820.5 c 128,-1,64
 475 810 475 810 475 793 c 0,65,66
 475 736 475 736 422 691.5 c 128,-1,67
 369 647 369 647 300 647 c 128,-1,68
 231 647 231 647 178 691.5 c 128,-1,69
 125 736 125 736 125 793 c 0,70,71
 125 810 125 810 134.5 820.5 c 128,-1,52
 144 831 144 831 159 831 c 128,-1,53
EndSplineSet
EndChar

StartChar: Atilde
Encoding: 195 195 157
Width: 600
GlyphClass: 2
Flags: W
LayerCount: 2
Fore
SplineSet
416 158 m 1,0,-1
 178 158 l 1,1,-1
 155 100 l 1,2,-1
 178 100 l 2,3,4
 210 100 210 100 223 91 c 0,5,6
 244 75 244 75 244 50 c 0,7,8
 244 21 244 21 220 7 c 0,9,10
 209 0 209 0 178 0 c 2,11,-1
 45 0 l 2,12,13
 -21 0 -21 0 -21 50 c 0,14,15
 -21 79 -21 79 3 93 c 0,16,17
 14 100 14 100 46 100 c 1,18,-1
 201 483 l 1,19,-1
 138 483 l 2,20,21
 105 483 105 483 92 492 c 0,22,23
 71 508 71 508 71 533 c 0,24,25
 71 560 71 560 95 576 c 0,26,27
 105 583 105 583 138 583 c 2,28,-1
 354 583 l 1,29,-1
 553 100 l 1,30,31
 588 100 588 100 600 90 c 0,32,33
 621 75 621 75 621 50 c 0,34,35
 621 21 621 21 597 7 c 0,36,37
 586 0 586 0 555 0 c 2,38,-1
 416 0 l 2,39,40
 384 0 384 0 371 10 c 0,41,42
 350 25 350 25 350 50 c 0,43,44
 350 79 350 79 374 93 c 0,45,46
 384 100 384 100 416 100 c 2,47,-1
 439 100 l 1,48,-1
 416 158 l 1,0,-1
375 258 m 1,49,-1
 297 450 l 1,50,-1
 218 258 l 1,51,-1
 375 258 l 1,49,-1
436 799 m 0,52,53
 449 799 449 799 458.5 790.5 c 128,-1,54
 468 782 468 782 468 771 c 0,55,56
 468 751 468 751 439 715 c 0,57,58
 401 667 401 667 359 667 c 0,59,60
 326 667 326 667 260 709 c 0,61,62
 227 730 227 730 210 730 c 0,63,64
 197 730 197 730 187 722 c 128,-1,65
 177 714 177 714 155 685 c 0,66,67
 143 670 143 670 129 670 c 0,68,69
 116 670 116 670 107 678.5 c 128,-1,70
 98 687 98 687 98 700 c 0,71,72
 98 721 98 721 125 754 c 0,73,74
 164 799 164 799 208 799 c 0,75,76
 238 799 238 799 298 762 c 0,77,78
 341 736 341 736 356 736 c 0,79,80
 367 736 367 736 374 741.5 c 128,-1,81
 381 747 381 747 397 769 c 0,82,83
 418 799 418 799 436 799 c 0,52,53
EndSplineSet
EndChar

StartChar: Aring
Encoding: 197 197 158
Width: 600
GlyphClass: 2
Flags: W
LayerCount: 2
Fore
SplineSet
416 158 m 1,0,-1
 178 158 l 1,1,-1
 155 100 l 1,2,-1
 178 100 l 2,3,4
 210 100 210 100 223 91 c 0,5,6
 244 75 244 75 244 50 c 0,7,8
 244 21 244 21 220 7 c 0,9,10
 209 0 209 0 178 0 c 2,11,-1
 45 0 l 2,12,13
 -21 0 -21 0 -21 50 c 0,14,15
 -21 79 -21 79 3 93 c 0,16,17
 14 100 14 100 46 100 c 1,18,-1
 201 483 l 1,19,-1
 138 483 l 2,20,21
 105 483 105 483 92 492 c 0,22,23
 71 508 71 508 71 533 c 0,24,25
 71 560 71 560 95 576 c 0,26,27
 105 583 105 583 138 583 c 2,28,-1
 354 583 l 1,29,-1
 553 100 l 1,30,31
 588 100 588 100 600 90 c 0,32,33
 621 75 621 75 621 50 c 0,34,35
 621 21 621 21 597 7 c 0,36,37
 586 0 586 0 555 0 c 2,38,-1
 416 0 l 2,39,40
 384 0 384 0 371 10 c 0,41,42
 350 25 350 25 350 50 c 0,43,44
 350 79 350 79 374 93 c 0,45,46
 384 100 384 100 416 100 c 2,47,-1
 439 100 l 1,48,-1
 416 158 l 1,0,-1
375 258 m 1,49,-1
 297 450 l 1,50,-1
 218 258 l 1,51,-1
 375 258 l 1,49,-1
283 871 m 0,52,53
 334 871 334 871 370 835 c 128,-1,54
 406 799 406 799 406 749 c 0,55,56
 406 701 406 701 369.5 665.5 c 128,-1,57
 333 630 333 630 283 630 c 128,-1,58
 233 630 233 630 196.5 666 c 128,-1,59
 160 702 160 702 160 751 c 128,-1,60
 160 800 160 800 196.5 835.5 c 128,-1,61
 233 871 233 871 283 871 c 0,52,53
283 818 m 0,62,63
 255 818 255 818 234 798 c 128,-1,64
 213 778 213 778 213 751 c 128,-1,65
 213 724 213 724 234 704 c 128,-1,66
 255 684 255 684 283 684 c 128,-1,67
 311 684 311 684 332 704 c 128,-1,68
 353 724 353 724 353 750 c 0,69,70
 353 778 353 778 332.5 798 c 128,-1,71
 312 818 312 818 283 818 c 0,62,63
EndSplineSet
EndChar

StartChar: Aogonek
Encoding: 260 260 159
Width: 600
GlyphClass: 2
Flags: W
LayerCount: 2
Fore
SplineSet
354 583 m 1,0,-1
 553 100 l 1,1,2
 587 100 587 100 600 91 c 0,3,4
 621 75 621 75 621 50 c 0,5,6
 621 33 621 33 611.5 21.5 c 128,-1,7
 602 10 602 10 576 -5 c 0,8,9
 535 -28 535 -28 508.5 -58 c 128,-1,10
 482 -88 482 -88 482 -112 c 0,11,12
 482 -132 482 -132 506 -132 c 0,13,14
 521 -132 521 -132 557 -114 c 0,15,16
 569 -108 569 -108 579 -108 c 0,17,18
 595 -108 595 -108 606.5 -119 c 128,-1,19
 618 -130 618 -130 618 -146 c 0,20,21
 618 -173 618 -173 583 -189 c 0,22,23
 540 -208 540 -208 499 -208 c 0,24,25
 455 -208 455 -208 430 -184 c 128,-1,26
 405 -160 405 -160 405 -119 c 0,27,28
 405 -82 405 -82 422.5 -55.5 c 128,-1,29
 440 -29 440 -29 484 0 c 1,30,-1
 416 0 l 2,31,32
 384 0 384 0 371 10 c 0,33,34
 350 25 350 25 350 50 c 0,35,36
 350 79 350 79 374 93 c 0,37,38
 384 100 384 100 416 100 c 2,39,-1
 439 100 l 1,40,-1
 416 158 l 1,41,-1
 178 158 l 1,42,-1
 155 100 l 1,43,-1
 178 100 l 2,44,45
 210 100 210 100 223 91 c 0,46,47
 244 75 244 75 244 50 c 0,48,49
 244 21 244 21 220 7 c 0,50,51
 209 0 209 0 178 0 c 2,52,-1
 45 0 l 2,53,54
 -21 0 -21 0 -21 50 c 0,55,56
 -21 79 -21 79 3 93 c 0,57,58
 14 100 14 100 46 100 c 1,59,-1
 201 483 l 1,60,-1
 138 483 l 2,61,62
 105 483 105 483 92 492 c 0,63,64
 71 508 71 508 71 533 c 0,65,66
 71 560 71 560 95 576 c 0,67,68
 105 583 105 583 138 583 c 2,69,-1
 354 583 l 1,0,-1
375 258 m 1,70,-1
 297 450 l 1,71,-1
 218 258 l 1,72,-1
 375 258 l 1,70,-1
EndSplineSet
EndChar

StartChar: Ccedilla
Encoding: 199 199 160
Width: 600
GlyphClass: 2
Flags: W
LayerCount: 2
Fore
SplineSet
337 -14 m 1,0,-1
 337 -42 l 1,1,2
 412 -57 412 -57 412 -132 c 0,3,4
 412 -174 412 -174 382 -201.5 c 128,-1,5
 352 -229 352 -229 307 -229 c 0,6,7
 248 -229 248 -229 203 -199 c 0,8,9
 185 -186 185 -186 185 -166 c 0,10,11
 185 -152 185 -152 195.5 -141.5 c 128,-1,12
 206 -131 206 -131 220 -131 c 0,13,14
 228 -131 228 -131 249 -142 c 0,15,16
 277 -159 277 -159 306 -159 c 0,17,18
 342 -159 342 -159 342 -134 c 0,19,20
 342 -100 342 -100 292 -100 c 0,21,22
 284 -100 284 -100 267 -102 c 1,23,-1
 267 -9 l 1,24,25
 186 8 186 8 137 43 c 0,26,27
 87 80 87 80 60 134 c 128,-1,28
 33 188 33 188 33 249 c 2,29,-1
 33 315 l 2,30,31
 33 435 33 435 111 516 c 128,-1,32
 189 597 189 597 305 597 c 0,33,34
 375 597 375 597 447 563 c 2,35,-1
 457 559 l 1,36,37
 474 583 474 583 499 583 c 0,38,39
 528 583 528 583 542 559 c 0,40,41
 549 548 549 548 549 517 c 2,42,-1
 549 433 l 2,43,44
 549 400 549 400 540 388 c 0,45,46
 524 367 524 367 499 367 c 0,47,48
 478 367 478 367 464 381 c 0,49,50
 455 390 455 390 449 420 c 0,51,52
 444 452 444 452 406 473 c 0,53,54
 363 497 363 497 309 497 c 0,55,56
 232 497 232 497 182.5 445.5 c 128,-1,57
 133 394 133 394 133 315 c 2,58,-1
 133 251 l 2,59,60
 133 176 133 176 186.5 131 c 128,-1,61
 240 86 240 86 329 86 c 0,62,63
 402 86 402 86 440 109 c 0,64,65
 451 115 451 115 478 143 c 0,66,67
 494 159 494 159 514 159 c 128,-1,68
 534 159 534 159 549 144 c 128,-1,69
 564 129 564 129 564 108 c 0,70,71
 564 88 564 88 544 65 c 128,-1,72
 524 42 524 42 491 23 c 0,73,74
 434 -8 434 -8 337 -14 c 1,0,-1
EndSplineSet
EndChar

StartChar: Cacute
Encoding: 262 262 161
Width: 600
GlyphClass: 2
Flags: W
LayerCount: 2
Fore
SplineSet
447 563 m 2,0,-1
 457 559 l 1,1,2
 474 583 474 583 499 583 c 0,3,4
 528 583 528 583 542 559 c 0,5,6
 549 548 549 548 549 517 c 2,7,-1
 549 433 l 2,8,9
 549 400 549 400 540 388 c 0,10,11
 524 367 524 367 499 367 c 0,12,13
 478 367 478 367 464 381 c 0,14,15
 455 390 455 390 450 420 c 0,16,17
 446 438 446 438 436.5 449.5 c 128,-1,18
 427 461 427 461 406 473 c 0,19,20
 363 497 363 497 309 497 c 0,21,22
 233 497 233 497 183 445.5 c 128,-1,23
 133 394 133 394 133 315 c 2,24,-1
 133 251 l 2,25,26
 133 176 133 176 186.5 131 c 128,-1,27
 240 86 240 86 330 86 c 0,28,29
 402 86 402 86 440 109 c 0,30,31
 451 115 451 115 478 143 c 0,32,33
 494 159 494 159 514 159 c 128,-1,34
 534 159 534 159 549 144 c 128,-1,35
 564 129 564 129 564 109 c 0,36,37
 564 73 564 73 511 36 c 0,38,39
 442 -14 442 -14 327 -14 c 0,40,41
 200 -14 200 -14 116.5 60.5 c 128,-1,42
 33 135 33 135 33 249 c 2,43,-1
 33 315 l 2,44,45
 33 435 33 435 111 516 c 128,-1,46
 189 597 189 597 305 597 c 0,47,48
 375 597 375 597 447 563 c 2,0,-1
452 767 m 2,49,-1
 319 656 l 2,50,51
 300 640 300 640 287 640 c 0,52,53
 272 640 272 640 261 651 c 128,-1,54
 250 662 250 662 250 676 c 0,55,56
 250 695 250 695 273 712 c 2,57,-1
 406 824 l 2,58,59
 425 839 425 839 438 839 c 0,60,61
 454 839 454 839 464.5 828.5 c 128,-1,62
 475 818 475 818 475 803 c 0,63,64
 475 785 475 785 452 767 c 2,49,-1
EndSplineSet
EndChar

StartChar: Ccaron
Encoding: 268 268 162
Width: 600
GlyphClass: 2
Flags: W
LayerCount: 2
Fore
SplineSet
447 563 m 2,0,-1
 457 559 l 1,1,2
 474 583 474 583 499 583 c 0,3,4
 528 583 528 583 542 559 c 0,5,6
 549 548 549 548 549 517 c 2,7,-1
 549 433 l 2,8,9
 549 400 549 400 540 388 c 0,10,11
 524 367 524 367 499 367 c 0,12,13
 478 367 478 367 464 381 c 0,14,15
 455 390 455 390 450 420 c 0,16,17
 446 438 446 438 436.5 449.5 c 128,-1,18
 427 461 427 461 406 473 c 0,19,20
 363 497 363 497 309 497 c 0,21,22
 233 497 233 497 183 445.5 c 128,-1,23
 133 394 133 394 133 315 c 2,24,-1
 133 251 l 2,25,26
 133 176 133 176 186.5 131 c 128,-1,27
 240 86 240 86 330 86 c 0,28,29
 402 86 402 86 440 109 c 0,30,31
 451 115 451 115 478 143 c 0,32,33
 494 159 494 159 514 159 c 128,-1,34
 534 159 534 159 549 144 c 128,-1,35
 564 129 564 129 564 109 c 0,36,37
 564 73 564 73 511 36 c 0,38,39
 442 -14 442 -14 327 -14 c 0,40,41
 200 -14 200 -14 116.5 60.5 c 128,-1,42
 33 135 33 135 33 249 c 2,43,-1
 33 315 l 2,44,45
 33 435 33 435 111 516 c 128,-1,46
 189 597 189 597 305 597 c 0,47,48
 375 597 375 597 447 563 c 2,0,-1
301 729 m 1,49,-1
 413 826 l 2,50,51
 430 839 430 839 442 839 c 0,52,53
 455 839 455 839 465.5 828.5 c 128,-1,54
 476 818 476 818 476 804 c 0,55,56
 476 788 476 788 461 776 c 2,57,-1
 452 768 l 1,58,-1
 301 640 l 1,59,-1
 149 768 l 2,60,61
 133 782 133 782 129 787.5 c 128,-1,62
 125 793 125 793 125 803 c 0,63,64
 125 817 125 817 135.5 828 c 128,-1,65
 146 839 146 839 160 839 c 0,66,67
 171 839 171 839 188 826 c 2,68,-1
 301 729 l 1,49,-1
EndSplineSet
EndChar

StartChar: Dcaron
Encoding: 270 270 163
Width: 600
GlyphClass: 2
Flags: W
LayerCount: 2
Fore
SplineSet
74 100 m 1,0,-1
 74 483 l 1,1,2
 13 483 13 483 13 533 c 0,3,4
 13 562 13 562 37 576 c 0,5,6
 48 583 48 583 80 583 c 2,7,-1
 292 583 l 2,8,9
 401 583 401 583 475.5 503 c 128,-1,10
 550 423 550 423 550 305 c 2,11,-1
 550 258 l 2,12,13
 550 148 550 148 480 75 c 0,14,15
 409 0 409 0 284 0 c 2,16,-1
 80 0 l 2,17,18
 47 0 47 0 34 10 c 0,19,20
 13 25 13 25 13 50 c 0,21,22
 13 74 13 74 29 87 c 128,-1,23
 45 100 45 100 74 100 c 1,0,-1
174 100 m 1,24,-1
 285 100 l 2,25,26
 330 100 330 100 358 110 c 128,-1,27
 386 120 386 120 409 144 c 0,28,29
 450 189 450 189 450 261 c 2,30,-1
 450 307 l 2,31,32
 450 379 450 379 405 432 c 0,33,34
 361 483 361 483 284 483 c 2,35,-1
 174 483 l 1,36,-1
 174 100 l 1,24,-1
301 729 m 1,37,-1
 413 826 l 2,38,39
 430 839 430 839 442 839 c 0,40,41
 455 839 455 839 465.5 828.5 c 128,-1,42
 476 818 476 818 476 804 c 0,43,44
 476 788 476 788 461 776 c 2,45,-1
 452 768 l 1,46,-1
 301 640 l 1,47,-1
 149 768 l 2,48,49
 133 782 133 782 129 787.5 c 128,-1,50
 125 793 125 793 125 803 c 0,51,52
 125 817 125 817 135.5 828 c 128,-1,53
 146 839 146 839 160 839 c 0,54,55
 171 839 171 839 188 826 c 2,56,-1
 301 729 l 1,37,-1
EndSplineSet
EndChar

StartChar: Edieresis
Encoding: 203 203 164
Width: 600
GlyphClass: 2
Flags: W
LayerCount: 2
Fore
SplineSet
194 243 m 1,0,-1
 194 100 l 1,1,-1
 450 100 l 1,2,-1
 450 152 l 2,3,4
 450 185 450 185 459 198 c 0,5,6
 474 219 474 219 500 219 c 0,7,8
 527 219 527 219 543 195 c 0,9,10
 550 182 550 182 550 152 c 2,11,-1
 550 0 l 1,12,-1
 79 0 l 2,13,14
 45 0 45 0 34 10 c 0,15,16
 13 25 13 25 13 50 c 0,17,18
 13 77 13 77 37 93 c 0,19,20
 48 100 48 100 79 100 c 2,21,-1
 94 100 l 1,22,-1
 94 483 l 1,23,-1
 79 483 l 2,24,25
 46 483 46 483 34 492 c 0,26,27
 13 508 13 508 13 533 c 0,28,29
 13 562 13 562 37 576 c 0,30,31
 48 583 48 583 79 583 c 2,32,-1
 528 583 l 1,33,-1
 528 433 l 2,34,35
 528 400 528 400 519 387 c 0,36,37
 503 366 503 366 478 366 c 0,38,39
 451 366 451 366 435 390 c 0,40,41
 428 403 428 403 428 433 c 2,42,-1
 428 483 l 1,43,-1
 194 483 l 1,44,-1
 194 342 l 1,45,-1
 279 342 l 1,46,-1
 279 349 l 2,47,48
 279 382 279 382 288 395 c 0,49,50
 304 416 304 416 328 416 c 0,51,52
 370 416 370 416 377 370 c 0,53,54
 378 361 378 361 378 349 c 2,55,-1
 378 236 l 2,56,57
 378 203 378 203 369 191 c 0,58,59
 353 170 353 170 329 170 c 0,60,61
 300 170 300 170 286 194 c 0,62,63
 279 207 279 207 279 236 c 2,64,-1
 279 243 l 1,65,-1
 194 243 l 1,0,-1
187 798 m 128,-1,67
 212 798 212 798 229.5 780.5 c 128,-1,68
 247 763 247 763 247 737 c 0,69,70
 247 713 247 713 229.5 695.5 c 128,-1,71
 212 678 212 678 187 678 c 128,-1,72
 162 678 162 678 144.5 695.5 c 128,-1,73
 127 713 127 713 127 738 c 128,-1,74
 127 763 127 763 144.5 780.5 c 128,-1,66
 162 798 162 798 187 798 c 128,-1,67
395 798 m 128,-1,76
 420 798 420 798 437.5 780.5 c 128,-1,77
 455 763 455 763 455 737 c 0,78,79
 455 713 455 713 437.5 695.5 c 128,-1,80
 420 678 420 678 395 678 c 128,-1,81
 370 678 370 678 352.5 695.5 c 128,-1,82
 335 713 335 713 335 738 c 128,-1,83
 335 763 335 763 352.5 780.5 c 128,-1,75
 370 798 370 798 395 798 c 128,-1,76
EndSplineSet
EndChar

StartChar: Eacute
Encoding: 201 201 165
Width: 600
GlyphClass: 2
Flags: W
LayerCount: 2
Fore
SplineSet
194 243 m 1,0,-1
 194 100 l 1,1,-1
 450 100 l 1,2,-1
 450 152 l 2,3,4
 450 185 450 185 459 198 c 0,5,6
 474 219 474 219 500 219 c 0,7,8
 527 219 527 219 543 195 c 0,9,10
 550 182 550 182 550 152 c 2,11,-1
 550 0 l 1,12,-1
 79 0 l 2,13,14
 45 0 45 0 34 10 c 0,15,16
 13 25 13 25 13 50 c 0,17,18
 13 77 13 77 37 93 c 0,19,20
 48 100 48 100 79 100 c 2,21,-1
 94 100 l 1,22,-1
 94 483 l 1,23,-1
 79 483 l 2,24,25
 46 483 46 483 34 492 c 0,26,27
 13 508 13 508 13 533 c 0,28,29
 13 562 13 562 37 576 c 0,30,31
 48 583 48 583 79 583 c 2,32,-1
 528 583 l 1,33,-1
 528 433 l 2,34,35
 528 400 528 400 519 387 c 0,36,37
 503 366 503 366 478 366 c 0,38,39
 451 366 451 366 435 390 c 0,40,41
 428 403 428 403 428 433 c 2,42,-1
 428 483 l 1,43,-1
 194 483 l 1,44,-1
 194 342 l 1,45,-1
 279 342 l 1,46,-1
 279 349 l 2,47,48
 279 382 279 382 288 395 c 0,49,50
 304 416 304 416 328 416 c 0,51,52
 370 416 370 416 377 370 c 0,53,54
 378 361 378 361 378 349 c 2,55,-1
 378 236 l 2,56,57
 378 203 378 203 369 191 c 0,58,59
 353 170 353 170 329 170 c 0,60,61
 300 170 300 170 286 194 c 0,62,63
 279 207 279 207 279 236 c 2,64,-1
 279 243 l 1,65,-1
 194 243 l 1,0,-1
417 767 m 2,66,-1
 284 656 l 2,67,68
 265 640 265 640 252 640 c 0,69,70
 237 640 237 640 226 651 c 128,-1,71
 215 662 215 662 215 676 c 0,72,73
 215 695 215 695 238 712 c 2,74,-1
 371 824 l 2,75,76
 390 839 390 839 403 839 c 0,77,78
 419 839 419 839 429.5 828.5 c 128,-1,79
 440 818 440 818 440 803 c 0,80,81
 440 785 440 785 417 767 c 2,66,-1
EndSplineSet
EndChar

StartChar: Egrave
Encoding: 200 200 166
Width: 600
GlyphClass: 2
Flags: W
LayerCount: 2
Fore
SplineSet
194 243 m 1,0,-1
 194 100 l 1,1,-1
 450 100 l 1,2,-1
 450 152 l 2,3,4
 450 185 450 185 459 198 c 0,5,6
 474 219 474 219 500 219 c 0,7,8
 527 219 527 219 543 195 c 0,9,10
 550 182 550 182 550 152 c 2,11,-1
 550 0 l 1,12,-1
 79 0 l 2,13,14
 45 0 45 0 34 10 c 0,15,16
 13 25 13 25 13 50 c 0,17,18
 13 77 13 77 37 93 c 0,19,20
 48 100 48 100 79 100 c 2,21,-1
 94 100 l 1,22,-1
 94 483 l 1,23,-1
 79 483 l 2,24,25
 46 483 46 483 34 492 c 0,26,27
 13 508 13 508 13 533 c 0,28,29
 13 562 13 562 37 576 c 0,30,31
 48 583 48 583 79 583 c 2,32,-1
 528 583 l 1,33,-1
 528 433 l 2,34,35
 528 400 528 400 519 387 c 0,36,37
 503 366 503 366 478 366 c 0,38,39
 451 366 451 366 435 390 c 0,40,41
 428 403 428 403 428 433 c 2,42,-1
 428 483 l 1,43,-1
 194 483 l 1,44,-1
 194 342 l 1,45,-1
 279 342 l 1,46,-1
 279 349 l 2,47,48
 279 382 279 382 288 395 c 0,49,50
 304 416 304 416 328 416 c 0,51,52
 370 416 370 416 377 370 c 0,53,54
 378 361 378 361 378 349 c 2,55,-1
 378 236 l 2,56,57
 378 203 378 203 369 191 c 0,58,59
 353 170 353 170 329 170 c 0,60,61
 300 170 300 170 286 194 c 0,62,63
 279 207 279 207 279 236 c 2,64,-1
 279 243 l 1,65,-1
 194 243 l 1,0,-1
211 824 m 2,66,-1
 344 712 l 2,67,68
 367 693 367 693 367 676 c 0,69,70
 367 662 367 662 356 651 c 128,-1,71
 345 640 345 640 330 640 c 0,72,73
 317 640 317 640 298 656 c 2,74,-1
 165 767 l 2,75,76
 142 786 142 786 142 803 c 0,77,78
 142 818 142 818 152.5 828.5 c 128,-1,79
 163 839 163 839 179 839 c 0,80,81
 192 839 192 839 211 824 c 2,66,-1
EndSplineSet
EndChar

StartChar: Ecircumflex
Encoding: 202 202 167
Width: 600
GlyphClass: 2
Flags: W
LayerCount: 2
Fore
SplineSet
194 243 m 1,0,-1
 194 100 l 1,1,-1
 450 100 l 1,2,-1
 450 152 l 2,3,4
 450 185 450 185 459 198 c 0,5,6
 474 219 474 219 500 219 c 0,7,8
 527 219 527 219 543 195 c 0,9,10
 550 182 550 182 550 152 c 2,11,-1
 550 0 l 1,12,-1
 79 0 l 2,13,14
 45 0 45 0 34 10 c 0,15,16
 13 25 13 25 13 50 c 0,17,18
 13 77 13 77 37 93 c 0,19,20
 48 100 48 100 79 100 c 2,21,-1
 94 100 l 1,22,-1
 94 483 l 1,23,-1
 79 483 l 2,24,25
 46 483 46 483 34 492 c 0,26,27
 13 508 13 508 13 533 c 0,28,29
 13 562 13 562 37 576 c 0,30,31
 48 583 48 583 79 583 c 2,32,-1
 528 583 l 1,33,-1
 528 433 l 2,34,35
 528 400 528 400 519 387 c 0,36,37
 503 366 503 366 478 366 c 0,38,39
 451 366 451 366 435 390 c 0,40,41
 428 403 428 403 428 433 c 2,42,-1
 428 483 l 1,43,-1
 194 483 l 1,44,-1
 194 342 l 1,45,-1
 279 342 l 1,46,-1
 279 349 l 2,47,48
 279 382 279 382 288 395 c 0,49,50
 304 416 304 416 328 416 c 0,51,52
 370 416 370 416 377 370 c 0,53,54
 378 361 378 361 378 349 c 2,55,-1
 378 236 l 2,56,57
 378 203 378 203 369 191 c 0,58,59
 353 170 353 170 329 170 c 0,60,61
 300 170 300 170 286 194 c 0,62,63
 279 207 279 207 279 236 c 2,64,-1
 279 243 l 1,65,-1
 194 243 l 1,0,-1
292 750 m 1,66,-1
 179 653 l 2,67,68
 163 640 163 640 151 640 c 0,69,70
 137 640 137 640 126.5 650.5 c 128,-1,71
 116 661 116 661 116 675 c 0,72,73
 116 686 116 686 119.5 691.5 c 128,-1,74
 123 697 123 697 140 711 c 2,75,-1
 292 839 l 1,76,-1
 443 711 l 1,77,-1
 452 703 l 2,78,79
 467 691 467 691 467 675 c 0,80,81
 467 661 467 661 456.5 650.5 c 128,-1,82
 446 640 446 640 433 640 c 128,-1,83
 420 640 420 640 404 653 c 2,84,-1
 292 750 l 1,66,-1
EndSplineSet
EndChar

StartChar: Ecaron
Encoding: 282 282 168
Width: 600
GlyphClass: 2
Flags: W
LayerCount: 2
Fore
SplineSet
194 243 m 1,0,-1
 194 100 l 1,1,-1
 450 100 l 1,2,-1
 450 152 l 2,3,4
 450 185 450 185 459 198 c 0,5,6
 474 219 474 219 500 219 c 0,7,8
 527 219 527 219 543 195 c 0,9,10
 550 182 550 182 550 152 c 2,11,-1
 550 0 l 1,12,-1
 79 0 l 2,13,14
 45 0 45 0 34 10 c 0,15,16
 13 25 13 25 13 50 c 0,17,18
 13 77 13 77 37 93 c 0,19,20
 48 100 48 100 79 100 c 2,21,-1
 94 100 l 1,22,-1
 94 483 l 1,23,-1
 79 483 l 2,24,25
 46 483 46 483 34 492 c 0,26,27
 13 508 13 508 13 533 c 0,28,29
 13 562 13 562 37 576 c 0,30,31
 48 583 48 583 79 583 c 2,32,-1
 528 583 l 1,33,-1
 528 433 l 2,34,35
 528 400 528 400 519 387 c 0,36,37
 503 366 503 366 478 366 c 0,38,39
 451 366 451 366 435 390 c 0,40,41
 428 403 428 403 428 433 c 2,42,-1
 428 483 l 1,43,-1
 194 483 l 1,44,-1
 194 342 l 1,45,-1
 279 342 l 1,46,-1
 279 349 l 2,47,48
 279 382 279 382 288 395 c 0,49,50
 304 416 304 416 328 416 c 0,51,52
 370 416 370 416 377 370 c 0,53,54
 378 361 378 361 378 349 c 2,55,-1
 378 236 l 2,56,57
 378 203 378 203 369 191 c 0,58,59
 353 170 353 170 329 170 c 0,60,61
 300 170 300 170 286 194 c 0,62,63
 279 207 279 207 279 236 c 2,64,-1
 279 243 l 1,65,-1
 194 243 l 1,0,-1
301 729 m 1,66,-1
 413 826 l 2,67,68
 430 839 430 839 442 839 c 0,69,70
 455 839 455 839 465.5 828.5 c 128,-1,71
 476 818 476 818 476 804 c 0,72,73
 476 788 476 788 461 776 c 2,74,-1
 452 768 l 1,75,-1
 301 640 l 1,76,-1
 149 768 l 2,77,78
 133 782 133 782 129 787.5 c 128,-1,79
 125 793 125 793 125 803 c 0,80,81
 125 817 125 817 135.5 828 c 128,-1,82
 146 839 146 839 160 839 c 0,83,84
 171 839 171 839 188 826 c 2,85,-1
 301 729 l 1,66,-1
EndSplineSet
EndChar

StartChar: Edotaccent
Encoding: 278 278 169
Width: 600
GlyphClass: 2
Flags: W
LayerCount: 2
Fore
SplineSet
194 243 m 1,0,-1
 194 100 l 1,1,-1
 450 100 l 1,2,-1
 450 152 l 2,3,4
 450 185 450 185 459 198 c 0,5,6
 474 219 474 219 500 219 c 0,7,8
 527 219 527 219 543 195 c 0,9,10
 550 182 550 182 550 152 c 2,11,-1
 550 0 l 1,12,-1
 79 0 l 2,13,14
 45 0 45 0 34 10 c 0,15,16
 13 25 13 25 13 50 c 0,17,18
 13 77 13 77 37 93 c 0,19,20
 48 100 48 100 79 100 c 2,21,-1
 94 100 l 1,22,-1
 94 483 l 1,23,-1
 79 483 l 2,24,25
 46 483 46 483 34 492 c 0,26,27
 13 508 13 508 13 533 c 0,28,29
 13 562 13 562 37 576 c 0,30,31
 48 583 48 583 79 583 c 2,32,-1
 528 583 l 1,33,-1
 528 433 l 2,34,35
 528 400 528 400 519 387 c 0,36,37
 503 366 503 366 478 366 c 0,38,39
 451 366 451 366 435 390 c 0,40,41
 428 403 428 403 428 433 c 2,42,-1
 428 483 l 1,43,-1
 194 483 l 1,44,-1
 194 342 l 1,45,-1
 279 342 l 1,46,-1
 279 349 l 2,47,48
 279 382 279 382 288 395 c 0,49,50
 304 416 304 416 328 416 c 0,51,52
 370 416 370 416 377 370 c 0,53,54
 378 361 378 361 378 349 c 2,55,-1
 378 236 l 2,56,57
 378 203 378 203 369 191 c 0,58,59
 353 170 353 170 329 170 c 0,60,61
 300 170 300 170 286 194 c 0,62,63
 279 207 279 207 279 236 c 2,64,-1
 279 243 l 1,65,-1
 194 243 l 1,0,-1
300 798 m 128,-1,67
 325 798 325 798 342.5 780.5 c 128,-1,68
 360 763 360 763 360 737 c 0,69,70
 360 713 360 713 342.5 695.5 c 128,-1,71
 325 678 325 678 300 678 c 128,-1,72
 275 678 275 678 257.5 695.5 c 128,-1,73
 240 713 240 713 240 738 c 128,-1,74
 240 763 240 763 257.5 780.5 c 128,-1,66
 275 798 275 798 300 798 c 128,-1,67
EndSplineSet
EndChar

StartChar: Eogonek
Encoding: 280 280 170
Width: 600
GlyphClass: 2
Flags: W
LayerCount: 2
Fore
SplineSet
528 583 m 1,0,-1
 528 433 l 2,1,2
 528 400 528 400 519 387 c 0,3,4
 503 366 503 366 478 366 c 0,5,6
 451 366 451 366 435 390 c 0,7,8
 428 403 428 403 428 433 c 2,9,-1
 428 483 l 1,10,-1
 194 483 l 1,11,-1
 194 342 l 1,12,-1
 279 342 l 1,13,-1
 279 349 l 2,14,15
 279 382 279 382 288 395 c 0,16,17
 304 416 304 416 328 416 c 0,18,19
 370 416 370 416 377 370 c 0,20,21
 378 361 378 361 378 349 c 2,22,-1
 378 236 l 2,23,24
 378 203 378 203 369 191 c 0,25,26
 353 170 353 170 329 170 c 0,27,28
 300 170 300 170 286 194 c 0,29,30
 279 207 279 207 279 236 c 2,31,-1
 279 243 l 1,32,-1
 194 243 l 1,33,-1
 194 100 l 1,34,-1
 450 100 l 1,35,-1
 450 152 l 2,36,37
 450 185 450 185 459 198 c 0,38,39
 474 219 474 219 500 219 c 0,40,41
 527 219 527 219 543 195 c 0,42,43
 550 182 550 182 550 152 c 2,44,-1
 550 0 l 1,45,46
 496 -37 496 -37 473 -62.5 c 128,-1,47
 450 -88 450 -88 450 -112 c 0,48,49
 450 -132 450 -132 474 -132 c 0,50,51
 491 -132 491 -132 526 -114 c 0,52,53
 538 -108 538 -108 548 -108 c 0,54,55
 564 -108 564 -108 575.5 -119 c 128,-1,56
 587 -130 587 -130 587 -146 c 0,57,58
 587 -173 587 -173 552 -189 c 0,59,60
 509 -208 509 -208 467 -208 c 0,61,62
 423 -208 423 -208 398 -184 c 128,-1,63
 373 -160 373 -160 373 -119 c 0,64,65
 373 -82 373 -82 390.5 -55.5 c 128,-1,66
 408 -29 408 -29 452 0 c 1,67,-1
 79 0 l 2,68,69
 45 0 45 0 34 10 c 0,70,71
 13 25 13 25 13 50 c 0,72,73
 13 77 13 77 37 93 c 0,74,75
 48 100 48 100 79 100 c 2,76,-1
 94 100 l 1,77,-1
 94 483 l 1,78,-1
 79 483 l 2,79,80
 46 483 46 483 34 492 c 0,81,82
 13 508 13 508 13 533 c 0,83,84
 13 562 13 562 37 576 c 0,85,86
 48 583 48 583 79 583 c 2,87,-1
 528 583 l 1,0,-1
EndSplineSet
EndChar

StartChar: Gbreve
Encoding: 286 286 171
Width: 600
GlyphClass: 2
Flags: W
LayerCount: 2
Fore
SplineSet
550 180 m 1,0,-1
 550 48 l 1,1,2
 483 13 483 13 436 -0.5 c 128,-1,3
 389 -14 389 -14 331 -14 c 0,4,5
 176 -14 176 -14 99 65 c 0,6,7
 33 134 33 134 33 246 c 2,8,-1
 33 317 l 2,9,10
 33 436 33 436 117 520 c 0,11,12
 195 597 195 597 317 597 c 0,13,14
 398 597 398 597 462 565 c 1,15,16
 478 597 478 597 503 597 c 0,17,18
 532 597 532 597 543 573 c 0,19,20
 550 561 550 561 550 531 c 2,21,-1
 550 453 l 2,22,23
 550 419 550 419 541 408 c 0,24,25
 525 387 525 387 500 387 c 0,26,27
 478 387 478 387 465 402 c 0,28,29
 459 409 459 409 451 440 c 0,30,31
 443 466 443 466 408 481.5 c 128,-1,32
 373 497 373 497 318 497 c 0,33,34
 233 497 233 497 186 450 c 0,35,36
 133 397 133 397 133 317 c 2,37,-1
 133 253 l 2,38,39
 133 168 133 168 178 130 c 0,40,41
 230 86 230 86 325 86 c 0,42,43
 394 86 394 86 450 111 c 1,44,-1
 450 180 l 1,45,-1
 350 180 l 2,46,47
 316 180 316 180 305 190 c 0,48,49
 284 205 284 205 284 230 c 0,50,51
 284 259 284 259 308 273 c 0,52,53
 318 280 318 280 350 280 c 2,54,-1
 525 280 l 2,55,56
 558 280 558 280 571 271 c 0,57,58
 592 256 592 256 592 230 c 0,59,60
 592 192 592 192 550 180 c 1,0,-1
172 831 m 128,-1,62
 187 831 187 831 194 822.5 c 128,-1,63
 201 814 201 814 206 791 c 0,64,65
 214 756 214 756 243 735.5 c 128,-1,66
 272 715 272 715 313 715 c 128,-1,67
 354 715 354 715 383 735.5 c 128,-1,68
 412 756 412 756 420 791 c 0,69,70
 425 814 425 814 432 822.5 c 128,-1,71
 439 831 439 831 454 831 c 128,-1,72
 469 831 469 831 478.5 820.5 c 128,-1,73
 488 810 488 810 488 793 c 0,74,75
 488 736 488 736 435 691.5 c 128,-1,76
 382 647 382 647 313 647 c 128,-1,77
 244 647 244 647 191 691.5 c 128,-1,78
 138 736 138 736 138 793 c 0,79,80
 138 810 138 810 147.5 820.5 c 128,-1,61
 157 831 157 831 172 831 c 128,-1,62
EndSplineSet
EndChar

StartChar: Idieresis
Encoding: 207 207 172
Width: 600
GlyphClass: 2
Flags: W
LayerCount: 2
Fore
SplineSet
350 483 m 1,0,-1
 350 100 l 1,1,-1
 451 100 l 2,2,3
 483 100 483 100 496 91 c 0,4,5
 517 76 517 76 517 50 c 0,6,7
 517 0 517 0 451 0 c 2,8,-1
 149 0 l 2,9,10
 117 0 117 0 104 10 c 0,11,12
 83 25 83 25 83 50 c 0,13,14
 83 79 83 79 107 93 c 0,15,16
 118 100 118 100 149 100 c 2,17,-1
 250 100 l 1,18,-1
 250 483 l 1,19,-1
 149 483 l 2,20,21
 116 483 116 483 104 492 c 0,22,23
 83 508 83 508 83 533 c 0,24,25
 83 562 83 562 107 576 c 0,26,27
 118 583 118 583 149 583 c 2,28,-1
 451 583 l 2,29,30
 483 583 483 583 496 574 c 0,31,32
 517 559 517 559 517 533 c 0,33,34
 517 504 517 504 493 490 c 0,35,36
 482 483 482 483 451 483 c 2,37,-1
 350 483 l 1,0,-1
196 798 m 128,-1,39
 221 798 221 798 238.5 780.5 c 128,-1,40
 256 763 256 763 256 737 c 0,41,42
 256 713 256 713 238.5 695.5 c 128,-1,43
 221 678 221 678 196 678 c 128,-1,44
 171 678 171 678 153.5 695.5 c 128,-1,45
 136 713 136 713 136 738 c 128,-1,46
 136 763 136 763 153.5 780.5 c 128,-1,38
 171 798 171 798 196 798 c 128,-1,39
404 798 m 128,-1,48
 429 798 429 798 446.5 780.5 c 128,-1,49
 464 763 464 763 464 737 c 0,50,51
 464 713 464 713 446.5 695.5 c 128,-1,52
 429 678 429 678 404 678 c 128,-1,53
 379 678 379 678 361.5 695.5 c 128,-1,54
 344 713 344 713 344 738 c 128,-1,55
 344 763 344 763 361.5 780.5 c 128,-1,47
 379 798 379 798 404 798 c 128,-1,48
EndSplineSet
EndChar

StartChar: Iacute
Encoding: 205 205 173
Width: 600
GlyphClass: 2
Flags: W
LayerCount: 2
Fore
SplineSet
350 483 m 1,0,-1
 350 100 l 1,1,-1
 451 100 l 2,2,3
 483 100 483 100 496 91 c 0,4,5
 517 76 517 76 517 50 c 0,6,7
 517 0 517 0 451 0 c 2,8,-1
 149 0 l 2,9,10
 117 0 117 0 104 10 c 0,11,12
 83 25 83 25 83 50 c 0,13,14
 83 79 83 79 107 93 c 0,15,16
 118 100 118 100 149 100 c 2,17,-1
 250 100 l 1,18,-1
 250 483 l 1,19,-1
 149 483 l 2,20,21
 116 483 116 483 104 492 c 0,22,23
 83 508 83 508 83 533 c 0,24,25
 83 562 83 562 107 576 c 0,26,27
 118 583 118 583 149 583 c 2,28,-1
 451 583 l 2,29,30
 483 583 483 583 496 574 c 0,31,32
 517 559 517 559 517 533 c 0,33,34
 517 504 517 504 493 490 c 0,35,36
 482 483 482 483 451 483 c 2,37,-1
 350 483 l 1,0,-1
452 767 m 2,38,-1
 319 656 l 2,39,40
 300 640 300 640 287 640 c 0,41,42
 272 640 272 640 261 651 c 128,-1,43
 250 662 250 662 250 676 c 0,44,45
 250 695 250 695 273 712 c 2,46,-1
 406 824 l 2,47,48
 425 839 425 839 438 839 c 0,49,50
 454 839 454 839 464.5 828.5 c 128,-1,51
 475 818 475 818 475 803 c 0,52,53
 475 785 475 785 452 767 c 2,38,-1
EndSplineSet
EndChar

StartChar: Igrave
Encoding: 204 204 174
Width: 600
GlyphClass: 2
Flags: W
LayerCount: 2
Fore
SplineSet
350 483 m 1,0,-1
 350 100 l 1,1,-1
 451 100 l 2,2,3
 483 100 483 100 496 91 c 0,4,5
 517 76 517 76 517 50 c 0,6,7
 517 0 517 0 451 0 c 2,8,-1
 149 0 l 2,9,10
 117 0 117 0 104 10 c 0,11,12
 83 25 83 25 83 50 c 0,13,14
 83 79 83 79 107 93 c 0,15,16
 118 100 118 100 149 100 c 2,17,-1
 250 100 l 1,18,-1
 250 483 l 1,19,-1
 149 483 l 2,20,21
 116 483 116 483 104 492 c 0,22,23
 83 508 83 508 83 533 c 0,24,25
 83 562 83 562 107 576 c 0,26,27
 118 583 118 583 149 583 c 2,28,-1
 451 583 l 2,29,30
 483 583 483 583 496 574 c 0,31,32
 517 559 517 559 517 533 c 0,33,34
 517 504 517 504 493 490 c 0,35,36
 482 483 482 483 451 483 c 2,37,-1
 350 483 l 1,0,-1
220 824 m 2,38,-1
 353 712 l 2,39,40
 376 693 376 693 376 676 c 0,41,42
 376 662 376 662 365 651 c 128,-1,43
 354 640 354 640 339 640 c 0,44,45
 326 640 326 640 307 656 c 2,46,-1
 174 767 l 2,47,48
 151 786 151 786 151 803 c 0,49,50
 151 818 151 818 161.5 828.5 c 128,-1,51
 172 839 172 839 188 839 c 0,52,53
 201 839 201 839 220 824 c 2,38,-1
EndSplineSet
EndChar

StartChar: Icircumflex
Encoding: 206 206 175
Width: 600
GlyphClass: 2
Flags: W
LayerCount: 2
Fore
SplineSet
350 483 m 1,0,-1
 350 100 l 1,1,-1
 451 100 l 2,2,3
 483 100 483 100 496 91 c 0,4,5
 517 76 517 76 517 50 c 0,6,7
 517 0 517 0 451 0 c 2,8,-1
 149 0 l 2,9,10
 117 0 117 0 104 10 c 0,11,12
 83 25 83 25 83 50 c 0,13,14
 83 79 83 79 107 93 c 0,15,16
 118 100 118 100 149 100 c 2,17,-1
 250 100 l 1,18,-1
 250 483 l 1,19,-1
 149 483 l 2,20,21
 116 483 116 483 104 492 c 0,22,23
 83 508 83 508 83 533 c 0,24,25
 83 562 83 562 107 576 c 0,26,27
 118 583 118 583 149 583 c 2,28,-1
 451 583 l 2,29,30
 483 583 483 583 496 574 c 0,31,32
 517 559 517 559 517 533 c 0,33,34
 517 504 517 504 493 490 c 0,35,36
 482 483 482 483 451 483 c 2,37,-1
 350 483 l 1,0,-1
300 750 m 1,38,-1
 187 653 l 2,39,40
 171 640 171 640 159 640 c 0,41,42
 145 640 145 640 134.5 650.5 c 128,-1,43
 124 661 124 661 124 675 c 0,44,45
 124 686 124 686 128 691.5 c 128,-1,46
 132 697 132 697 148 711 c 2,47,-1
 300 839 l 1,48,-1
 451 711 l 1,49,-1
 460 703 l 2,50,51
 475 691 475 691 475 675 c 0,52,53
 475 661 475 661 464.5 650.5 c 128,-1,54
 454 640 454 640 441 640 c 128,-1,55
 428 640 428 640 412 653 c 2,56,-1
 300 750 l 1,38,-1
EndSplineSet
EndChar

StartChar: Idotaccent
Encoding: 304 304 176
Width: 600
GlyphClass: 2
Flags: W
LayerCount: 2
Fore
SplineSet
350 483 m 1,0,-1
 350 100 l 1,1,-1
 451 100 l 2,2,3
 483 100 483 100 496 91 c 0,4,5
 517 76 517 76 517 50 c 0,6,7
 517 0 517 0 451 0 c 2,8,-1
 149 0 l 2,9,10
 117 0 117 0 104 10 c 0,11,12
 83 25 83 25 83 50 c 0,13,14
 83 79 83 79 107 93 c 0,15,16
 118 100 118 100 149 100 c 2,17,-1
 250 100 l 1,18,-1
 250 483 l 1,19,-1
 149 483 l 2,20,21
 116 483 116 483 104 492 c 0,22,23
 83 508 83 508 83 533 c 0,24,25
 83 562 83 562 107 576 c 0,26,27
 118 583 118 583 149 583 c 2,28,-1
 451 583 l 2,29,30
 483 583 483 583 496 574 c 0,31,32
 517 559 517 559 517 533 c 0,33,34
 517 504 517 504 493 490 c 0,35,36
 482 483 482 483 451 483 c 2,37,-1
 350 483 l 1,0,-1
300 798 m 128,-1,39
 325 798 325 798 342.5 780.5 c 128,-1,40
 360 763 360 763 360 737 c 0,41,42
 360 713 360 713 342.5 695.5 c 128,-1,43
 325 678 325 678 300 678 c 128,-1,44
 275 678 275 678 257.5 695.5 c 128,-1,45
 240 713 240 713 240 738 c 128,-1,46
 240 763 240 763 257.5 780.5 c 128,-1,38
 275 798 275 798 300 798 c 128,-1,39
EndSplineSet
EndChar

StartChar: Lacute
Encoding: 313 313 177
Width: 600
GlyphClass: 2
Flags: W
LayerCount: 2
Fore
SplineSet
256 483 m 1,0,-1
 256 100 l 1,1,-1
 471 100 l 1,2,-1
 471 192 l 2,3,4
 471 225 471 225 480 238 c 0,5,6
 495 259 495 259 521 259 c 0,7,8
 548 259 548 259 564 235 c 0,9,10
 571 225 571 225 571 192 c 2,11,-1
 571 0 l 1,12,-1
 99 0 l 2,13,14
 65 0 65 0 54 10 c 0,15,16
 33 25 33 25 33 50 c 0,17,18
 33 79 33 79 57 93 c 0,19,20
 68 100 68 100 99 100 c 2,21,-1
 156 100 l 1,22,-1
 156 483 l 1,23,-1
 99 483 l 2,24,25
 66 483 66 483 54 492 c 0,26,27
 33 508 33 508 33 533 c 0,28,29
 33 562 33 562 57 576 c 0,30,31
 68 583 68 583 99 583 c 2,32,-1
 313 583 l 2,33,34
 345 583 345 583 358 574 c 0,35,36
 379 558 379 558 379 533 c 0,37,38
 379 504 379 504 355 490 c 0,39,40
 344 483 344 483 313 483 c 2,41,-1
 256 483 l 1,0,-1
372 767 m 2,42,-1
 239 656 l 2,43,44
 220 640 220 640 207 640 c 0,45,46
 192 640 192 640 181 651 c 128,-1,47
 170 662 170 662 170 676 c 0,48,49
 170 695 170 695 193 712 c 2,50,-1
 326 824 l 2,51,52
 345 839 345 839 358 839 c 0,53,54
 374 839 374 839 384.5 828.5 c 128,-1,55
 395 818 395 818 395 803 c 0,56,57
 395 785 395 785 372 767 c 2,42,-1
EndSplineSet
EndChar

StartChar: Lcaron
Encoding: 317 317 178
Width: 600
GlyphClass: 2
Flags: W
LayerCount: 2
Fore
SplineSet
256 483 m 1,0,-1
 256 100 l 1,1,-1
 471 100 l 1,2,-1
 471 192 l 2,3,4
 471 225 471 225 480 238 c 0,5,6
 495 259 495 259 521 259 c 0,7,8
 548 259 548 259 564 235 c 0,9,10
 571 225 571 225 571 192 c 2,11,-1
 571 0 l 1,12,-1
 99 0 l 2,13,14
 65 0 65 0 54 10 c 0,15,16
 33 25 33 25 33 50 c 0,17,18
 33 79 33 79 57 93 c 0,19,20
 68 100 68 100 99 100 c 2,21,-1
 156 100 l 1,22,-1
 156 483 l 1,23,-1
 99 483 l 2,24,25
 66 483 66 483 54 492 c 0,26,27
 33 508 33 508 33 533 c 0,28,29
 33 562 33 562 57 576 c 0,30,31
 68 583 68 583 99 583 c 2,32,-1
 313 583 l 2,33,34
 345 583 345 583 358 574 c 0,35,36
 379 558 379 558 379 533 c 0,37,38
 379 504 379 504 355 490 c 0,39,40
 344 483 344 483 313 483 c 2,41,-1
 256 483 l 1,0,-1
557 531 m 2,42,-1
 475 405 l 2,43,44
 458 379 458 379 439 379 c 0,45,46
 424 379 424 379 413 389.5 c 128,-1,47
 402 400 402 400 402 414 c 128,-1,48
 402 428 402 428 414 446 c 2,49,-1
 496 572 l 2,50,51
 513 598 513 598 534 598 c 0,52,53
 549 598 549 598 559.5 587 c 128,-1,54
 570 576 570 576 570 561 c 0,55,56
 570 550 570 550 557 531 c 2,42,-1
EndSplineSet
EndChar

StartChar: Nacute
Encoding: 323 323 179
Width: 600
GlyphClass: 2
Flags: W
LayerCount: 2
Fore
SplineSet
173 394 m 1,0,-1
 173 100 l 1,1,-1
 208 100 l 2,2,3
 241 100 241 100 254 91 c 0,4,5
 274 76 274 76 274 50 c 0,6,7
 274 23 274 23 250 7 c 0,8,9
 238 0 238 0 208 0 c 2,10,-1
 79 0 l 2,11,12
 46 0 46 0 33 10 c 0,13,14
 12 25 12 25 12 50 c 0,15,16
 12 100 12 100 73 100 c 1,17,-1
 73 483 l 1,18,-1
 58 483 l 2,19,20
 25 483 25 483 13 492 c 0,21,22
 -8 508 -8 508 -8 533 c 0,23,24
 -8 562 -8 562 16 576 c 0,25,26
 27 583 27 583 58 583 c 2,27,-1
 173 583 l 1,28,-1
 431 191 l 1,29,-1
 431 483 l 1,30,-1
 396 483 l 2,31,32
 363 483 363 483 351 492 c 0,33,34
 330 508 330 508 330 533 c 0,35,36
 330 562 330 562 354 576 c 0,37,38
 364 583 364 583 396 583 c 2,39,-1
 526 583 l 2,40,41
 558 583 558 583 571 574 c 0,42,43
 592 558 592 558 592 533 c 0,44,45
 592 483 592 483 531 483 c 1,46,-1
 531 0 l 1,47,-1
 432 0 l 1,48,-1
 173 394 l 1,0,-1
452 767 m 2,49,-1
 319 656 l 2,50,51
 300 640 300 640 287 640 c 0,52,53
 272 640 272 640 261 651 c 128,-1,54
 250 662 250 662 250 676 c 0,55,56
 250 695 250 695 273 712 c 2,57,-1
 406 824 l 2,58,59
 425 839 425 839 438 839 c 0,60,61
 454 839 454 839 464.5 828.5 c 128,-1,62
 475 818 475 818 475 803 c 0,63,64
 475 785 475 785 452 767 c 2,49,-1
EndSplineSet
EndChar

StartChar: Ncaron
Encoding: 327 327 180
Width: 600
GlyphClass: 2
Flags: W
LayerCount: 2
Fore
SplineSet
173 394 m 1,0,-1
 173 100 l 1,1,-1
 208 100 l 2,2,3
 241 100 241 100 254 91 c 0,4,5
 274 76 274 76 274 50 c 0,6,7
 274 23 274 23 250 7 c 0,8,9
 238 0 238 0 208 0 c 2,10,-1
 79 0 l 2,11,12
 46 0 46 0 33 10 c 0,13,14
 12 25 12 25 12 50 c 0,15,16
 12 100 12 100 73 100 c 1,17,-1
 73 483 l 1,18,-1
 58 483 l 2,19,20
 25 483 25 483 13 492 c 0,21,22
 -8 508 -8 508 -8 533 c 0,23,24
 -8 562 -8 562 16 576 c 0,25,26
 27 583 27 583 58 583 c 2,27,-1
 173 583 l 1,28,-1
 431 191 l 1,29,-1
 431 483 l 1,30,-1
 396 483 l 2,31,32
 363 483 363 483 351 492 c 0,33,34
 330 508 330 508 330 533 c 0,35,36
 330 562 330 562 354 576 c 0,37,38
 364 583 364 583 396 583 c 2,39,-1
 526 583 l 2,40,41
 558 583 558 583 571 574 c 0,42,43
 592 558 592 558 592 533 c 0,44,45
 592 483 592 483 531 483 c 1,46,-1
 531 0 l 1,47,-1
 432 0 l 1,48,-1
 173 394 l 1,0,-1
301 729 m 1,49,-1
 413 826 l 2,50,51
 430 839 430 839 442 839 c 0,52,53
 455 839 455 839 465.5 828.5 c 128,-1,54
 476 818 476 818 476 804 c 0,55,56
 476 788 476 788 461 776 c 2,57,-1
 452 768 l 1,58,-1
 301 640 l 1,59,-1
 149 768 l 2,60,61
 133 782 133 782 129 787.5 c 128,-1,62
 125 793 125 793 125 803 c 0,63,64
 125 817 125 817 135.5 828 c 128,-1,65
 146 839 146 839 160 839 c 0,66,67
 171 839 171 839 188 826 c 2,68,-1
 301 729 l 1,49,-1
EndSplineSet
EndChar

StartChar: Ntilde
Encoding: 209 209 181
Width: 600
GlyphClass: 2
Flags: W
LayerCount: 2
Fore
SplineSet
173 394 m 1,0,-1
 173 100 l 1,1,-1
 208 100 l 2,2,3
 241 100 241 100 254 91 c 0,4,5
 274 76 274 76 274 50 c 0,6,7
 274 23 274 23 250 7 c 0,8,9
 238 0 238 0 208 0 c 2,10,-1
 79 0 l 2,11,12
 46 0 46 0 33 10 c 0,13,14
 12 25 12 25 12 50 c 0,15,16
 12 100 12 100 73 100 c 1,17,-1
 73 483 l 1,18,-1
 58 483 l 2,19,20
 25 483 25 483 13 492 c 0,21,22
 -8 508 -8 508 -8 533 c 0,23,24
 -8 562 -8 562 16 576 c 0,25,26
 27 583 27 583 58 583 c 2,27,-1
 173 583 l 1,28,-1
 431 191 l 1,29,-1
 431 483 l 1,30,-1
 396 483 l 2,31,32
 363 483 363 483 351 492 c 0,33,34
 330 508 330 508 330 533 c 0,35,36
 330 562 330 562 354 576 c 0,37,38
 364 583 364 583 396 583 c 2,39,-1
 526 583 l 2,40,41
 558 583 558 583 571 574 c 0,42,43
 592 558 592 558 592 533 c 0,44,45
 592 483 592 483 531 483 c 1,46,-1
 531 0 l 1,47,-1
 432 0 l 1,48,-1
 173 394 l 1,0,-1
451 799 m 1,49,50
 484 796 484 796 484 771 c 0,51,52
 484 751 484 751 455 715 c 0,53,54
 417 667 417 667 375 667 c 0,55,56
 342 667 342 667 276 709 c 0,57,58
 244 730 244 730 226 730 c 0,59,60
 212 730 212 730 202 722 c 128,-1,61
 192 714 192 714 170 684 c 0,62,63
 159 670 159 670 145 670 c 0,64,65
 132 670 132 670 123 678.5 c 128,-1,66
 114 687 114 687 114 700 c 0,67,68
 114 721 114 721 140 753 c 0,69,70
 178 799 178 799 223 799 c 0,71,72
 252 799 252 799 314 762 c 0,73,74
 358 736 358 736 372 736 c 0,75,76
 383 736 383 736 389.5 741.5 c 128,-1,77
 396 747 396 747 413 770 c 0,78,79
 432 798 432 798 451 799 c 1,49,50
EndSplineSet
EndChar

StartChar: Odieresis
Encoding: 214 214 182
Width: 600
GlyphClass: 2
Flags: W
LayerCount: 2
Fore
SplineSet
300 597 m 0,0,1
 403 597 403 597 485 520 c 0,2,3
 579 430 579 430 579 287 c 0,4,5
 579 164 579 164 496.5 75 c 128,-1,6
 414 -14 414 -14 300 -14 c 0,7,8
 184 -14 184 -14 102.5 75.5 c 128,-1,9
 21 165 21 165 21 292 c 0,10,11
 21 418 21 418 103 507.5 c 128,-1,12
 185 597 185 597 300 597 c 0,0,1
300 497 m 0,13,14
 227 497 227 497 174 436.5 c 128,-1,15
 121 376 121 376 121 292 c 0,16,17
 121 207 121 207 173.5 146.5 c 128,-1,18
 226 86 226 86 300 86 c 0,19,20
 373 86 373 86 426 146 c 128,-1,21
 479 206 479 206 479 289 c 0,22,23
 479 375 479 375 426.5 436 c 128,-1,24
 374 497 374 497 300 497 c 0,13,14
196 798 m 128,-1,26
 221 798 221 798 238.5 780.5 c 128,-1,27
 256 763 256 763 256 737 c 0,28,29
 256 713 256 713 238.5 695.5 c 128,-1,30
 221 678 221 678 196 678 c 128,-1,31
 171 678 171 678 153.5 695.5 c 128,-1,32
 136 713 136 713 136 738 c 128,-1,33
 136 763 136 763 153.5 780.5 c 128,-1,25
 171 798 171 798 196 798 c 128,-1,26
404 798 m 128,-1,35
 429 798 429 798 446.5 780.5 c 128,-1,36
 464 763 464 763 464 737 c 0,37,38
 464 713 464 713 446.5 695.5 c 128,-1,39
 429 678 429 678 404 678 c 128,-1,40
 379 678 379 678 361.5 695.5 c 128,-1,41
 344 713 344 713 344 738 c 128,-1,42
 344 763 344 763 361.5 780.5 c 128,-1,34
 379 798 379 798 404 798 c 128,-1,35
EndSplineSet
EndChar

StartChar: Oacute
Encoding: 211 211 183
Width: 600
GlyphClass: 2
Flags: W
LayerCount: 2
Fore
SplineSet
300 597 m 0,0,1
 403 597 403 597 485 520 c 0,2,3
 579 430 579 430 579 287 c 0,4,5
 579 164 579 164 496.5 75 c 128,-1,6
 414 -14 414 -14 300 -14 c 0,7,8
 184 -14 184 -14 102.5 75.5 c 128,-1,9
 21 165 21 165 21 292 c 0,10,11
 21 418 21 418 103 507.5 c 128,-1,12
 185 597 185 597 300 597 c 0,0,1
300 497 m 0,13,14
 227 497 227 497 174 436.5 c 128,-1,15
 121 376 121 376 121 292 c 0,16,17
 121 207 121 207 173.5 146.5 c 128,-1,18
 226 86 226 86 300 86 c 0,19,20
 373 86 373 86 426 146 c 128,-1,21
 479 206 479 206 479 289 c 0,22,23
 479 375 479 375 426.5 436 c 128,-1,24
 374 497 374 497 300 497 c 0,13,14
423 767 m 2,25,-1
 290 656 l 2,26,27
 271 640 271 640 258 640 c 0,28,29
 243 640 243 640 232 651 c 128,-1,30
 221 662 221 662 221 676 c 0,31,32
 221 695 221 695 244 712 c 2,33,-1
 377 824 l 2,34,35
 396 839 396 839 409 839 c 0,36,37
 425 839 425 839 435.5 828.5 c 128,-1,38
 446 818 446 818 446 803 c 0,39,40
 446 785 446 785 423 767 c 2,25,-1
EndSplineSet
EndChar

StartChar: Ograve
Encoding: 210 210 184
Width: 600
GlyphClass: 2
Flags: W
LayerCount: 2
Fore
SplineSet
300 597 m 0,0,1
 403 597 403 597 485 520 c 0,2,3
 579 430 579 430 579 287 c 0,4,5
 579 164 579 164 496.5 75 c 128,-1,6
 414 -14 414 -14 300 -14 c 0,7,8
 184 -14 184 -14 102.5 75.5 c 128,-1,9
 21 165 21 165 21 292 c 0,10,11
 21 418 21 418 103 507.5 c 128,-1,12
 185 597 185 597 300 597 c 0,0,1
300 497 m 0,13,14
 227 497 227 497 174 436.5 c 128,-1,15
 121 376 121 376 121 292 c 0,16,17
 121 207 121 207 173.5 146.5 c 128,-1,18
 226 86 226 86 300 86 c 0,19,20
 373 86 373 86 426 146 c 128,-1,21
 479 206 479 206 479 289 c 0,22,23
 479 375 479 375 426.5 436 c 128,-1,24
 374 497 374 497 300 497 c 0,13,14
223 824 m 2,25,-1
 356 712 l 2,26,27
 379 693 379 693 379 676 c 0,28,29
 379 662 379 662 368 651 c 128,-1,30
 357 640 357 640 342 640 c 0,31,32
 329 640 329 640 310 656 c 2,33,-1
 177 767 l 2,34,35
 154 786 154 786 154 803 c 0,36,37
 154 818 154 818 164.5 828.5 c 128,-1,38
 175 839 175 839 191 839 c 0,39,40
 204 839 204 839 223 824 c 2,25,-1
EndSplineSet
EndChar

StartChar: Ocircumflex
Encoding: 212 212 185
Width: 600
GlyphClass: 2
Flags: W
LayerCount: 2
Fore
SplineSet
300 597 m 0,0,1
 403 597 403 597 485 520 c 0,2,3
 579 430 579 430 579 287 c 0,4,5
 579 164 579 164 496.5 75 c 128,-1,6
 414 -14 414 -14 300 -14 c 0,7,8
 184 -14 184 -14 102.5 75.5 c 128,-1,9
 21 165 21 165 21 292 c 0,10,11
 21 418 21 418 103 507.5 c 128,-1,12
 185 597 185 597 300 597 c 0,0,1
300 497 m 0,13,14
 227 497 227 497 174 436.5 c 128,-1,15
 121 376 121 376 121 292 c 0,16,17
 121 207 121 207 173.5 146.5 c 128,-1,18
 226 86 226 86 300 86 c 0,19,20
 373 86 373 86 426 146 c 128,-1,21
 479 206 479 206 479 289 c 0,22,23
 479 375 479 375 426.5 436 c 128,-1,24
 374 497 374 497 300 497 c 0,13,14
300 750 m 1,25,-1
 187 653 l 2,26,27
 171 640 171 640 159 640 c 0,28,29
 145 640 145 640 134.5 650.5 c 128,-1,30
 124 661 124 661 124 675 c 0,31,32
 124 686 124 686 128 691.5 c 128,-1,33
 132 697 132 697 148 711 c 2,34,-1
 300 839 l 1,35,-1
 451 711 l 1,36,-1
 460 703 l 2,37,38
 475 691 475 691 475 675 c 0,39,40
 475 661 475 661 464.5 650.5 c 128,-1,41
 454 640 454 640 441 640 c 128,-1,42
 428 640 428 640 412 653 c 2,43,-1
 300 750 l 1,25,-1
EndSplineSet
EndChar

StartChar: Otilde
Encoding: 213 213 186
Width: 600
GlyphClass: 2
Flags: W
LayerCount: 2
Fore
SplineSet
300 597 m 0,0,1
 403 597 403 597 485 520 c 0,2,3
 579 430 579 430 579 287 c 0,4,5
 579 164 579 164 496.5 75 c 128,-1,6
 414 -14 414 -14 300 -14 c 0,7,8
 184 -14 184 -14 102.5 75.5 c 128,-1,9
 21 165 21 165 21 292 c 0,10,11
 21 418 21 418 103 507.5 c 128,-1,12
 185 597 185 597 300 597 c 0,0,1
300 497 m 0,13,14
 227 497 227 497 174 436.5 c 128,-1,15
 121 376 121 376 121 292 c 0,16,17
 121 207 121 207 173.5 146.5 c 128,-1,18
 226 86 226 86 300 86 c 0,19,20
 373 86 373 86 426 146 c 128,-1,21
 479 206 479 206 479 289 c 0,22,23
 479 375 479 375 426.5 436 c 128,-1,24
 374 497 374 497 300 497 c 0,13,14
460 799 m 0,25,26
 473 799 473 799 482.5 790.5 c 128,-1,27
 492 782 492 782 492 771 c 0,28,29
 492 751 492 751 463 715 c 0,30,31
 425 667 425 667 383 667 c 0,32,33
 350 667 350 667 284 709 c 0,34,35
 251 730 251 730 234 730 c 0,36,37
 221 730 221 730 211 722 c 128,-1,38
 201 714 201 714 179 685 c 0,39,40
 167 670 167 670 153 670 c 0,41,42
 140 670 140 670 131 678.5 c 128,-1,43
 122 687 122 687 122 700 c 0,44,45
 122 721 122 721 149 754 c 0,46,47
 188 799 188 799 232 799 c 0,48,49
 262 799 262 799 322 762 c 0,50,51
 365 736 365 736 380 736 c 0,52,53
 391 736 391 736 398 741.5 c 128,-1,54
 405 747 405 747 421 769 c 0,55,56
 442 799 442 799 460 799 c 0,25,26
EndSplineSet
EndChar

StartChar: Ohungarumlaut
Encoding: 336 336 187
Width: 600
GlyphClass: 2
Flags: W
LayerCount: 2
Fore
SplineSet
300 597 m 0,0,1
 403 597 403 597 485 520 c 0,2,3
 579 430 579 430 579 287 c 0,4,5
 579 164 579 164 496.5 75 c 128,-1,6
 414 -14 414 -14 300 -14 c 0,7,8
 184 -14 184 -14 102.5 75.5 c 128,-1,9
 21 165 21 165 21 292 c 0,10,11
 21 418 21 418 103 507.5 c 128,-1,12
 185 597 185 597 300 597 c 0,0,1
300 497 m 0,13,14
 227 497 227 497 174 436.5 c 128,-1,15
 121 376 121 376 121 292 c 0,16,17
 121 207 121 207 173.5 146.5 c 128,-1,18
 226 86 226 86 300 86 c 0,19,20
 373 86 373 86 426 146 c 128,-1,21
 479 206 479 206 479 289 c 0,22,23
 479 375 479 375 426.5 436 c 128,-1,24
 374 497 374 497 300 497 c 0,13,14
331 765 m 2,25,-1
 229 656 l 2,26,27
 214 639 214 639 200 639 c 0,28,29
 187 639 187 639 176 650.5 c 128,-1,30
 165 662 165 662 165 676 c 0,31,32
 165 685 165 685 168 690.5 c 128,-1,33
 171 696 171 696 186 712 c 2,34,-1
 288 822 l 2,35,36
 304 838 304 838 317 838 c 0,37,38
 331 838 331 838 341 827 c 128,-1,39
 351 816 351 816 351 801 c 128,-1,40
 351 786 351 786 331 765 c 2,25,-1
495 765 m 2,41,-1
 393 656 l 2,42,43
 378 639 378 639 364 639 c 0,44,45
 351 639 351 639 340 650.5 c 128,-1,46
 329 662 329 662 329 676 c 0,47,48
 329 685 329 685 332 689.5 c 128,-1,49
 335 694 335 694 350 712 c 2,50,-1
 452 822 l 2,51,52
 468 838 468 838 481 838 c 0,53,54
 495 838 495 838 505 827 c 128,-1,55
 515 816 515 816 515 801 c 128,-1,56
 515 786 515 786 495 765 c 2,41,-1
EndSplineSet
EndChar

StartChar: Racute
Encoding: 340 340 188
Width: 600
GlyphClass: 2
Flags: W
LayerCount: 2
Fore
SplineSet
194 222 m 1,0,-1
 194 100 l 1,1,-1
 229 100 l 2,2,3
 262 100 262 100 275 91 c 0,4,5
 295 74 295 74 295 50 c 0,6,7
 295 21 295 21 271 7 c 0,8,9
 259 0 259 0 229 0 c 2,10,-1
 79 0 l 2,11,12
 45 0 45 0 34 10 c 0,13,14
 13 25 13 25 13 50 c 0,15,16
 13 79 13 79 37 93 c 0,17,18
 48 100 48 100 79 100 c 2,19,-1
 94 100 l 1,20,-1
 94 483 l 1,21,-1
 79 483 l 2,22,23
 46 483 46 483 34 492 c 0,24,25
 13 508 13 508 13 533 c 0,26,27
 13 562 13 562 37 576 c 0,28,29
 48 583 48 583 79 583 c 2,30,-1
 302 583 l 2,31,32
 399 583 399 583 460.5 533.5 c 128,-1,33
 522 484 522 484 522 405 c 0,34,35
 522 313 522 313 414 254 c 1,36,37
 479 197 479 197 540 100 c 1,38,-1
 553 100 l 2,39,40
 586 100 586 100 599 91 c 0,41,42
 619 76 619 76 619 50 c 0,43,44
 619 21 619 21 595 7 c 0,45,46
 583 0 583 0 553 0 c 2,47,-1
 474 0 l 1,48,49
 437 72 437 72 379.5 141.5 c 128,-1,50
 322 211 322 211 290 222 c 1,51,-1
 194 222 l 1,0,-1
194 322 m 1,52,-1
 270 322 l 2,53,54
 333 322 333 322 374.5 346.5 c 128,-1,55
 416 371 416 371 416 408 c 0,56,57
 416 440 416 440 385 461.5 c 128,-1,58
 354 483 354 483 306 483 c 2,59,-1
 194 483 l 1,60,-1
 194 322 l 1,52,-1
452 767 m 2,61,-1
 319 656 l 2,62,63
 300 640 300 640 287 640 c 0,64,65
 272 640 272 640 261 651 c 128,-1,66
 250 662 250 662 250 676 c 0,67,68
 250 695 250 695 273 712 c 2,69,-1
 406 824 l 2,70,71
 425 839 425 839 438 839 c 0,72,73
 454 839 454 839 464.5 828.5 c 128,-1,74
 475 818 475 818 475 803 c 0,75,76
 475 785 475 785 452 767 c 2,61,-1
EndSplineSet
EndChar

StartChar: Rcaron
Encoding: 344 344 189
Width: 600
GlyphClass: 2
Flags: W
LayerCount: 2
Fore
SplineSet
194 222 m 1,0,-1
 194 100 l 1,1,-1
 229 100 l 2,2,3
 262 100 262 100 275 91 c 0,4,5
 295 74 295 74 295 50 c 0,6,7
 295 21 295 21 271 7 c 0,8,9
 259 0 259 0 229 0 c 2,10,-1
 79 0 l 2,11,12
 45 0 45 0 34 10 c 0,13,14
 13 25 13 25 13 50 c 0,15,16
 13 79 13 79 37 93 c 0,17,18
 48 100 48 100 79 100 c 2,19,-1
 94 100 l 1,20,-1
 94 483 l 1,21,-1
 79 483 l 2,22,23
 46 483 46 483 34 492 c 0,24,25
 13 508 13 508 13 533 c 0,26,27
 13 562 13 562 37 576 c 0,28,29
 48 583 48 583 79 583 c 2,30,-1
 302 583 l 2,31,32
 399 583 399 583 460.5 533.5 c 128,-1,33
 522 484 522 484 522 405 c 0,34,35
 522 313 522 313 414 254 c 1,36,37
 479 197 479 197 540 100 c 1,38,-1
 553 100 l 2,39,40
 586 100 586 100 599 91 c 0,41,42
 619 76 619 76 619 50 c 0,43,44
 619 21 619 21 595 7 c 0,45,46
 583 0 583 0 553 0 c 2,47,-1
 474 0 l 1,48,49
 437 72 437 72 379.5 141.5 c 128,-1,50
 322 211 322 211 290 222 c 1,51,-1
 194 222 l 1,0,-1
194 322 m 1,52,-1
 270 322 l 2,53,54
 333 322 333 322 374.5 346.5 c 128,-1,55
 416 371 416 371 416 408 c 0,56,57
 416 440 416 440 385 461.5 c 128,-1,58
 354 483 354 483 306 483 c 2,59,-1
 194 483 l 1,60,-1
 194 322 l 1,52,-1
301 729 m 1,61,-1
 413 826 l 2,62,63
 430 839 430 839 442 839 c 0,64,65
 455 839 455 839 465.5 828.5 c 128,-1,66
 476 818 476 818 476 804 c 0,67,68
 476 788 476 788 461 776 c 2,69,-1
 452 768 l 1,70,-1
 301 640 l 1,71,-1
 149 768 l 2,72,73
 133 782 133 782 129 787.5 c 128,-1,74
 125 793 125 793 125 803 c 0,75,76
 125 817 125 817 135.5 828 c 128,-1,77
 146 839 146 839 160 839 c 0,78,79
 171 839 171 839 188 826 c 2,80,-1
 301 729 l 1,61,-1
EndSplineSet
EndChar

StartChar: Sacute
Encoding: 346 346 190
Width: 600
GlyphClass: 2
Flags: W
LayerCount: 2
Fore
SplineSet
517 531 m 2,0,-1
 517 443 l 2,1,2
 517 410 517 410 508 397 c 0,3,4
 492 376 492 376 468 376 c 0,5,6
 446 376 446 376 432 390 c 0,7,8
 425 398 425 398 418 430 c 0,9,10
 411 460 411 460 378.5 478.5 c 128,-1,11
 346 497 346 497 299 497 c 128,-1,12
 252 497 252 497 219 475 c 128,-1,13
 186 453 186 453 186 421 c 0,14,15
 186 405 186 405 196.5 389.5 c 128,-1,16
 207 374 207 374 223 366 c 0,17,18
 246 354 246 354 323 340 c 0,19,20
 437 319 437 319 479 285 c 0,21,22
 538 238 538 238 538 160 c 128,-1,23
 538 82 538 82 475 34 c 128,-1,24
 412 -14 412 -14 309 -14 c 0,25,26
 226 -14 226 -14 153 25 c 1,27,28
 133 1 133 1 113 1 c 0,29,30
 62 1 62 1 62 67 c 2,31,-1
 62 133 l 2,32,33
 62 166 62 166 71 179 c 0,34,35
 86 199 86 199 112 199 c 0,36,37
 134 199 134 199 148 185 c 0,38,39
 155 178 155 178 163 151 c 0,40,41
 170 124 170 124 211 105 c 128,-1,42
 252 86 252 86 302 86 c 0,43,44
 358 86 358 86 396 108 c 128,-1,45
 434 130 434 130 434 162 c 0,46,47
 434 195 434 195 398 215 c 0,48,49
 374 228 374 228 293 242 c 0,50,51
 208 256 208 256 164 281 c 0,52,53
 126 303 126 303 104 340 c 128,-1,54
 82 377 82 377 82 420 c 0,55,56
 82 496 82 496 144 546.5 c 128,-1,57
 206 597 206 597 299 597 c 0,58,59
 377 597 377 597 429 564 c 1,60,61
 437 583 437 583 445 590 c 128,-1,62
 453 597 453 597 468 597 c 0,63,64
 497 597 497 597 510 574 c 0,65,66
 517 564 517 564 517 531 c 2,0,-1
452 767 m 2,67,-1
 319 656 l 2,68,69
 300 640 300 640 287 640 c 0,70,71
 272 640 272 640 261 651 c 128,-1,72
 250 662 250 662 250 676 c 0,73,74
 250 695 250 695 273 712 c 2,75,-1
 406 824 l 2,76,77
 425 839 425 839 438 839 c 0,78,79
 454 839 454 839 464.5 828.5 c 128,-1,80
 475 818 475 818 475 803 c 0,81,82
 475 785 475 785 452 767 c 2,67,-1
EndSplineSet
EndChar

